<?xml version="1.0" encoding="utf-8"?>
<!-- Generator: Adobe Illustrator 22.0.1, SVG Export Plug-In . SVG Version: 6.00 Build 0)  -->
<svg version="1.1" id="Layer_1" xmlns="http://www.w3.org/2000/svg" xmlns:xlink="http://www.w3.org/1999/xlink" x="0px" y="0px"
	 viewBox="0 0 507.4 153.5" enable-background="new 0 0 507.4 153.5" xml:space="preserve">
<path fill="#0091CC" d="M49.4,111.9c-8.1,6.2-16.8,9.1-26.7,8.6c-12.7-0.7-21-7.6-22.3-19.3C-1.5,86,4.1,75.7,17.2,72.7
	c8.3-1.9,17.1-2,25.7-2.4c3.8-0.2,5.4-1.1,5.1-5.1c-0.3-4.5-0.3-9,0-13.5c0.3-3.8-1.4-5.3-4.7-6.3c-9.1-2.7-18.1-2.2-27.2-0.3
	C12,46,10,44.6,8.8,40.7c-1-3.4-0.3-5.4,3.4-6.3c15.7-3.7,31-2.8,46,3.3c3.7,1.5,4.6,4.2,4.6,7.9c-0.1,17,0,34,0,51
	c0,9.6,0.4,9.9,9.9,8.3c3.1-0.5,5.4,0.4,6.1,3.5c0.7,3.1,3.4,6.5-1.1,9.3C68.6,123.3,56.1,121.1,49.4,111.9z M48.4,80.6
	c-7,0.4-13.3,0.6-19.6,1c-9.9,0.6-15.9,4.3-13.6,18.6c0.9,5.5,3.9,8,9.5,8.5c7.5,0.7,14.6-0.8,21-4.8c1.2-0.7,2.5-2.4,2.6-3.6
	C48.6,94,48.4,87.7,48.4,80.6z"/>
<path fill="#0091CC" d="M231.5,80.3c0.8,5.7,1,10.7,2.4,15.4c2.5,8.3,9.1,12.6,19.9,12.6c5.7,0,11.5-1.2,17.2-2.3
	c6.8-1.3,10.8,2,9.8,8.8c-0.2,1.2-1.4,2.8-2.6,3.3c-13.6,5.6-27.5,6.5-41.3,0.9c-9.4-3.8-15.3-11.2-18-20.8
	c-4.1-14.6-3.9-29.4,1.5-43.7c7-18.7,28.8-27,46.7-18.1c9.5,4.7,13.9,13.1,15.1,23.2c0.6,5.1,0.2,10.3,0.4,15.4
	c0.2,4-1.6,5.2-5.4,5.2c-13-0.1-26-0.1-39-0.1C236.5,80.3,234.7,80.3,231.5,80.3z M268.5,70.3c-0.3-8.8,0.9-17.6-7.6-22.8
	c-6.6-4.1-14-4-20.2,0.5c-7.5,5.3-8.4,13.6-8.3,22.4C244.5,70.3,256.1,70.3,268.5,70.3z"/>
<path fill="#0091CC" d="M430.2,39c-5.7,15.4-11.3,30.6-16.9,45.7c-5.9,15.9-11.8,31.9-17.9,47.7c-4.1,10.4-10.5,18.7-22.4,20.7
	c-4.1,0.7-8.3,0.3-12.4,0.4c-4.1,0.1-5.7-1.8-5.1-5.8c0.5-3.6,0.6-6.7,6-6.3c12.6,1,17-2.5,22.3-13.9c3.4-7.2,3.2-13.4,0.2-20.7
	c-8.5-20.8-16.1-41.9-24-62.9c-2.1-5.5-1.8-5.9,4.1-6c1.3,0,2.7,0.1,4,0c4.2-0.5,6.2,1.2,7.6,5.3c5.4,16.3,11.2,32.4,16.8,48.6
	c0.6,1.7,1.3,3.3,2.3,6.1c5.8-16.1,11.2-31.1,16.6-46c0.7-1.9,1.3-3.8,2-5.6C416.5,37.2,420.1,35.6,430.2,39z"/>
<path fill="#0091CC" d="M472.5,90.4c-5.7,8.8-11,16.8-16.2,24.9c-2.7,4.1-12.2,6.9-16.3,4.2c-0.8-0.5-0.7-3.9,0.2-5.2
	c6.9-11,14-21.8,21.4-32.5c2.3-3.3,2.1-5.6-0.1-8.8c-6.5-9.6-12.8-19.5-19-29.3c-0.9-1.4-1.5-3.4-1.1-4.8c0.2-0.8,2.8-1,4.4-1.3
	c6.4-1.2,10.5,1.3,13.7,7.1c3.7,6.8,8.4,13,13.1,20.2c5.4-8.2,10.4-15.8,15.4-23.4c2.2-3.3,12.1-5.8,15-3.3c0.8,0.7,0.7,3.7-0.1,5
	c-5.9,9.6-11.9,19.2-18.4,28.5c-3,4.3-3.1,7.4,0,11.8c6.9,9.7,13.3,19.9,19.8,30c1.1,1.7,1.7,3.6,3.2,6.7c-5.4,0-9.6,0.3-13.6-0.2
	c-1.6-0.2-3.3-2.1-4.3-3.6C483.8,107.9,478.4,99.5,472.5,90.4z"/>
<path fill="#0091CC" d="M160.2,50c-12.9-1.7-12.8-1.7-12.8-7.5c0.1-10.2,8.5-3.5,13.2-7c0-5.7,0-12.3,0-18.9
	c0-4.7,7.1-11.6,11.6-10.7c1.3,0.2,2.9,3,3,4.7c0.3,6.8,0.1,13.7,0.1,20.5c0,1.8,0,3.6,0,6.1c6,0,11.6,0.1,17.2,0
	c3.8-0.1,4.9,1.6,4.8,5.2c-0.1,3.3,0.3,6.6-4.5,6.6c-5.6,0-11.2,0-17.5,0c0,4.6,0,8.5,0,12.5c0,11.5-0.3,23-0.1,34.5
	c0.2,8.8,5.1,12.5,13.8,11.3c1.5-0.2,3-0.4,4.4-0.8c6.4-1.5,7.3-1,7.9,5.5c0.2,1.8-1.1,4.8-2.5,5.4c-7,3-14.4,4.3-22,2.8
	c-11.8-2.3-17.6-9.3-17.6-21.8c0-14.2,0.4-28.3,0.7-42.5C160.2,53.9,160.2,52.1,160.2,50z"/>
<path fill="#0091CC" d="M113.1,50.2c0,13.5,0,27,0,40.5c0,2.5,0,5,0.5,7.5c1.2,6.4,5.4,9.4,11.8,8.8c2-0.2,3.9-0.7,5.9-1.1
	c3.2-0.7,6.5-2.2,7.9,2.8c1.6,6,1.3,8-4.6,9.2c-6.2,1.3-12.9,2.2-19.1,1.5c-10.9-1.2-16.5-7.8-17-18.8c-0.5-11.3-0.4-22.7-0.5-34
	c-0.1-18,0-36,0-54c0-5.6,6.1-12.5,11.6-12.8c3.8-0.2,3.5,2.7,3.5,5.2C113.2,20.2,113.1,35.2,113.1,50.2z"/>
<path fill="#0091CC" d="M319.1,45.6c6.7-5.9,12.5-9.4,20-9c4,0.2,6.1,1.3,5.4,6c-1,7.5-1.2,8-6.8,7.4c-9.6-1.1-17.6,5.9-17.6,15.4
	c0,15.8,0,31.6,0,47.4c0,7.1-0.4,7.6-7.7,7.6c-7.1,0-7.3-0.2-7.3-7.3c0-22.1,0-44.3,0-66.4c0-8.2,0-8.1,8.1-8.2
	C317.4,38.4,320.6,38.8,319.1,45.6z"/>
</svg>
