<?xml version="1.0" encoding="utf-8"?>
<!-- Generator: Adobe Illustrator 22.0.1, SVG Export Plug-In . SVG Version: 6.00 Build 0)  -->
<svg version="1.1" id="Layer_1" xmlns="http://www.w3.org/2000/svg" xmlns:xlink="http://www.w3.org/1999/xlink" x="0px" y="0px"
	 viewBox="0 0 299.3 94.3" style="enable-background:new 0 0 299.3 94.3;" xml:space="preserve">
<style type="text/css">
	.st0{fill:#FE1A12;}
	.st1{fill:#FE1B13;}
</style>
<path class="st0" d="M50.2,0c0.9,0.3,1.7,0.2,2.6,0.4c10.5,1.4,19.5,5.7,27.1,13c2.9,2.8,5.4,5.9,7.5,9.4c0.1,0.2,0.3,0.4,0.3,0.6
	l0,0c-0.4,0.1-0.7-0.3-1.1-0.4c-2-0.8-4.2-1.2-6.3-1.4c-4.3-0.4-8.6-0.3-12.8,0.8c-4.5,1.2-8.3,3.5-10.7,7.7c-1.5,2.5-2,5.2-2.2,8.1
	c-0.1,1.5-0.1,1.5,1.4,1.5c2.7,0,5.4,0,8.2,0c0.5,0,0.6-0.1,0.6-0.6c0.1-1.3,0.2-2.6,0.6-3.8c0.6-1.4,1.5-2.5,2.8-3.2
	c2.4-1.2,4.9-1.5,7.6-1.5c1.6,0.1,3.2,0.2,4.7,0.6c3.3,1,4.6,3.6,4.2,7c-0.1,0.8-0.5,1.4-1.1,1.8c-1.3,0.9-2.7,1.3-4.2,1.6
	c-2.7,0.6-5.4,0.7-8.1,1.2c-3,0.6-6.1,1.1-9,2.2c-3.6,1.3-6.4,3.5-8.1,7c-1.2,2.4-1.4,4.9-1.4,7.5c0.1,2.3,0.5,4.5,1.7,6.5
	c2,3.5,5,5.6,8.9,6.4c6,1.4,11.8,0.9,17.4-1.8c1.5-0.7,2.8-1.7,4-2.8c0.2-0.2,0.3-0.3,0.5-0.4c0.1,0.4,0.2,0.7,0.4,1.1
	c0.3,0.8,0.7,1.6,1.3,2.2c0.4,0.4,0.5,0.7,0.2,1.2c-7.6,11.7-18.2,19-31.9,21.6c-1.5,0.3-3,0.5-4.5,0.6c-0.2,0-0.4-0.1-0.5,0.1
	c-2,0-4,0-6,0c-0.1-0.2-0.3-0.1-0.5-0.1c-1.3-0.1-2.6-0.2-3.8-0.4c-10.2-1.6-19.1-6-26.3-13.4C2.3,68.7-2,54.6,0.8,38.6
	c1.8-10.1,6.6-18.7,14.1-25.7C22.3,5.7,31.1,1.7,41.3,0.4c1-0.2,1.9-0.1,2.9-0.4C46.2,0,48.2,0,50.2,0z"/>
<path class="st1" d="M299.2,72.3c-3.5-0.1-7,0.2-10.4-0.1c-0.9-0.1-1.8-0.2-2.6-0.4c-3.5-0.8-5.5-3-6.2-6.5
	c-0.3-1.3-0.4-2.6-0.4-3.9c0-9.6,0-19.2,0-28.8c0-0.6-0.1-0.8-0.7-0.8c-2.3,0.1-4.5,0-6.7,0c-0.5,0-0.6-0.1-0.6-0.6
	c0.1-2.7,0.1-5.4,0-8.2c0-0.5,0.2-0.6,0.6-0.6c2.3,0,4.6,0,7,0c0.5,0,0.6-0.2,0.6-0.6c0-4.3,0-8.7,0-13c0-0.5,0.1-0.6,0.6-0.6
	c3,0,5.9,0,9,0c0.5,0,0.7,0.1,0.7,0.7c-0.1,4.3,0,8.6-0.1,12.9c0,0.5,0.1,0.7,0.6,0.7c2.8-0.1,5.5,0,8.3,0c0.2,0,0.4-0.1,0.6-0.1
	c0,3.1,0,6.2,0,9.3c-2.9,0-5.8,0.1-8.8,0c-0.6,0-0.7,0.2-0.7,0.7c0,9.2,0,18.4,0,27.7c0,0.4,0.1,0.8,0.1,1.2
	c0.2,1.1,0.5,1.4,1.5,1.5c2.6,0.3,5.2,0.2,7.8,0.1C299.2,66.1,299.2,69.2,299.2,72.3z"/>
<path class="st1" d="M174.2,26.8c0-1.4,0-2.5,0-3.7c0-0.4,0.1-0.6,0.6-0.6c2.9,0,5.8,0,8.7,0c0.5,0,0.6,0.2,0.6,0.6
	c0,14.8,0,29.5,0,44.2c0,3.6-0.4,7.3-1.5,10.7c-2.1,6.4-6.3,10.6-12.8,12.3c-6.3,1.7-12.6,1.5-18.8-0.6c-3-1-5.5-2.6-7.6-5
	c-2.3-2.7-3.2-5.8-3.2-9.3c0-0.4,0.2-0.4,0.4-0.4c3.1,0,6.2,0,9.3,0c0.4,0,0.5,0.2,0.5,0.5c-0.1,2.7,1.4,4.3,3.6,5.5
	c2.9,1.6,6,1.9,9.3,1.7c1.4-0.1,2.8-0.5,4.1-1.1c2.1-1,3.8-2.5,4.9-4.6c1.8-3.1,2.1-6.5,2.3-10c-0.1,0-0.2,0-0.2,0.1
	c-2.5,2.9-5.8,4.5-9.5,5.1c-7.1,1.3-13.6-0.2-19-5.1c-3.4-3.2-5.4-7.2-6.5-11.6c-1.7-7.3-1.2-14.4,1.8-21.3c2.5-5.8,6.8-10,13-11.8
	c5.1-1.5,10.2-1.6,15.2,0.6C171,23.9,172.6,25.1,174.2,26.8z M173.8,46.9c0-3.3-0.6-6.3-1.5-8.7c-2.8-7-10.7-9.7-17.1-5.9
	c-2.7,1.6-4.4,4.1-5.3,7.1c-1.1,3.5-1.3,7.1-0.9,10.6c0.3,2.4,0.7,4.7,1.8,7c1.8,3.8,4.6,6.3,9,6.6c5,0.4,8.9-1.4,11.5-5.8
	C173.2,54.2,173.7,50.4,173.8,46.9z"/>
<path class="st1" d="M266.2,38.7c-1.5,0-3.1,0-4.6,0c-0.4,0-0.5-0.1-0.5-0.5c0-0.4-0.1-0.9-0.1-1.3c-0.3-2.4-1.7-4-3.8-5.1
	c-2.3-1.1-4.7-1.3-7.2-1.2c-1.6,0.1-3.1,0.3-4.6,0.9c-1.3,0.6-2.5,1.3-2.9,2.8c-0.4,1.5-0.1,2.8,1.2,3.8c1.6,1.3,3.6,2.1,5.5,2.6
	c3.3,0.8,6.5,1.5,9.8,2.3c2.9,0.7,5.7,1.6,8.3,3.2c4.4,2.8,6.3,6.9,5.9,12.1c-0.5,6.7-4.2,11-10.3,13.1c-7.1,2.5-14.3,2.6-21.4,0.1
	c-6.6-2.3-10.2-7.3-10.8-14.3c-0.1-0.7-0.1-1.3-0.1-2c0-0.3,0-0.5,0.4-0.5c3.1,0,6.3,0,9.4,0c0.4,0,0.4,0.1,0.4,0.4
	c0.1,0.9,0.1,1.7,0.3,2.5c0.6,2.5,2.2,4.2,4.5,5c4.5,1.7,9.2,1.7,13.7,0c2.5-0.9,3.6-2.9,3.2-5.5c-0.2-1.3-0.9-2.2-1.9-2.9
	c-1.9-1.2-3.9-1.9-6-2.5c-3.3-0.9-6.7-1.4-10-2.3c-2.4-0.7-4.7-1.5-6.8-2.8c-4.4-2.6-6.3-6.5-6.1-11.6c0.3-5.5,3.2-9.2,8-11.6
	c3-1.5,6.2-2.2,9.6-2.3c4-0.2,7.9,0.1,11.7,1.4c5.7,2,8.9,6.1,9.9,12c0.2,1.1,0.3,2.2,0.4,3.3c0.1,0.4-0.1,0.5-0.5,0.5
	C269.3,38.7,267.8,38.7,266.2,38.7z"/>
<path class="st1" d="M219,67.2c-1,1.1-1.9,2-2.9,2.7c-3.2,2.3-6.9,3.2-10.8,3.3c-2.8,0.1-5.5-0.2-8.2-1.1c-5.3-1.9-8.3-5.6-9.3-11
	c-0.5-2.2-0.6-4.4-0.6-6.6c0-10.5,0-20.9,0-31.4c0-0.6,0.2-0.7,0.7-0.7c3,0,5.9,0.1,8.9,0c0.6,0,0.7,0.2,0.7,0.7
	c0,10.9,0,21.9,0,32.8c0,2.9,1,5.3,3.5,6.9c1.4,0.9,2.9,1.2,4.4,1.2c2.3,0.1,4.5-0.2,6.6-1.2c3.4-1.6,5.3-4.5,6.1-8.1
	c0.4-1.4,0.5-2.9,0.5-4.3c0-9.1,0-18.2,0-27.3c0-0.6,0.1-0.7,0.7-0.7c3,0.1,5.9,0,9,0c0.5,0,0.6,0.1,0.6,0.6c0,16.2,0,32.4,0,48.7
	c0,0.5-0.1,0.6-0.6,0.6c-2.9,0-5.7,0-8.6,0c-0.5,0-0.6-0.2-0.6-0.6C219,70.3,219,68.9,219,67.2z"/>
<path class="st1" d="M126,67.2c-0.4,0.4-0.6,0.6-0.9,0.9c-2.4,2.5-5.4,4-8.8,4.7c-3.7,0.7-7.4,0.7-11.1-0.3
	c-5.9-1.5-9.4-5.4-10.6-11.3C94.2,59.2,94,57.1,94,55c0-10.6,0-21.1,0-31.7c0-0.5,0.1-0.7,0.7-0.7c2.9,0.1,5.9,0.1,8.8,0
	c0.6,0,0.7,0.1,0.7,0.7c0,10.7,0,21.5,0,32.2c0,1.3,0.1,2.5,0.5,3.7c1,2.6,2.8,4.2,5.5,4.7c3,0.6,5.9,0.3,8.6-1
	c3.4-1.6,5.2-4.5,6.1-8c0.4-1.4,0.5-2.8,0.5-4.2c0-9.1,0-18.2,0-27.4c0-0.6,0.1-0.7,0.7-0.7c3,0.1,5.9,0,9,0c0.5,0,0.6,0.1,0.6,0.6
	c0,16.2,0,32.4,0,48.7c0,0.5-0.2,0.6-0.6,0.6c-2.9,0-5.7,0-8.6,0c-0.5,0-0.6-0.2-0.6-0.6C126,70.3,126,68.9,126,67.2z"/>
<path class="st0" d="M87.7,23.3c0.1,0,0.1,0.1,0.1,0.1L87.7,23.3C87.7,23.4,87.6,23.4,87.7,23.3L87.7,23.3z"/>
</svg>
