<?xml version="1.0" encoding="utf-8"?>
<!-- Generator: Adobe Illustrator 22.0.1, SVG Export Plug-In . SVG Version: 6.00 Build 0)  -->
<svg version="1.1" id="Layer_1" xmlns="http://www.w3.org/2000/svg" xmlns:xlink="http://www.w3.org/1999/xlink" x="0px" y="0px"
	 viewBox="0 0 301 301" style="enable-background:new 0 0 301 301;" xml:space="preserve">
<style type="text/css">
	.st0{fill:#00008F;}
	.st1{fill:#FDFDFD;}
	.st2{fill:#FD1721;}
	.st3{fill:#01018F;}
	.st4{fill:#030390;}
</style>
<path class="st0" d="M0,262.1C0,175.2,0,88.3,0,1.4C0,0.2,0.2,0,1.4,0c94.2,0,188.3,0,282.5,0c-0.3,0.4-0.6,0.9-0.9,1.3
	C245.4,50,207.9,98.6,170.3,147.2c-0.3,0.4-0.8,0.7-0.7,1.4c5.2,0,10.4,0,15.6,0c0.9,0,1.5-0.3,2.1-1
	c30.4-39.6,60.9-79.1,91.4-118.7c7.4-9.6,14.8-19.2,22.2-28.8c0,0.6,0,1.3,0,1.9c0,98.9,0,197.9,0,296.8c0,2.1,0,2.1-2.1,2.1
	c-99,0-198,0-297.1,0c-0.6,0-1.2,0-1.8,0.1c0-10,0-20,0-30.1c4,0,8.1-0.1,12.1-0.1c0.8,0,1.2-0.2,1.6-0.9c1.3-2.2,2.6-4.4,4.2-6.4
	c10-13.2,20-26.3,30-39.4c0.4-0.6,0.9-0.7,1.6-0.7c14.2,0,28.4,0,42.6,0c0.8,0,1.2,0.2,1.4,1c1.5,5.4,3.1,10.7,4.6,16.1
	c0.2,0.7,0.1,1.3-0.4,1.9c-1.2,1.5-2.4,3.1-3.6,4.7c-6.3,8-12.2,16.4-19.8,23.3c-0.1,0.1-0.1,0.2-0.2,0.5c6.4,0,12.6,0,18.9,0
	c1.3,0,2-0.3,2.5-1.5c2.2-5.1,5.8-9.3,9.3-13.7c1.6,4.7,3,9.2,3.6,14c0.1,1,0.5,1.3,1.5,1.3c6.2,0,12.4-0.1,18.6,0
	c1.1,0,1.7-0.3,2.1-1.3c2.2-5.1,5.9-9.1,9.6-13.3c1.6,4.5,2.8,8.8,3.4,13.3c0.1,1,0.5,1.3,1.5,1.3c8.2,0,16.3,0,24.5,0
	c1.3,0,1.4-0.2,0.8-1.3c-1.6-2.8-3.4-5.6-4.5-8.8c-2.9-8.7-5.7-17.5-8.5-26.3c-0.3-0.8-0.1-1.4,0.4-2c1.9-2.6,3.8-5.3,5.6-7.9
	c0.6-0.8,1.1-1.1,2.1-1.1c14.1,0,28.2,0,42.3,0c1.1,0,1.6,0.3,1.9,1.4c2.4,8,5,15.9,7.3,23.9c2.1,7,4.8,13.8,5,21.3
	c0,1.2,0.8,0.9,1.4,0.9c8.6,0,17.2,0,25.8,0c0.3,0,0.6,0.2,0.8-0.2c-0.5-0.8-1-1.6-1.5-2.5c-2-3.9-3.5-8-4.9-12.1
	c-4.7-13.3-8.9-26.9-13.2-40.4c-3.4-10.7-6.4-21.5-9.4-32.3c-2.2-7.8-5.3-15.4-5.8-23.7c0-0.9-0.5-0.8-1.2-0.8c-6.6,0-13.3,0-19.9,0
	c-0.8,0-1.1,0.3-1.4,1c-1.6,3.5-3.5,6.9-5.8,10c-11.3,15.5-22.9,30.7-34.7,45.8c-0.2,0.3-0.3,0.7-0.9,0.7c-1-3.5-2-7.1-3.1-10.6
	c-0.3-1.1-0.2-1.8,0.5-2.7c6.5-8.2,12.9-16.4,19.4-24.6c5.3-6.7,10.3-13.7,16.8-19.3c0,0,0-0.2,0-0.3c-7,0-14,0-21.1,0
	c-0.8,0-1,0.2-1.2,1c-0.3,2.5-1.2,4.7-2.8,6.7c-6.1,7.7-12.2,15.5-18.3,23.2c-0.1,0.2-0.3,0.4-0.5,0.3c-2.3-8-4.6-15.9-6.8-23.9
	c-0.6-2-1-4-0.9-6.1c0-1.1-0.3-1.4-1.4-1.4c-7.9,0.1-15.7,0-23.6,0c-0.6,0-1.2,0-2,0c1.7,3.3,3.3,6.6,4.4,9.9
	c4,12.1,7.8,24.3,11.9,36.5c0.9,2.6,0.7,4.4-1.2,6.4c-2,2.1-3.6,4.6-5.5,7c-0.2-0.5-0.3-0.9-0.4-1.2c-3.7-12.1-7.4-24.2-11.2-36.2
	c-2.2-7-4.6-14-4.7-21.5c0-1.2-0.8-0.9-1.4-0.9c-6.8,0-13.7,0-20.5,0c-1.1,0-1.5,0.4-2,1.3c-2.3,4.8-4.5,9.6-7.6,13.9
	c-11.3,15.5-23.1,30.6-34.7,45.9c-10.5,13.8-21.1,27.4-32,40.8C1.1,261.3,0.8,262,0,262.1z"/>
<path class="st1" d="M0,262.1c0.8-0.1,1-0.8,1.4-1.3c10.9-13.4,21.5-27,32-40.8c11.6-15.3,23.4-30.4,34.7-45.9
	c3.1-4.3,5.3-9.1,7.6-13.9c0.4-0.9,0.9-1.3,2-1.3c6.8,0.1,13.7,0,20.5,0c0.6,0,1.4-0.2,1.4,0.9c0.1,7.5,2.5,14.4,4.7,21.5
	c3.8,12.1,7.5,24.1,11.2,36.2c0.1,0.3,0.2,0.6,0.4,1.2c1.9-2.4,3.6-4.9,5.5-7c1.9-2,2-3.8,1.2-6.4c-4.1-12.1-7.9-24.3-11.9-36.5
	c-1.1-3.4-2.7-6.6-4.4-9.9c0.7,0,1.4,0,2,0c7.9,0,15.7,0,23.6,0c1.1,0,1.4,0.3,1.4,1.4c-0.1,2.1,0.3,4.1,0.9,6.1
	c2.3,8,4.6,15.9,6.8,23.9c0.3,0,0.4-0.2,0.5-0.3c6.1-7.7,12.2-15.5,18.3-23.2c1.6-2,2.5-4.2,2.8-6.7c0.1-0.8,0.3-1,1.2-1
	c7,0,14,0,21.1,0c0,0.1,0.1,0.3,0,0.3c-6.5,5.6-11.5,12.6-16.8,19.3c-6.5,8.2-12.9,16.4-19.4,24.6c-0.7,0.9-0.8,1.6-0.5,2.7
	c1.1,3.5,2.1,7.1,3.1,10.6c0.5,0.1,0.6-0.4,0.9-0.7c11.7-15.1,23.4-30.3,34.7-45.8c2.3-3.1,4.2-6.5,5.8-10c0.3-0.7,0.6-1,1.4-1
	c6.6,0,13.3,0,19.9,0c0.6,0,1.1,0,1.2,0.8c0.5,8.2,3.6,15.8,5.8,23.7c3,10.8,6,21.6,9.4,32.3c4.3,13.5,8.5,27,13.2,40.4
	c1.5,4.1,2.9,8.2,4.9,12.1c0.4,0.9,1,1.7,1.5,2.5c-0.2,0.3-0.6,0.2-0.8,0.2c-8.6,0-17.2,0-25.8,0c-0.6,0-1.4,0.3-1.4-0.9
	c-0.1-7.4-2.9-14.3-5-21.3c-2.4-8-4.9-15.9-7.3-23.9c-0.3-1.1-0.8-1.4-1.9-1.4c-14.1,0-28.2,0-42.3,0c-1,0-1.6,0.3-2.1,1.1
	c-1.8,2.7-3.7,5.3-5.6,7.9c-0.5,0.7-0.6,1.2-0.4,2c2.9,8.8,5.6,17.5,8.5,26.3c1,3.1,2.9,5.9,4.5,8.8c0.6,1.1,0.5,1.3-0.8,1.3
	c-8.2,0-16.3,0-24.5,0c-1,0-1.4-0.2-1.5-1.3c-0.5-4.5-1.8-8.9-3.4-13.3c-3.7,4.2-7.4,8.2-9.6,13.3c-0.4,1-1,1.3-2.1,1.3
	c-6.2-0.1-12.4-0.1-18.6,0c-1,0-1.4-0.2-1.5-1.3c-0.6-4.7-2-9.3-3.6-14c-3.5,4.4-7.1,8.6-9.3,13.7c-0.5,1.3-1.2,1.6-2.5,1.5
	c-6.3-0.1-12.5,0-18.9,0c0.1-0.2,0.1-0.4,0.2-0.5c7.7-6.9,13.5-15.3,19.8-23.3c1.2-1.5,2.4-3.1,3.6-4.7c0.5-0.6,0.6-1.1,0.4-1.9
	c-1.6-5.4-3.1-10.7-4.6-16.1c-0.2-0.8-0.6-1-1.4-1c-14.2,0-28.4,0-42.6,0c-0.7,0-1.2,0.2-1.6,0.7c-10,13.1-20,26.2-30,39.4
	c-1.5,2-2.9,4.2-4.2,6.4c-0.4,0.7-0.8,0.9-1.6,0.9c-4,0-8.1,0-12.1,0.1C0,268,0,265,0,262.1z M59.1,210.2c0.3,0.1,0.4,0.2,0.6,0.2
	c9.4,0,18.8,0,28.3,0c1,0,0.9-0.4,0.6-1.1c-1.2-3.7-2.4-7.3-3.5-11.1c-1.5-5-3.5-9.9-3.6-15.2c0-0.9,0.2-1.9-0.2-2.8
	C74.8,190.9,66.8,200.3,59.1,210.2z M174.5,210.2c0.3,0.1,0.4,0.1,0.5,0.1c9.4,0,18.9,0,28.3,0c0.8,0,1-0.1,0.7-1
	c-1.2-3.6-2.4-7.2-3.4-10.8c-1.3-4.4-3.1-8.7-3.5-13.3c-0.2-1.7-0.2-3.4-0.2-5.3C190.3,190.9,182.3,200.3,174.5,210.2z M129.1,224.1
	c-2.3,3-4.5,5.9-6.7,8.7c-1,1.2-1.1,2.2-0.6,3.7c1.6,4.5,3,9.1,4.6,13.9c2.1-2.8,3.8-5.6,6-8.1c1.8-2.1,2.2-4,1-6.6
	C131.6,232,130.6,228.1,129.1,224.1z"/>
<path class="st2" d="M300.9,0.1c-7.4,9.6-14.8,19.2-22.2,28.8c-30.5,39.6-60.9,79.1-91.4,118.7c-0.6,0.7-1.1,1-2.1,1
	c-5.2,0-10.4,0-15.6,0c-0.1-0.7,0.4-1,0.7-1.4C207.9,98.6,245.4,50,283,1.4c0.3-0.4,0.6-0.9,0.9-1.3C289.6,0,295.3,0,300.9,0.1
	C301,0,300.9,0.1,300.9,0.1z"/>
<path class="st3" d="M59.1,210.2c7.7-9.8,15.7-19.3,22.2-30c0.4,0.9,0.1,1.9,0.2,2.8c0.1,5.3,2.1,10.2,3.6,15.2
	c1.1,3.7,2.3,7.4,3.5,11.1c0.2,0.7,0.3,1.1-0.6,1.1c-9.4,0-18.8,0-28.3,0C59.5,210.3,59.4,210.3,59.1,210.2z"/>
<path class="st3" d="M174.5,210.2c7.7-9.9,15.8-19.3,22.3-30.2c0.1,1.9,0.1,3.6,0.2,5.3c0.4,4.6,2.2,8.9,3.5,13.3
	c1.1,3.6,2.2,7.2,3.4,10.8c0.3,0.9,0.1,1-0.7,1c-9.4,0-18.9,0-28.3,0C174.9,210.3,174.8,210.3,174.5,210.2z"/>
<path class="st4" d="M129.1,224.1c1.4,4,2.5,7.9,4.2,11.6c1.2,2.7,0.8,4.5-1,6.6c-2.1,2.5-3.9,5.3-6,8.1c-1.5-4.8-3-9.4-4.6-13.9
	c-0.5-1.4-0.4-2.5,0.6-3.7C124.7,230,126.8,227.1,129.1,224.1z"/>
</svg>
