<?xml version="1.0" encoding="utf-8"?>
<!-- Generator: Adobe Illustrator 22.0.1, SVG Export Plug-In . SVG Version: 6.00 Build 0)  -->
<svg version="1.1" id="Layer_1" xmlns="http://www.w3.org/2000/svg" xmlns:xlink="http://www.w3.org/1999/xlink" x="0px" y="0px"
	 viewBox="0 0 949.1 198.5" enable-background="new 0 0 949.1 198.5" xml:space="preserve">
<path fill="#141414" d="M0,77.2c0.6-19.1,2.9-33.2,10-46C23.6,6.5,50.6-4.7,79.7,1.9c9.7,2.2,18.8,5.6,27.3,10.7
	c3.3,2,5.7,2,9.1,0.1C132.7,3,150.5-1.9,169.7,0.8c26.4,3.7,45.5,23.2,51.2,51.8c6.7,33.4-3,63.2-20.6,91.1
	c-12.7,20.2-29.8,35.7-51.5,45.9c-25.5,12-51.2,12.1-76-0.9C26.2,164.3,4.2,123.9,0,77.2z M172.9,145.5c0.9-0.4,1.5-0.5,1.7-0.9
	c21-25.4,32.4-54,26.8-87.3c-2.5-15.1-9.7-27.8-24.8-34c-14.1-5.8-28.2-3.8-41.7,2.1c-26.5,11.6-44.5,31.9-56,57.8
	c-10.5,23.3-14.6,47.6-3.5,72.1c6.9,15.3,19.4,23,36.1,23c16.7,0,29-7.7,36.2-22.9c9.2-19.4,7.2-39.2,1.7-59.1c-0.8-3-2-3.3-4.5-1.6
	c-7.9,5.2-15.9,10.3-23.9,15.5c-2.3,1.5-4.6,2.5-6.7-0.1c-2.4-3.1-4.7-6.5-6.8-9.9c-1.5-2.5-1.6-5,1.4-6.9
	c14.5-8.9,28.9-17.8,43.4-26.7c3.4-2.1,5.5-0.8,7.2,2.4c10.3,19.9,16,40.8,14.4,63.5C173.8,136.7,173.4,140.9,172.9,145.5z
	 M48.9,145c0.4-0.2,0.9-0.3,1.3-0.5c-0.4-4.1-0.9-8.2-1.2-12.2c-1.7-27.5,7.1-52.1,21.4-75c5.9-9.5,12.3-18.6,20.7-26.1
	c2.8-2.5,2.3-3.9-1-5c-3.9-1.4-7.7-3.1-11.7-4.2c-28.4-7.5-50.1,5.6-56.4,34.3c-4.9,22.1,0.2,42.9,9.7,62.9
	C36.2,128.6,41.9,137.2,48.9,145z M50.6,145.9c-0.1-0.1-0.2-0.2-0.2-0.3c-0.1,0.1-0.3,0.2-0.3,0.3c0,0.1,0.1,0.2,0.2,0.3
	C50.4,146,50.5,146,50.6,145.9z"/>
<path fill="#141414" d="M351.6,124.2c-4.4,0-7.7-0.1-11,0c-4.5,0.1-6.7-1.6-6.7-6.5c-0.1-13.2-0.2-13.2,13-13.2
	c10.2,0,20.3,0.1,30.5,0c4.4-0.1,6.3,1.6,6.2,6.2c-0.2,13.2,0,26.3-0.1,39.5c0,5.8-0.9,6.6-6.7,6.6c-0.8,0-1.7,0-2.5,0
	c-10.6,0-10.6,0-11.7-10.7c-0.1-0.9,0.3-2.2-1-2.6c-1.4-0.4-2,1-2.8,1.7c-13.9,12.2-30.2,16.5-47.9,12.6
	c-24.3-5.3-43.2-23.9-45.2-50.7c-1-13.3,0.8-26,7.9-37.5c6.5-10.5,15.6-18.2,26.9-23c22.4-9.6,43.9-7.5,63.9,6.4
	c6.9,4.8,11.4,11.5,14.9,19.1c1.4,3.1,0.8,5-2.6,6.1c-4.3,1.5-8.5,3-12.6,4.9c-4,1.9-6.2,0.8-8.5-2.9c-11.3-18.7-38.4-22-54.1-6.7
	c-12.7,12.4-14.1,35.8-2.9,50.1c10.2,13,31.7,16.2,46.4,6.9C347.4,129,349.6,127.6,351.6,124.2z"/>
<path fill="#141414" d="M481.8,99.6c0-16.3,0-32.6,0-49c0-7.7,0.4-8.1,8.3-8.1c13,0,26-0.1,39,0c11.5,0.1,22.5,3.1,32.5,8.5
	c14.5,7.9,23.1,20.5,25.7,36.7c3.6,23.4-1.6,44-22.1,58.1c-11,7.6-23.8,10.9-37.3,10.9c-13.2,0-26.3,0-39.5,0
	c-5.8,0-6.6-0.9-6.6-6.7C481.8,133.3,481.8,116.5,481.8,99.6z M506.7,99.5c0,10.2,0.1,20.3-0.1,30.5c0,3,0.9,4.1,4,4.1
	c6.7-0.2,13.3,0.1,20-0.1c18.9-0.7,32.3-15,32.3-34.3c0-19.3-12.8-33.2-31.8-34.1c-6.8-0.3-13.7,0-20.5-0.2c-3.1-0.1-4,1.1-4,4.1
	C506.8,79.5,506.7,89.5,506.7,99.5z"/>
<path fill="#141414" d="M746.3,83.4c1.5-1.8,0.9-3.5,0.9-5.1c0.1-9.5,0-19,0-28.5c0-6.6,0.7-7.3,7-7.3c3.7,0,7.3,0.1,11,0
	c3.4-0.1,4.9,1.6,5.1,4.7c0.1,1.2,0,2.3,0,3.5c0,32.7,0,65.3,0,98c0,7.8-0.3,8.1-8.2,8.1c-2.2,0-4.4-0.2-6.5,0
	c-5.3,0.6-9-0.6-8.6-7.5c-5.5,4.1-10.2,8.3-16.8,9.3c-24.7,3.4-46.4-17.2-45.3-43.2c1.1-25.4,19.8-42.6,43.6-40.1
	C735.4,76,741.2,78.9,746.3,83.4z M747.9,117.3c0.1-11.3-8.3-20.5-18.7-20.6c-10.5-0.1-19.1,9-19.2,20.2c-0.1,11.5,7.9,20,19,20.1
	C739.7,137.1,747.8,128.7,747.9,117.3z"/>
<path fill="#141414" d="M839.5,84.5c0-11.9,0-22.8,0-33.8c0-7.8,0.4-8.1,8.2-8.1c3.3,0,6.7,0.1,10,0c3.4-0.1,4.9,1.6,5.1,4.8
	c0.1,1.2,0,2.3,0,3.5c0,32.7,0,65.3,0,98c0,7.6-0.5,8-7.8,8.1c-2.2,0-4.3,0-6.5,0c-7.8,0-7.8,0-9.9-7.5c-5,3.9-9.6,8.2-16.2,9.2
	c-10.5,1.6-19.7-1.1-28.2-7.2c-14.9-10.6-20.9-28.7-15.6-47.5c4.5-16.1,18.7-27.6,35.2-28.7C823.2,74.6,829.4,76.7,839.5,84.5z
	 M840.1,117c-0.1-10.6-9.5-20.4-19.4-20.2c-10.2,0.2-18.3,9.3-18.3,20.5c0,11.4,8.1,19.9,18.8,19.7
	C831.6,136.8,840.1,127.9,840.1,117z"/>
<path fill="#141414" d="M654.9,84.2c-0.4-6.2,2.9-7.3,7.6-6.9c3.5,0.3,7,0.2,10.5,0c4.3-0.3,5.9,1.6,5.9,5.9
	c-0.1,16.2-0.1,32.3-0.1,48.5c0,6.5-0.1,13,0,19.5c0,3.9-1.5,5.9-5.6,5.7c-3.5-0.2-7,0-10.5,0c-6.7,0-6.9-0.2-8.1-7.1
	c-5.1,3.9-9.8,7.9-16.3,8.9c-20.4,3.2-43.3-12.2-45.2-37c-1.2-15.7,3.1-29.4,16.3-39.2C623.2,72.2,641.3,72.7,654.9,84.2z
	 M637.1,97.1c-10.4,0-18.6,8.7-18.7,19.9c-0.1,11.4,7.8,19.8,18.6,19.8c10.8,0,18.9-8.4,18.8-19.7
	C655.8,106.2,647.3,97.1,637.1,97.1z"/>
<path fill="#141414" d="M910.7,135.4c3.8-14.5,7.5-28.4,11.1-42.2c1-3.9,2.1-7.7,3.1-11.6c0.8-3,2.6-4.4,5.8-4.3
	c4.2,0.1,8.3,0,12.5,0c6,0,6.9,1.1,5.3,6.8c-4.4,15.2-8.8,30.4-13.1,45.6c-3.5,12.2-6.9,24.4-10.5,36.5c-7,23-33,32.2-53.3,18.9
	c-4.4-2.9-4.9-5-2.1-9.5c0.5-0.9,1.1-1.7,1.6-2.5c5.1-7.7,5.1-7.7,13.6-3.7c9.1,4.3,16.7,0.4,18.9-9.3c0.6-2.6-0.2-3.1-2.6-3.3
	c-10.2-0.8-10.2-0.9-13.2-10.6c-6.2-20-12.4-40.1-18.6-60.1c-2.3-7.6-1.5-8.7,6.6-8.7c2.2,0,4.3,0,6.5,0c11.7,0.1,9.8-1.9,13.9,10.4
	c4.5,13.6,7.9,27.5,11.9,41.3C908.4,131,908.6,133,910.7,135.4z"/>
<path fill="#141414" d="M432.3,75.1c24.4-0.2,43.2,17.9,43.5,41.5c0.2,23.5-19.1,42.4-43.2,42.4c-22.7,0-43.2-19.4-43-41.5
	C389.8,95.1,406.8,75.4,432.3,75.1z M452.1,117c0.8-10.6-11.1-20.3-19.6-20c-10.4,0.3-19,9.4-18.8,20.5c0.1,10.8,8.3,19.1,18.9,19.1
	C443.4,136.5,452.2,127.8,452.1,117z"/>
<path fill="#FBFBFB" d="M50.6,145.9c-0.1,0.1-0.2,0.2-0.3,0.3c-0.1-0.1-0.2-0.2-0.2-0.3c0-0.1,0.2-0.2,0.3-0.3
	C50.4,145.7,50.5,145.8,50.6,145.9z"/>
</svg>
