<?xml version="1.0" encoding="utf-8"?>
<!-- Generator: Adobe Illustrator 22.0.1, SVG Export Plug-In . SVG Version: 6.00 Build 0)  -->
<svg version="1.1" id="grab-logo" xmlns="http://www.w3.org/2000/svg" xmlns:xlink="http://www.w3.org/1999/xlink" x="0px" y="0px"
	 viewBox="0 0 300.7 115.8" style="enable-background:new 0 0 300.7 115.8;" xml:space="preserve">
<style type="text/css">
	.st0{fill:#01B45F;}
	.st1{fill:#03B560;}
</style>
<path class="st0" d="M0,63.4c0.1-0.8,0.2-1.6,0.3-2.4c0.4-4.3,1.5-8.5,3.2-12.6c2.7-6.4,6.6-11.9,11.7-16.6
	c5.6-5.2,12.1-9,19.4-11.5c3.6-1.2,7.3-2,11.1-2.4c3.7-0.4,7.4-0.3,11-0.1c2,0.1,4.1,0.3,6.1,0.5c3.9,0.5,7.7,1.4,11.4,2.8
	c0.1,0.1,0.3,0.1,0.4,0.2c0.3,0.1,0.4,0.2,0.4,0.5c0,2.6,0,5.3,0,7.9c-0.1,0.1-0.2,0-0.3,0c-3.6-2.1-7.4-3.4-11.5-4.1
	c-4.7-0.8-9.5-1.1-14.2-0.9c-9.1,0.4-17.3,3.4-24.5,8.8c-6.3,4.7-11.1,10.7-14.1,18C9,55,8.1,58.4,7.8,61.9
	c-0.4,4.3-0.3,8.6,0.4,12.9c1.3,7.7,4.5,14.6,9.7,20.4c5.1,5.7,11.4,9.5,18.7,11.6c4.1,1.1,8.2,1.6,12.4,1.4
	c3.7-0.1,7.3-0.5,10.8-1.2c4.5-1,8.8-2.6,12.6-5.2c1.3-0.9,2.5-1.8,3.6-2.9c0.3-0.2,0.4-0.5,0.4-0.8c0-9.8,0-19.7,0-29.5
	c0-0.1,0-0.2,0-0.3c0-0.2-0.1-0.3-0.2-0.3c-0.2,0-0.4,0-0.5,0c-9.7,0-19.5,0-29.2,0c-0.9,0-0.8,0.1-0.8-0.8c0-2,0-4,0-5.9
	c0-0.9-0.1-0.7,0.8-0.7c9.8,0,19.5,0,29.3,0c2.5,0,5,0,7.5,0c0.1,0,0.3,0,0.4,0c0.2,0,0.3,0.1,0.3,0.3c0,0.1,0,0.3,0,0.4
	c0,13,0,26,0,39c0,0.4-0.1,0.8-0.4,1.1c-1.4,1.7-3,3.2-4.7,4.5c-5,3.9-10.7,6.5-16.9,8.1c-3.5,0.9-7,1.4-10.6,1.6
	c-0.6,0-1.2,0.1-1.8,0.1c-1.2,0-2.3,0-3.5,0c-0.2-0.2-0.4-0.1-0.6-0.1c-0.6,0-1.2,0-1.8,0c-0.2,0-0.4,0-0.5,0
	c-2.5-0.2-4.9-0.6-7.3-1.2c-6.7-1.7-12.7-4.6-18.1-9c-6.5-5.3-11.3-11.9-14.4-19.7C1.6,81,0.5,76.1,0.2,71.1c0-0.4,0-0.9-0.2-1.3
	C0,67.7,0,65.6,0,63.4z"/>
<path class="st0" d="M300.4,78.6c-0.2,3.8-1,7.5-2.4,11.1c-1.8,4.5-4.3,8.4-7.6,11.9c-5,5.3-11.1,8.9-18.2,10.7
	c-3.5,0.9-7,1.2-10.5,1c-7.7-0.5-14.7-3-20.9-7.8c-4-3.1-7.2-7-9.2-11.7c-0.3-0.8-0.7-1.6-0.9-2.5c-0.1-0.2-0.1-0.4,0.1-0.5
	c1.7-2,3.3-4,5-6c0,0,0,0,0.1,0c0.2,0,0.1,0.2,0.2,0.3c2.2,7.8,7.1,13.6,14.2,17.5c4.1,2.2,8.4,3.3,13.1,3.3
	c8.8,0,16.1-3.2,22.1-9.6c3.9-4.2,6.3-9.2,7.3-14.9c0.3-1.5,0.4-3.1,0.4-4.6c0-2.5,0-5,0-7.5c-0.3-11.3-7-20.8-16.1-25.6
	c-3.1-1.6-6.4-2.7-9.9-3.1c-4.7-0.6-9.3,0.1-13.7,1.8c-3.3,1.3-6.3,3.1-9,5.4c-3.4,2.9-6.7,6.1-9.7,9.3
	c-5.6,5.9-10.8,12.2-15.8,18.7c-0.1,0.1-0.2,0.2-0.2,0.3c-0.2,0-0.1-0.2-0.1-0.3c0-3.4,0-6.9,0-10.3c0-0.3,0.1-0.5,0.2-0.7
	c4.3-5.5,8.7-10.9,13.6-15.9c4-4,8.3-7.6,13-10.7c2.7-1.8,5.6-3,8.7-3.9c4-1.2,8-1.7,12.2-1.3c7.4,0.6,14.1,3.2,20,7.8
	c5.9,4.7,10.1,10.5,12.5,17.7c0.8,2.3,1.3,4.7,1.6,7.2c0.1,0.7,0,1.4,0.2,2.1C300.4,71.3,300.4,74.9,300.4,78.6z"/>
<path class="st0" d="M233.6,0c0.1,0.2,0,0.4,0,0.7c0,12.8,0,25.5,0,38.3c0,0.4-0.1,0.7-0.5,1c-2.4,2-4.4,4.3-6.4,6.7
	c-0.2,0.2-0.3,0.4-0.5,0.5c0,0-0.1,0-0.1,0.1c-0.1-0.2,0-0.5,0-0.7c0-15.3,0-30.5,0-45.8c0-0.3,0-0.5,0-0.8C228.6,0,231.1,0,233.6,0
	z"/>
<path class="st1" d="M246.7,0c-0.1,0.2,0,0.5,0,0.7c0,10,0,20,0,30c0,0.5-0.2,0.8-0.6,1c-2.3,1.2-4.3,2.7-6.3,4.3
	c-0.2,0.1-0.3,0.3-0.5,0.3c-0.1-0.2,0-0.4,0-0.6c0-11.7,0-23.3,0-35c0-0.2,0-0.5,0-0.7C241.6,0,244.1,0,246.7,0z"/>
<path class="st1" d="M43.7,115.7c0.1,0,0.1-0.1,0.1-0.1c0.6,0,1.2,0,1.8,0c0.2,0,0.4-0.1,0.6,0.1C45.3,115.7,44.5,115.7,43.7,115.7z
	"/>
<path class="st0" d="M187.9,103.6c0,0.3,0,0.5,0,0.7c0,2,0,4,0,6.1c0,0.7,0,0.7-0.6,1c-1.6,0.7-3.2,1.2-4.9,1.5
	c-2.9,0.6-5.8,0.7-8.7,0.5c-6.6-0.5-12.7-2.7-18.1-6.5c-6.3-4.4-10.9-10.2-13.7-17.4c-1.6-4.1-2.4-8.3-2.4-12.6c0-2.6,0-5.2,0-7.9
	c0.1-5.2,1.3-10.2,3.6-14.8c4.2-8.5,10.6-14.6,19.3-18.4c3.1-1.3,6.3-2.2,9.6-2.6c2.9-0.3,5.7-0.4,8.6-0.1c6,0.7,11.6,2.7,16.6,6.2
	c8.2,5.7,13.4,13.5,15.5,23.2c0.5,2.4,0.8,4.9,0.8,7.4c0,14.2,0,28.5,0,42.7c0,1,0.1,0.8-0.8,0.8c-2,0-3.9,0-5.9,0
	c-0.9,0-0.8,0.1-0.8-0.8c0-14.1,0-28.3,0-42.4c0-4-0.6-7.9-2.1-11.6c-3.2-7.8-8.8-13.2-16.6-16.3c-4.1-1.6-8.5-2.2-12.9-1.9
	c-6,0.5-11.3,2.6-16,6.4c-5.7,4.6-9.4,10.5-10.8,17.7c-0.4,1.7-0.5,3.5-0.5,5.3c0,2.4,0,4.9,0,7.3c0.2,10.4,6.2,19.6,14.6,24.7
	c3.7,2.2,7.7,3.5,11.9,3.9c4.3,0.4,8.4-0.2,12.4-1.5C186.7,104,187.3,103.8,187.9,103.6z"/>
<path class="st0" d="M74.9,44.3c-0.2,0-0.3-0.1-0.4-0.2c-3.4-2.7-7.3-4.4-11.5-5.3c-2.7-0.6-5.5-0.9-8.3-1c-1.4-0.1-2.8-0.1-4.3-0.1
	c-9.4,0.3-17.2,3.9-23.4,10.9c-3.1,3.6-5.1,7.7-6,12.4c-0.3,1.4-0.4,2.8-0.3,4.2c0,1.2,0,2.5,0,3.7c0.5,8.9,4.3,16,11.5,21.3
	c3.5,2.5,7.4,4,11.7,4.6c2.5,0.4,5,0.3,7.6,0.1c2.4-0.1,4.7-0.5,7.1-1c1.8-0.4,3.5-0.9,5.2-1.6c0.5-0.2,0.5-0.2,0.5-0.7
	c0-3.4,0-6.8,0-10.2c0-0.6,0.1-0.6-0.6-0.6c-5.6,0-11.2,0-16.8,0c-1,0-0.9,0.1-0.9-0.8c0-2,0-4,0-6.1c0-0.6,0-0.6,0.6-0.6
	c4.8,0,9.7,0,14.5,0c3.2,0,6.3,0,9.5,0c0.1,0,0.3,0,0.4,0c0.2,0,0.3,0.1,0.3,0.3c0,0.1,0,0.3,0,0.4c0,7,0,14.1,0,21.1
	c0,0.5-0.1,0.8-0.5,1.1c-1.8,1.6-3.9,2.7-6.2,3.5c-2.9,1.1-6,1.8-9.1,2.2c-2.9,0.4-5.8,0.5-8.7,0.5c-4.9-0.1-9.6-1.3-14-3.4
	c-6.3-3.1-11.2-7.7-14.8-13.8c-2.2-3.7-3.6-7.7-4.3-11.9c-0.3-2-0.5-3.9-0.5-5.9c0-1.7,0-3.4,0.1-5.1c0.3-3.7,1.3-7.3,2.8-10.7
	c1.9-4.1,4.6-7.7,7.9-10.9c5.5-5.2,12.1-8.5,19.5-9.9c3.2-0.6,6.5-0.8,9.7-0.7c1.9,0.1,3.9,0.2,5.8,0.4c5,0.6,9.8,1.8,14.3,4
	c0.4,0.2,0.9,0.4,1.3,0.6c0.2,0.1,0.3,0.2,0.3,0.5C74.9,38.7,74.9,41.5,74.9,44.3z"/>
<path class="st0" d="M218.5,96.7c-0.1-0.3-0.1-0.4-0.1-0.6c0-3.5,0-6.9,0-10.4c0-0.4,0.1-0.7,0.3-1c3-3.9,6.1-7.7,9.3-11.5
	c2.5-3,5.2-5.9,7.7-8.8c3.1-3.5,6.3-6.8,9.6-10.1c3.2-3.1,6.8-5.6,11-7.2c3.5-1.4,7.2-1.7,10.9-1.1c8.3,1.3,15.8,7.7,18.7,15.5
	c0.9,2.3,1.4,4.7,1.4,7.1c0.1,3,0.1,6.1,0,9.1c-0.2,4.4-1.6,8.5-4.2,12.1c-3.6,5.2-8.6,8.5-14.8,9.9c-6.5,1.4-12.4,0.1-17.8-3.7
	c-4.7-3.3-7.7-7.9-9.6-13.2c-0.4-1-0.7-2.1-0.9-3.2c0-0.2,0-0.4,0.1-0.6c1.9-2.3,3.8-4.7,5.7-7c0,0,0.1,0,0.1-0.1
	c0.1,0.6,0.1,1.2,0.2,1.8c0.9,5.4,3,10.2,6.9,14.2c1.9,1.9,4,3.4,6.6,4.2c1.9,0.6,3.8,0.7,5.8,0.4c2.7-0.3,5.3-1.2,7.5-2.8
	c3.7-2.7,5.9-6.3,6.7-10.8c0.2-0.9,0.2-1.8,0.2-2.7c0-2.2,0-4.4,0-6.5c0-4.2-1.3-7.9-4-11c-2.5-2.8-5.6-4.6-9.3-5.3
	c-5.3-0.9-9.9,0.5-14,3.9c-2,1.7-3.8,3.5-5.6,5.4c-4.1,4.4-8,8.9-11.8,13.4c-2.8,3.3-5.7,6.7-8.5,10.1c-2.7,3.3-5.3,6.7-8,10.1
	C218.7,96.5,218.6,96.6,218.5,96.7z"/>
<path class="st0" d="M187.7,89.2c0.1,0.2,0.1,0.3,0.1,0.5c0,2.2,0,4.4,0,6.6c0,0.4-0.1,0.6-0.4,0.8c-1.5,1.1-3.1,1.7-4.8,2.2
	c-2.9,0.8-5.9,1-8.9,0.6c-5.3-0.7-9.9-2.9-13.8-6.7c-3.6-3.5-5.9-7.7-6.9-12.6c-0.3-1.3-0.4-2.6-0.4-4c0-2.6,0-5.2,0-7.8
	c0.1-3.8,1.1-7.3,2.9-10.5c2.8-5.1,6.9-8.8,12.3-11c3.1-1.3,6.3-1.8,9.6-1.7c11.3,0.4,20.4,8.2,22.6,18.8c0.4,1.9,0.6,3.7,0.6,5.6
	c0,14.2,0,28.4,0,42.6c0,0.7,0.1,0.7-0.7,0.7c-2.1,0-4.1,0-6.2,0c-0.8,0-0.7,0.1-0.7-0.7c0-7.8,0-15.6,0-23.4c0-6.4,0-12.8,0-19.2
	c0-3.2-0.7-6.3-2.4-9c-2.5-4-6.1-6.5-10.8-7.4c-5.3-1-10,0.2-14.1,3.7c-2.9,2.5-4.6,5.7-5.3,9.5c-0.2,1-0.2,2-0.2,3c0,2.3,0,4.7,0,7
	c0.1,3.3,1,6.3,2.9,9c2.7,3.8,6.4,6.2,11.1,6.8c4.7,0.6,9.1-0.3,13.1-3C187.2,89.5,187.4,89.4,187.7,89.2
	C187.6,89.3,187.6,89.3,187.7,89.2z"/>
<path class="st0" d="M147.9,37.9c-0.1,0.2-0.2,0.3-0.3,0.4c-1.6,1.6-3.2,3.2-4.5,5c-0.2,0.3-0.4,0.3-0.6,0.1
	c-2.6-1.5-5.5-2.4-8.4-2.8c-2.6-0.4-5.1-0.4-7.7-0.2c-2.9,0.2-5.7,0.8-8.5,1.9c-8.4,3.3-13.8,9.2-16.5,17.8c-1,3.2-1.4,6.5-1.3,9.8
	c0,13,0,25.9,0,38.9c0,1.4,0,2.8,0,4.1c0,0.5,0,0.5-0.5,0.5c-2.1,0-4.2,0-6.3,0c-0.7,0-0.6,0-0.6-0.6c0-6.5,0-12.9,0-19.4
	c0-8.1-0.1-16.2,0-24.3c0.1-8.1,2.3-15.5,7.2-22.1c3.4-4.6,7.8-8.2,13-10.6c3.8-1.8,7.8-2.9,12-3.4c2.9-0.3,5.8-0.4,8.6-0.1
	c4.3,0.4,8.4,1.4,12.2,3.4c0.6,0.3,1.1,0.6,1.6,1C147.4,37.5,147.7,37.7,147.9,37.9z"/>
<path class="st0" d="M136.5,54.5c-0.9-0.4-1.8-0.7-2.8-0.9c-4-0.8-8-0.6-11.8,1.1c-4.7,2.2-7.5,5.9-8.6,10.9
	c-0.3,1.4-0.4,2.8-0.4,4.2c0,14.2,0,28.4,0,42.6c0,0.9,0.1,0.8-0.8,0.8c-2.1,0-4.1,0-6.2,0c-0.5,0-0.5,0-0.5-0.5c0-0.2,0-0.3,0-0.5
	c0-14.1,0-28.1,0-42.2c0-2.2,0.2-4.3,0.6-6.4c2-8.8,9-15.7,17.8-17.5c4.6-1,9.2-0.7,13.7,0.7c0.7,0.2,1.3,0.5,1.9,0.9
	c0.2,0.1,0.3,0.2,0.1,0.5c-1.2,2-2.2,4-3.1,6.1C136.6,54.5,136.5,54.5,136.5,54.5z"/>
</svg>
