<?xml version="1.0" encoding="utf-8"?>
<!-- Generator: Adobe Illustrator 22.0.1, SVG Export Plug-In . SVG Version: 6.00 Build 0)  -->
<svg version="1.1" id="p-and-g" xmlns="http://www.w3.org/2000/svg" xmlns:xlink="http://www.w3.org/1999/xlink" x="0px" y="0px"
	 viewBox="0 0 300.6 130.6" style="enable-background:new 0 0 300.6 130.6;" xml:space="preserve">
<style type="text/css">
	.st0{fill:#0046AD;}
	.st1{fill:#0146AD;}
</style>
<path class="st0" d="M45.9,128.8c-15.3,0-30.6,0-45.9,0c3.5-1.7,6-4.2,7.9-7.5c0.5-0.8,0.8-1.7,1-2.5C14,102.5,19.1,86.2,24.2,70
	c5.9-18.7,11.7-37.5,17.6-56.2c0.3-1,0.6-2,0.9-3c0.4-1.3,0.5-2.6,0.3-3.9c-0.3-2-1.3-3.5-2.8-4.7c-0.2-0.2-0.4-0.3-0.6-0.5
	c0.1-0.2,0.2-0.1,0.4-0.1c0.2,0,0.3,0,0.5,0c18.3,0,36.6,0,54.9,0c2.3,0,4.6,0,7,0.3c5.8,0.6,11.3,2.1,16.4,5c3.8,2.2,6.9,5,9.1,8.8
	c1.6,2.8,2.6,5.8,3,8.9c0.6,4.4,0.1,8.7-0.9,12.9c-1.3,5.5-3.4,10.7-6.2,15.7c-3.1,5.3-7,9.9-11.8,13.7c-4.4,3.6-9.3,6.3-14.6,8.5
	c-5.1,2.1-10.3,3.5-15.7,4.4c-4.1,0.7-8.2,1.2-12.3,1.4c-4,0.2-8.1,0.2-12.1-0.1c-1-0.1-2-0.2-3-0.3c-0.3,0-0.4,0-0.5,0.3
	c-0.7,2.3-1.4,4.5-2.1,6.8c-3.3,10.4-6.5,20.9-9.8,31.3c-1.1,3.4,0.2,6.6,2.6,8.5C44.7,128.1,45.3,128.4,45.9,128.8z M56.8,70.8
	c0.2,0.1,0.4,0.2,0.6,0.2c3.6,0.7,7.2,0.6,10.7-0.2c5.6-1.2,10.4-3.9,14.5-7.9c2.9-2.8,5.1-6.1,7-9.6c1.9-3.5,3.4-7.2,4.6-11
	c1.5-4.8,2.8-9.7,3-14.8c0.1-2.5-0.1-4.9-0.8-7.3c-1.1-3.7-3.5-6.4-7.1-7.8c-2.1-0.8-4.3-1.1-6.6-1.2c-2.2,0-4.4,0-6.7,0
	c-0.6,0-0.6,0-0.8,0.6c-1.7,5.3-3.3,10.6-5,15.9c-4.2,13.4-8.4,26.9-12.6,40.3C57.4,69,57.1,69.9,56.8,70.8z"/>
<path class="st1" d="M247.3,63.2c16.5,0,33,0,49.6,0c-0.2,0.2-0.4,0.2-0.6,0.3c-1.9,0.8-3.7,1.8-5.3,3.1c-2.4,2-4,4.5-5,7.4
	c-3.5,11.1-7,22.1-10.4,33.2c-1.3,4.3-2.7,8.5-4,12.8c-0.2,0.5-0.4,0.8-0.9,1c-6,2.9-12.2,5.2-18.7,6.8c-3.1,0.8-6.3,1.5-9.5,1.9
	c-4.5,0.7-9.1,1-13.7,0.9c-5.9-0.2-11.7-1-17.3-2.7c-3.9-1.2-7.7-2.7-11.2-4.7c-3.8-2.2-6.9-5.2-9.5-8.7c-3.1-4.3-5.2-9.1-6.6-14.3
	c-0.9-3.5-1.5-7-1.8-10.6c-0.3-3.7-0.3-7.4-0.1-11.1c0.4-6.8,1.7-13.5,3.6-20c2.2-7.6,5.4-14.7,9.5-21.4c2.1-3.4,4.6-6.6,7.3-9.6
	c4.7-5.2,9.9-9.8,15.7-13.7c7-4.7,14.5-8.1,22.6-10.4c3.8-1.1,7.6-1.9,11.5-2.4c5-0.7,10-0.9,15-0.9c3.8,0.1,7.5,0.3,11.3,0.8
	c6.7,0.8,13.3,2.3,19.8,4.3c0.5,0.1,0.9,0.3,1.4,0.4c0.5,0.2,0.5,0.2,0.3,0.7c-0.7,2.2-1.4,4.5-2.1,6.7c-1,3.1-1.9,6.1-2.9,9.2
	c0,0.2,0,0.3-0.2,0.5c-0.2-0.2-0.5-0.4-0.7-0.6c-2.8-2.3-5.8-4.4-8.9-6.2c-3.6-2-7.3-3.5-11.3-4.4c-3.4-0.7-6.8-1-10.3-0.7
	c-4.6,0.5-9,2-13,4.2c-4.5,2.5-8.4,5.8-11.9,9.6c-3.4,3.7-6.4,7.7-9.1,12c-5,8.1-8.9,16.7-11.6,25.8c-1.8,5.8-3.3,11.7-4.4,17.6
	c-0.7,3.6-1.2,7.3-1.4,11c-0.2,2.3-0.2,4.7-0.1,7c0.2,3.6,0.7,7.2,2,10.6c1.1,2.9,2.6,5.4,4.9,7.5c2.4,2.2,5.2,3.5,8.3,4.1
	c3.6,0.7,7.2,0.6,10.8-0.1c0.3-0.1,0.5-0.3,0.6-0.6c1.6-5.2,3.3-10.4,4.9-15.6c3.1-9.8,6.2-19.6,9.2-29.4c0.7-2.3,0.7-4.5-0.5-6.7
	c-0.8-1.5-1.9-2.6-3.3-3.5c-0.5-0.3-1.1-0.6-1.6-0.9C247.5,63.4,247.3,63.4,247.3,63.2z"/>
<path class="st1" d="M195.3,128.8c-0.2,0-0.4,0-0.6,0c-9.9,0-19.7,0-29.6,0c-0.6,0-1.1-0.2-1.6-0.5c-1.8-1.1-3.3-2.4-4.9-3.7
	c-1.9-1.6-3.8-3.3-5.6-5c-0.5-0.4-0.4-0.4-0.9-0.1c-4.9,3.4-10.1,6.2-15.6,8.2c-3.2,1.2-6.5,2.1-10,2.5c-2.2,0.3-4.4,0.4-6.6,0.2
	c-2.2-0.1-4.3-0.3-6.4-0.8c-4.4-1-8.4-2.8-11.8-5.9c-3.9-3.6-6.5-8-7.4-13.3c-0.8-5-0.4-9.8,1.2-14.6c0.8-2.5,2.1-4.7,3.7-6.7
	c2.9-3.9,6.6-6.9,10.7-9.4c4.2-2.6,8.7-4.4,13.4-6.1c1.9-0.7,3.8-1.3,5.7-2c0.6-0.2,0.6-0.1,0.5-0.8c-0.2-2.7-0.1-5.4,0.1-8.1
	c0.3-3.5,0.9-6.9,1.9-10.2c1-3.5,2.4-6.7,4.4-9.8c2.6-4,6-7,10.1-9.1c2.7-1.4,5.5-2.4,8.4-2.9c2.6-0.5,5.2-0.6,7.8-0.3
	c2.8,0.3,5.4,1,7.9,2.3c2.8,1.5,5.2,3.5,6.8,6.4c2,3.7,2.3,7.5,1,11.5c-1,3.2-2.7,5.8-4.9,8.3c-2.5,2.8-5.5,5.1-8.6,7.1
	c-3.5,2.2-7.1,4-10.8,5.8c-1.8,0.9-3.6,1.7-5.4,2.6c-0.3,0.1-0.4,0.3-0.3,0.7c1.1,7.4,3.9,14.1,7.7,20.5c1.1,1.9,2.3,3.7,3.5,5.5
	c0.1,0.2,0.2,0.3,0.3,0.5c0.2,0,0.3-0.2,0.4-0.3c1.7-2.4,2.8-5,3.4-7.8c0.2-1.1,0.4-2.3,0.4-3.5c0-2.1-0.8-3.9-2.4-5.2
	c-0.2-0.1-0.3-0.3-0.5-0.4c0.1-0.2,0.3-0.1,0.4-0.1c5,0,10.1,0,15.1,0c0.1,0,0.1,0,0.2,0c0.3,0,0.4,0.1,0.4,0.4
	c-0.1,0.7-0.2,1.5-0.3,2.2c-0.5,3.7-1.5,7.3-3,10.7c-1.5,3.2-3.5,6.2-5.8,8.9c-0.8,0.9-1.5,1.7-2.3,2.6c-0.4,0.4-0.4,0.3,0,0.7
	c1.3,1.5,2.8,2.8,4.3,4c6.7,5.5,14.1,10,22.1,13.5c1.1,0.5,2.2,0.9,3.4,1.3c0.1,0,0.3,0.1,0.4,0.1
	C195.3,128.7,195.3,128.7,195.3,128.8z M145.8,112.3c-6.8-9.3-11.6-19.5-14.6-30.5c-0.1,0-0.1,0-0.1,0c-0.2,0.1-0.3,0.1-0.5,0.2
	c-2.2,1-4.3,2.2-6.2,3.6c-2.9,2.1-5.6,4.5-7.7,7.4c-3,4.2-4.3,8.8-3.3,13.9c1,4.9,3.9,8.2,8.6,9.9c3.4,1.2,7,1.3,10.5,0.6
	c4-0.8,7.8-2.2,11.4-4C144.5,113,145.2,112.7,145.8,112.3z M146.2,65.8c0.7-0.3,1.3-0.6,1.8-1c4.3-2.9,8-6.4,11.2-10.4
	c1.8-2.3,3.3-4.7,4.3-7.5c0.6-1.7,1-3.5,0.8-5.3c-0.2-2.2-1.3-3.6-3.4-4.1c-1.2-0.3-2.4-0.2-3.5,0.2c-2,0.7-3.5,2-4.9,3.5
	c-2.2,2.4-3.6,5.3-4.7,8.4c-1.3,3.7-1.8,7.6-1.8,11.5C145.9,62.6,146,64.1,146.2,65.8z"/>
</svg>
