<?xml version="1.0" encoding="utf-8"?>
<!-- Generator: Adobe Illustrator 22.0.1, SVG Export Plug-In . SVG Version: 6.00 Build 0)  -->
<svg version="1.1" id="scale-logo" xmlns="http://www.w3.org/2000/svg" xmlns:xlink="http://www.w3.org/1999/xlink" x="0px" y="0px"
	 viewBox="0 0 300.2 97.5" style="enable-background:new 0 0 300.2 97.5;" xml:space="preserve">
<style type="text/css">
	.st0{fill:#353535;}
</style>
<path class="st0" d="M299.7,55.9c-3.9-16.7-17.3-26.5-33.7-24.7c-16.3,1.8-28.8,15.3-29.4,31.6c-0.6,16.6,10.9,30.9,27.3,33.9
	c1.1,0.2,2.3-0.1,3.2,0.8c1.5,0,3.1,0,4.6,0c1.2-0.9,2.6-0.5,3.9-0.8c7.6-1.4,13.9-5,19-10.7c2.4-2.7,2.5-6,0.2-8.2
	c-2.4-2.3-5.8-2.1-8.3,0.7c-8.5,9.8-23.9,10.2-33,0.5c-7.3-7.7-7.9-20-1.3-28.5c6.7-8.5,18.5-11.2,27.3-6.1c4.7,2.7,7.4,6.9,8.9,12
	c0.5,1.6,0.1,2-1.5,2c-7.6-0.1-15.2-0.1-22.8,0c-4.4,0-7.1,3.4-5.9,7.2c0.7,2.4,2.8,3.8,5.9,3.8c7.7,0,15.3,0,23,0
	c1.8,0,3.7-0.1,5.5,0c3,0.3,5.6-0.5,7.5-2.9c0-3.2,0-6.4,0-9.7C299.5,56.8,299.8,56.3,299.7,55.9z"/>
<path class="st0" d="M198.4,63.9c-0.1-18.2-15.1-33-33.2-33c-17.1,0-31.3,12.7-33.1,30.3c-1.7,16.1,9.1,31,24.9,35
	c1.7,0.4,3.6,0.3,5.2,1.3c0.3,0,0.6,0,0.9,0c3.1,0,6.1,0,9.2,0c0-0.1,0-0.2,0-0.3c3.3-1.2,4.9-3.6,4.5-6.3c-0.5-3-2.8-4.7-6.4-4.7
	c-3.9-0.1-7.8,0.3-11.6-0.9c-10.9-3.3-17.5-14.1-15.4-25.4c1.9-10.7,12.5-18.8,23.2-17.8c11.7,1.1,20.5,10.1,20.6,21.6
	c0.1,8.3,0.2,16.7,0,25c-0.1,3.9,0.7,7,4.4,8.8c0.6,0,1.2,0,1.8,0c4.1-1.3,5.1-4.3,5-8.3C198.3,80.7,198.5,72.3,198.4,63.9z"/>
<path class="st0" d="M44.6,61.8c-5.4-1.9-11-2.6-16.6-3.5c-4.3-0.7-8.7-1.2-12.6-3.1c-4.3-2.1-4.7-6.6-0.9-9.6
	c1.6-1.2,3.4-2.1,5.3-2.6c9.7-2.3,18.8-1.3,27.1,4.6c3,2.1,6.2,1.8,8.1-0.8c2-2.6,1.3-6-1.7-8.2c-8.5-6.3-18.1-8.3-28.4-7.6
	c-6.9,0.4-13.3,2.2-18.5,6.9c-8.4,7.6-7.6,21.7,3.7,27c5.4,2.5,11.2,3.5,17,4.5c5.1,0.8,10.2,1.3,15,3.3c4.9,2,5.5,6.9,1.2,10.1
	c-2,1.5-4.3,2.3-6.7,2.7c-10,1.7-19.3-0.4-27.9-5.6c-2.9-1.8-6.2-1-7.9,1.6c-1.7,2.7-0.9,5.9,2,7.7c5.2,3.4,10.9,5.5,16.9,6.9
	c2.4,0.5,5,0.4,7.3,1.4c2,0,4,0,6,0c0.4-0.7,1.1-0.4,1.6-0.5c3.7-0.4,7.2-1.2,10.7-2.6c7.5-3.2,12.2-9.8,12-17
	C57,69.9,53,64.9,44.6,61.8z"/>
<path class="st0" d="M121.2,76.7c-2.4-1.1-4.6-0.3-6.9,2.1c-6.3,6.7-14,8.9-22.8,6.3c-8.8-2.6-14.1-8.8-15.5-17.8
	c-1.3-8.9,2-16.3,9.4-21.5c9.2-6.4,20.8-4.8,29.1,3.7c2.7,2.8,5.8,3.1,8.3,0.8c2.4-2.3,2.3-5.6-0.2-8.4c-6.7-7.2-15-11-24.8-11
	c-16.6,0-31,12.7-32.9,29.1c-2,16.7,8.7,32.1,25.1,36.3c1.7,0.4,3.6,0.3,5.2,1.2c1.5,0,3.1,0,4.6,0c0.2-0.6,0.7-0.4,1.2-0.4
	c8.9-0.9,16.2-4.7,22.1-11.3c0.9-1,1.5-2.1,1.6-3.5C124.7,79.8,123.4,77.7,121.2,76.7z"/>
<path class="st0" d="M218.1,0.5c-0.3-0.1-0.6-0.1-0.7-0.5c-0.2,0-0.3,0-0.5,0c-4.2,1.4-5.1,4.5-5.1,8.7c0.1,26.7,0.1,53.5,0,80.2
	c0,3.7,0.6,6.8,4.2,8.5c0.8,0,1.5,0,2.3,0c2.6-1.2,4.7-2.6,4.7-6c0-28.5,0-57,0-85.4C222.9,2.9,221.3,1.1,218.1,0.5z"/>
</svg>
