<?xml version="1.0" encoding="utf-8"?>
<!-- Generator: Adobe Illustrator 22.0.1, SVG Export Plug-In . SVG Version: 6.00 Build 0)  -->
<svg version="1.1" id="Layer_1" xmlns="http://www.w3.org/2000/svg" xmlns:xlink="http://www.w3.org/1999/xlink" x="0px" y="0px"
	 viewBox="0 0 298.2 45.7" style="enable-background:new 0 0 298.2 45.7;" xml:space="preserve">
<style type="text/css">
	.st0{fill:#252122;}
	.st1{fill:#F8F8F8;}
</style>
<path class="st0" d="M66.4,0c0.1,0.2,0,0.2-0.1,0.3c-0.2,0.1-0.4,0.2-0.5,0.4c-1.3,0.9-1.8,2.2-1.6,3.8c0.1,0.5,0.3,1,0.7,1.4
	c0.2,0.3,0.5,0.5,0.7,0.8c0.8,0.9,1.2,1.9,1.3,3c0.1,0.8,0,1.6,0,2.5c0.2,0,0.2-0.1,0.3-0.2c1.5-1.6,3-3.2,4.5-4.8
	c0.2-0.2,0.3-0.2,0.5,0c1.6,1.6,3.2,3.2,4.8,4.8c0.2,0.2,0.3,0.2,0.5,0c1.5-1.6,3-3.2,4.5-4.8c0.2-0.2,0.3-0.2,0.5,0
	c1.5,1.5,2.9,2.9,4.4,4.3c0.2,0.2,0.2,0.3,0.2,0.5c0,5.2,0,10.4,0,15.5c0,0.2-0.1,0.4-0.3,0.6c-2.8,2.6-5.7,5.2-8.5,7.9
	c-0.2,0.2-0.3,0.1-0.5,0c-1.8-1.6-3.7-3.2-5.6-4.8c-0.2-0.2-0.3-0.2-0.5,0c-1.4,1.6-2.8,3.1-4.2,4.7c-0.2,0.2-0.3,0.2-0.5,0
	c-1.9-1.7-3.9-3.3-5.8-5c-0.2-0.2-0.3-0.3-0.3-0.6c0-2.6,0-5.2,0-7.9c0-0.3-0.1-0.4-0.4-0.4c-0.3,0-0.5,0-0.8,0
	c-0.9,0-1.5,0.4-1.9,1.3c0,0.1,0,0.3-0.2,0.3c-0.1,0-0.1-0.2-0.1-0.3c-0.2-1-0.2-2,0.1-3c0.4-1.5,1.4-2.4,3-2.5
	c0.3,0,0.3-0.1,0.3-0.3c0-2.3,0-4.7,0-7c0-0.5-0.1-1-0.4-1.4c-0.1-0.2-0.3-0.4-0.5-0.6c-1-1.2-1-2.5-0.4-3.9
	c0.6-1.4,1.7-2.3,2.9-3.1c0.9-0.6,1.8-1,2.8-1.4c0.1,0,0.3-0.1,0.4-0.2C66.3,0,66.3,0,66.4,0z M71.9,22.4c0-2.6,0-5.2,0-7.8
	c0-0.2,0-0.3-0.2-0.5c-1-1-2-1.9-3-2.9c-0.2-0.2-0.3-0.1-0.4,0c-0.4,0.5-0.9,0.9-1.3,1.4c-0.2,0.2-0.2,0.3-0.2,0.5
	c0,4.9,0,9.9,0,14.8c0,0.2,0.1,0.4,0.3,0.6c1.2,1,2.3,1.9,3.5,2.9c0.2,0.2,0.3,0.2,0.5,0c0.2-0.2,0.4-0.5,0.6-0.7
	c0.2-0.2,0.2-0.4,0.2-0.6C71.9,27.6,71.9,25,71.9,22.4z M81.8,32C81.8,32,81.8,32,81.8,32c0-6.1,0-12.1,0-18.1
	c0-0.2-0.1-0.3-0.2-0.4c-0.8-0.7-1.6-1.5-2.3-2.2c-0.2-0.2-0.3-0.2-0.5,0c-0.4,0.4-0.7,0.8-1.1,1.2c-0.2,0.2-0.2,0.3-0.2,0.5
	c0,5,0,10,0,15c0,0.2,0.1,0.4,0.2,0.5c1.2,1.1,2.5,2.2,3.7,3.3C81.5,31.9,81.6,32,81.8,32z M72.4,22.3c0,2.6,0,5.2,0,7.8
	c0,0.3,0.1,0.4,0.3,0.6c1.7,1.5,3.4,3,5.2,4.5c0.5,0.4,0.5,0.4,0.9,0c0.2-0.2,0.2-0.3,0-0.5c-1.7-1.5-3.4-3-5.2-4.5
	c-0.2-0.2-0.3-0.4-0.3-0.6c0-5.2,0-10.3,0-15.5c0-0.3-0.1-0.4-0.3-0.6c-1-1-2-1.9-3-2.9c-0.5-0.5-0.5-0.5-1,0
	c-0.2,0.2-0.1,0.2,0,0.4c1,1,2,2,3.1,2.9c0.2,0.2,0.2,0.3,0.2,0.6C72.4,17.1,72.4,19.7,72.4,22.3z M82.4,31.8
	c0.2-0.2,0.4-0.4,0.6-0.5c0.3-0.2,0.3-0.4,0.3-0.8c0-5.7,0-11.3,0-17c0-0.2-0.1-0.4-0.2-0.6c-0.8-0.8-1.7-1.6-2.5-2.4
	c-0.5-0.5-0.5-0.5-0.9,0c-0.2,0.2-0.2,0.3,0,0.4c0.8,0.8,1.6,1.6,2.5,2.3c0.2,0.2,0.3,0.4,0.3,0.6c0,5.8,0,11.6,0,17.4
	C82.3,31.5,82.3,31.6,82.4,31.8z M58.4,22.4c0.6-0.7,1.3-0.8,2-0.8c0.3,0,0.7,0,1,0c0.3,0,0.4,0.1,0.4,0.4c0,2.7,0,5.4,0,8.1
	c0,0.2,0.1,0.4,0.2,0.6c1.7,1.4,3.3,2.9,5,4.3c0.5,0.5,0.5,0.5,1-0.1c0.2-0.2,0.1-0.3-0.1-0.5c-1.7-1.4-3.3-2.8-5-4.2
	c-0.2-0.2-0.3-0.3-0.3-0.6c0-0.7,0-1.5,0-2.2c0-2.1,0-4.2,0-6.3c0-0.1,0.1-0.4-0.2-0.3c-0.8,0-1.7,0-2.5,0
	C59.1,20.9,58.4,21.6,58.4,22.4z M62.7,2.3c-1.1,0.8-2,1.8-2.4,3.2C60,6.4,60.1,7.2,60.7,8c0.2,0.3,0.4,0.5,0.6,0.8
	c0.4,0.5,0.6,1,0.6,1.7c0,1.9,0,3.7,0,5.6c0,0.5,0,1.1,0,1.6c0,0.2,0.1,0.3,0.3,0.3c0.1,0,0.2,0,0.3,0c0.3,0.1,0.4-0.1,0.4-0.4
	c0-2.4,0-4.7,0-7.1c0-1-0.3-1.8-0.9-2.6c-0.1-0.2-0.3-0.3-0.4-0.5c-0.2-0.3-0.4-0.7-0.3-1.1c0-0.9,0.3-1.8,0.7-2.6
	C62.1,3.2,62.4,2.8,62.7,2.3z"/>
<path class="st0" d="M0,23.3c0.1-0.5,0.2-0.9,0.3-1.4c0.5-2.4,1.8-4.3,3.4-6c1.2-1.3,2.6-2.3,4.1-3.3c0.1-0.1,0.2-0.2,0.4-0.3
	c-2.3-0.7-5.4-0.2-6.6,2.3c-0.2,0.5-0.4,1-0.4,1.5c0,0.1,0,0.2-0.2,0.2c-0.2,0-0.1-0.1-0.1-0.2c-0.1-2.9,0.5-5.7,2.7-7.7
	c1.9-1.8,4.2-2,6.6-1.1c1.3,0.5,2.4,1.2,3.7,1.7c1.2,0.5,2.4,0.8,3.7,0.7c1.5-0.1,2.8-0.7,3.6-2.2c0,0,0-0.1,0.1-0.1c0,0,0,0,0.1,0
	c0,0.6-0.1,1.3-0.2,1.9c-0.5,2.5-1.9,4.1-4.4,4.7c-0.2,0-0.3,0.1-0.3,0.3c0,5.3,0,10.6,0,15.8c0,0,0,0,0,0.1
	c0.2-0.1,0.3-0.2,0.5-0.3c1.9-1.2,3.1-2.9,3.8-4.9c0-0.1,0-0.3,0.2-0.3c0.2,0,0.1,0.2,0.1,0.3c-0.4,3.7-1.8,6.9-4.8,9.3
	c-2.4,1.9-5.2,2.4-8.1,1.7c-4.3-1-6.8-3.8-7.9-8c-0.2-0.7-0.3-1.4-0.4-2.2c0-0.1,0-0.1-0.1-0.1C0,25,0,24.1,0,23.3z M18.9,30.7
	c-0.6,0.6-1.2,1.2-1.8,1.8c-1.1,0.9-2.2,1.7-3.6,2.1c-2.9,0.8-5.5,0.2-7.9-1.5c-2.1-1.5-3.3-3.6-3.9-6.1c-0.6-2.6-0.5-5.1,0.6-7.6
	c0.6-1.2,1.3-2.3,2.1-3.4c0.1-0.1,0.2-0.2,0.2-0.3c-0.1,0-0.1,0-0.2,0.1c-1.4,1.3-2.5,2.9-3.2,4.7c-0.9,2.4-0.8,4.8-0.3,7.3
	c1.2,5.4,5.8,8.7,11.2,8C15.2,35.3,17.4,33.5,18.9,30.7c0.1,0,0.2,0,0.1-0.1C18.9,30.6,18.9,30.7,18.9,30.7z M13.2,14
	c-0.5-0.2-1-0.3-1.4-0.4c-1-0.3-2-0.7-2.9-1c-0.1-0.1-0.3-0.1-0.4,0.1c-1,1-1.9,2.1-2.6,3.3c-1.5,2.6-1.8,5.4-1.4,8.4
	c0.3,1.9,1.1,3.5,2.4,4.9c0.3,0.3,0.5,0.4,0.8,0.1C7.8,29.2,8,29.1,8.2,29c0.2-0.1,0.3-0.2,0.3-0.5c0-3.7,0-7.4,0-11
	c0-0.1,0-0.2,0-0.3c-0.3,0.2-0.6,0.3-0.9,0.5c-0.1,0.1-0.3,0.2-0.4-0.1c-0.1-0.2,0-0.3,0.1-0.4c0.9-0.5,1.9-1,2.8-1.5
	C11.2,15.1,12.2,14.6,13.2,14z M7.7,29.9c0.3,0.2,0.6,0.4,0.9,0.6c2.4,1.2,4.9,1,7.4,0.1c0.2-0.1,0.2-0.2,0.2-0.4
	c0-5.2,0-10.4,0-15.6c0-0.3,0-0.4-0.3-0.3c-0.7,0-1.3,0-2-0.1c-0.4-0.1-0.4-0.1-0.4,0.4c0,4,0,8,0,12c0,0.3-0.1,0.4-0.3,0.5
	c-0.6,0.3-1.1,0.6-1.7,0.9C10.2,28.5,9,29.2,7.7,29.9z M2,13.3c0.6-0.5,1.1-0.9,1.8-1.2c1.4-0.6,2.8-0.5,4.2-0.2
	c1.2,0.3,2.4,0.7,3.5,1.2c1.6,0.6,3.2,0.9,5,0.6c2.1-0.4,3.6-1.6,4.3-3.7c0-0.1,0.1-0.3,0-0.4c0,0-0.1,0-0.1,0
	c-0.1,0.1-0.2,0.2-0.2,0.4c-0.9,1.5-2.3,2.4-4,2.7c-1.5,0.3-2.9,0-4.4-0.5c-1.3-0.4-2.6-1-4-1.4c-2.4-0.6-4.6,0.2-5.9,2.2
	C2.1,13,2,13.1,2,13.3z M9,28.6c0.2-0.1,0.4-0.2,0.6-0.3c0.2-0.1,0.3-0.2,0.3-0.4c0-3.7,0-7.5,0-11.2c0-0.1,0-0.2-0.1-0.2
	c-0.1,0-0.2,0.1-0.2,0.1C9.1,16.7,9,17,9,17.5c0,3.6,0,7.1,0,10.7C9,28.3,9,28.4,9,28.6z"/>
<path class="st0" d="M246.3,13c1.8-1.9,3.6-3.9,5.4-5.8c0.2-0.3,0.4-0.3,0.6,0c1.4,1.3,2.9,2.7,4.4,4c0.2,0.2,0.2,0.3,0.2,0.5
	c0,6.1,0,12.3,0,18.4c0,0.2-0.1,0.4-0.3,0.5c-2.4,1.8-4.8,3.6-7.1,5.4c-0.2,0.2-0.3,0.1-0.5-0.1c-0.7-0.8-1.4-1.5-2.5-1.8
	c-0.3-0.1-0.4,0-0.4,0.3c0,2.6,0,5.2,0,7.9c0,0.1,0.1,0.3,0,0.3c-0.1,0.1-0.2-0.1-0.3-0.2c-0.4-0.4-0.9-0.8-1.3-1.1
	c-0.2-0.2-0.3-0.2-0.5,0c-1.5,1.4-3.1,2.8-4.6,4.2c-0.1,0.1-0.2,0.2-0.3,0.2c-0.1-0.1-0.1-0.2-0.1-0.3c0-3.7,0-7.3,0-11
	c0-0.1,0-0.3,0-0.4c-1.9,0.4-3.4,1.4-4.8,2.8c0-0.7,0.1-1.3,0.3-1.9c0.6-2.3,2-4.1,4.3-5c0.2-0.1,0.2-0.1,0.2-0.3c0-2.7,0-5.4,0-8
	c0-0.2-0.1-0.3-0.3-0.3c-0.4,0-0.8,0-1.2,0c-0.9,0.1-1.4,0.7-1.9,1.4c-0.1,0.1-0.1,0.2-0.2,0.3c-0.1,0.1-0.2,0.1-0.2,0
	c0-0.2-0.1-0.4-0.1-0.6c-0.2-1.3-0.1-2.6,0.8-3.7c0.7-0.8,1.6-1.3,2.6-1.3c0.3,0,0.4-0.1,0.4-0.4c0-1.4,0-2.7,0-4.1
	c0-0.2-0.1-0.4-0.2-0.5c-0.5-0.4-0.9-0.8-1.4-1.2c-0.1-0.1-0.2-0.2-0.4,0c-0.2,0.2-0.4,0.4-0.5,0.5c-0.1,0.1-0.2,0.1-0.3,0
	c-0.1-0.1-0.1-0.2,0-0.3c1.4-1.4,2.7-2.9,4.1-4.3c0.1-0.1,0.2-0.1,0.3,0c1.2,1.2,2.5,2.3,3.8,3.4c0.1,0.1,0.2,0.3,0.2,0.4
	c0,1.2,0,2.4,0,3.6c0.4-0.5,1-0.8,0.9-1.6c-0.1-1.4,0-2.7,0-4.1c0-0.2,0-0.3,0.2-0.3c0.3,0,0.3,0.1,0.3,0.3c0,1.3,0,2.6,0,3.9
	C246.2,12.8,246.2,12.9,246.3,13C246.2,13,246.3,13,246.3,13z M251.4,31.7c0-0.1,0-0.2,0-0.3c0-5.9,0-11.9,0-17.8
	c0-0.2,0-0.3-0.2-0.4c-0.7-0.7-1.5-1.3-2.2-2c-0.2-0.2-0.3-0.2-0.4,0c-0.8,0.8-1.5,1.7-2.3,2.5c-0.1,0.1-0.2,0.3-0.2,0.4
	c0,4.9,0,9.9,0,14.8c0,0.3,0.1,0.3,0.3,0.4C248.4,29.5,250.1,30.2,251.4,31.7z M239.7,44.6c0.2-0.2,0.3-0.3,0.5-0.5
	c0.4-0.3,0.4-0.6,0.4-1c0-7.6,0-15.2,0-22.9c0-0.1,0-0.2,0-0.3c0-0.1,0-0.2-0.2-0.2c-0.9,0-1.9-0.1-2.8,0.1
	c-1.1,0.2-1.8,1.1-1.7,2.2c0.1,0,0.1-0.1,0.2-0.2c0.4-0.6,0.9-0.9,1.6-1c0.5-0.1,1.1,0,1.6-0.1c0.3,0,0.4,0.1,0.4,0.4
	c0,7.7,0,15.3,0,23C239.7,44.3,239.7,44.4,239.7,44.6z M245.7,14.5c-0.3,0.2-0.5,0.5-0.8,0.7c-0.2,0.1-0.2,0.3-0.2,0.5
	c0,8.3,0,16.5,0,24.8c0,0.1,0,0.2,0.1,0.3c0.3,0.3,0.6,0.5,0.9,0.8C245.7,32.5,245.7,23.5,245.7,14.5z M251.9,33.5
	c0.2-0.2,0.4-0.3,0.6-0.5c0.2-0.1,0.3-0.3,0.3-0.6c0-6.5,0-13,0-19.4c0-0.3-0.1-0.4-0.3-0.6c-0.7-0.7-1.5-1.4-2.2-2
	c-0.5-0.5-0.5-0.5-1,0c-0.2,0.2-0.2,0.3,0,0.5c0.8,0.7,1.5,1.4,2.3,2.1c0.2,0.2,0.3,0.3,0.3,0.6c0,6.5,0,13,0,19.5
	C251.9,33.2,251.9,33.3,251.9,33.5z M240.6,14.6c0-0.8,0-1.6,0-2.4c0-0.2-0.1-0.3-0.2-0.5c-0.5-0.4-1-0.9-1.4-1.3
	c-0.6-0.5-0.6-0.5-1.1,0c-0.1,0.2-0.1,0.2,0,0.4c0.5,0.5,1,0.9,1.6,1.4c0.2,0.1,0.2,0.3,0.2,0.5c0,1.3,0,2.7,0,4
	c0,0.6,0,0.6,0.6,0.6c0.3,0,0.3-0.1,0.3-0.3C240.6,16.2,240.6,15.4,240.6,14.6z M246.2,33c-0.1,0.4,0.1,0.5,0.5,0.6
	c0.8,0.2,1.4,0.6,2,1.2c0.2,0.2,0.4,0.7,0.7,0.6c0.3,0,0.5-0.4,0.8-0.6c0.1-0.1,0.2-0.2,0-0.3c-0.9-1.1-2-1.9-3.5-2.1
	C246.2,32.3,246.2,32.3,246.2,33z M235.4,35.2c0.9-0.7,2-1.3,3.1-1.6c0.8-0.2,0.8-0.2,0.7-1c0-0.2,0-0.3-0.3-0.2
	c-0.3,0.1-0.6,0.2-0.8,0.3C236.9,33.2,236,34,235.4,35.2z"/>
<path class="st0" d="M27,18c0.2-0.2,0.4-0.5,0.7-0.7c1-1,1.9-2.1,2.9-3.1c0.2-0.2,0.2-0.2,0.4,0c1.2,1.1,2.3,2.1,3.5,3.2
	c0.3,0.2,0.4,0.2,0.6,0c0.1-0.1,0.2-0.2,0.3-0.3c0.1-0.2,0.2-0.1,0.4,0c0.2,0.2,0.1,0.3,0,0.3c-0.6,0.5-0.7,1.1-0.7,1.9
	c0,4.5,0,8.9,0,13.4c0.1,3.2-1.4,5.5-4.1,7.1c-1.1,0.6-2.2,1.1-3.4,1.3c-0.1,0-0.1,0-0.2,0c-0.1,0-0.2,0-0.2-0.1
	c-0.1-0.1,0.1-0.1,0.1-0.2c0.6-0.3,1.2-0.8,1.6-1.3c0.9-1.1,1.4-2.3,1.4-3.7c0-5.2,0-10.4,0-15.6c0-0.2,0-0.3-0.2-0.4
	c-0.7-0.6-1.3-1.2-2-1.8c-0.2-0.2-0.2-0.1-0.4,0c-0.6,0.5-0.8,1.1-0.7,1.9c0,3.6,0,7.2,0,10.8c0,0.2,0.1,0.4,0.2,0.6
	c0.3,0.3,0.6,0.6,0.9,0.8c0.1,0.1,0.2,0.2,0,0.4c-1.1,1.2-2.2,2.4-3.3,3.6c-0.2,0.2-0.2,0-0.3-0.1c-0.9-0.8-1.8-1.7-2.8-2.5
	c-0.3-0.3-0.6-0.5-0.9-0.8c-0.3-0.2-0.2-0.4,0-0.6c0.4-0.4,0.7-0.8,1.1-1.1c0.2-0.2,0.3-0.4,0.3-0.7c0-6.2,0-12.4,0-18.5
	c0-0.3,0.1-0.5,0.3-0.7c1.4-1.5,2.7-2.9,4.1-4.4c0.1-0.1,0.2-0.2,0.3-0.3C26.9,10.3,26.9,14.1,27,18C27,18,27,18,27,18z M23.6,10.6
	C23.6,10.6,23.6,10.6,23.6,10.6c-0.2,0.1-0.3,0.2-0.4,0.3c-0.4,0.3-0.5,0.7-0.5,1.3c0,6.1,0,12.2,0,18.3c0,0.2-0.1,0.4-0.2,0.6
	c-0.3,0.3-0.6,0.7-1,1c-0.2,0.2-0.2,0.3,0,0.5c0.9,0.8,1.8,1.6,2.7,2.5c0.5,0.4,0.5,0.4,0.9-0.1c0.1-0.2,0.2-0.2,0-0.4
	c-0.7-0.6-1.3-1.2-1.9-1.8c-0.5-0.5-0.6-0.5,0-1c0.3-0.3,0.4-0.6,0.4-1.1c0-6.6,0-13.1,0-19.7C23.6,10.9,23.6,10.8,23.6,10.6z
	 M30.1,38.3c0.1,0,0.1,0,0.1,0c0,0,0.1-0.1,0.1-0.1c0.9-0.8,1.2-1.8,1.3-2.9c0-5.3,0-10.5,0-15.8c0-0.2-0.1-0.3-0.2-0.4
	c-0.7-0.6-1.5-1.2-2.2-1.9c-0.4-0.4-0.4-0.4-0.8,0.1c-0.2,0.2-0.2,0.3,0,0.4c0.7,0.6,1.4,1.2,2,1.8c0.2,0.2,0.3,0.4,0.3,0.6
	c0,4.5,0,9.1,0,13.6C30.7,35.3,30.9,36.8,30.1,38.3z"/>
<path class="st0" d="M126.1,6.3c0,3.9,0,7.8,0,11.6c0.2,0,0.2-0.1,0.3-0.2c1.1-1.2,2.2-2.4,3.3-3.6c0.2-0.2,0.3-0.2,0.5,0
	c1.1,1,2.3,2.1,3.5,3.1c0.2,0.2,0.3,0.2,0.5,0c0.1-0.1,0.2-0.2,0.3-0.3c0.1-0.2,0.2-0.2,0.4,0c0.2,0.1,0.1,0.2,0,0.3
	c-0.6,0.5-0.7,1.1-0.7,1.9c0,4.5,0,9,0,13.5c0,2.8-1.1,4.8-3.3,6.4c-1.3,0.9-2.7,1.5-4.3,1.9c-0.1,0-0.2,0.1-0.3,0
	c-0.1-0.2,0.1-0.2,0.2-0.2c2-1.2,2.9-2.9,3-5.2c0-5.1,0-10.2,0-15.3c0-0.2,0-0.3-0.2-0.4c-0.7-0.6-1.4-1.2-2-1.8
	c-0.1-0.1-0.2-0.1-0.3,0c-0.6,0.5-0.8,1.1-0.8,1.8c0,3.6,0,7.2,0,10.8c0,0.3,0.1,0.4,0.3,0.6c0.3,0.3,0.6,0.6,0.9,0.8
	c0.1,0.1,0.1,0.2,0,0.3c-1.1,1.2-2.2,2.4-3.3,3.6c-0.1,0.1-0.2,0.1-0.3,0c-1.2-1.2-2.5-2.3-3.8-3.4c-0.2-0.2-0.2-0.3,0-0.4
	c0.4-0.4,0.8-0.8,1.2-1.2c0.2-0.2,0.3-0.4,0.3-0.7c0-6.2,0-12.3,0-18.5c0-0.3,0.1-0.6,0.3-0.8c1.4-1.4,2.7-2.9,4-4.3
	C125.8,6.5,125.9,6.4,126.1,6.3z M122.8,10.6c-0.2,0.2-0.4,0.3-0.5,0.5c-0.3,0.3-0.4,0.6-0.4,1c0,6.2,0,12.3,0,18.5
	c0,0.3-0.1,0.5-0.3,0.6c-0.3,0.3-0.6,0.6-1,0.9c-0.2,0.2-0.2,0.3,0,0.4c0.9,0.8,1.8,1.6,2.7,2.5c0.5,0.4,0.5,0.4,0.9-0.1
	c0.2-0.2,0.1-0.3,0-0.4c-0.6-0.6-1.3-1.1-1.9-1.7c-0.6-0.5-0.6-0.6,0-1.1c0.3-0.3,0.4-0.6,0.4-1c0-6.6,0-13.2,0-19.8
	C122.8,10.9,122.8,10.8,122.8,10.6z M129.3,38.3c0.5-0.3,0.8-0.7,1.1-1.3c0.3-0.7,0.4-1.5,0.4-2.3c0-5.1,0-10.1,0-15.2
	c0-0.2-0.1-0.3-0.2-0.5c-0.7-0.6-1.5-1.2-2.2-1.9c-0.5-0.4-0.5-0.4-0.9,0c-0.2,0.2-0.2,0.3,0,0.4c0.7,0.6,1.4,1.2,2.1,1.8
	c0.2,0.2,0.3,0.3,0.3,0.6c0,5,0,9.9,0,14.9C129.8,36.1,129.8,37.2,129.3,38.3z"/>
<path class="st0" d="M178.8,25.9c0,2.3,0,4.7,0,7c0,0.9,0.2,1.8,0.8,2.6c0.7,1.1,0.7,2.1-0.1,3.1c-0.7,0.9-1.6,1.7-2.5,2.4
	c-1.3,1-2.6,2-3.9,3c-0.2,0.1-0.3,0.1-0.4,0c-0.3-0.3-0.6-0.6-1-0.9c-1.1-1-2.4-1.3-3.8-1c-1.2,0.2-2.3,0.7-3.4,1.2
	c-0.1,0-0.2,0.2-0.3,0.1c-0.1-0.1,0.1-0.2,0.1-0.3c1.9-2.2,3.7-4.3,5.6-6.5c0.2-0.2,0.2-0.3,0-0.5c-1.3-1-2.5-2-3.8-3
	c-0.2-0.1-0.3-0.2-0.4,0c-0.1,0.2-0.3,0.3-0.5,0.5c-0.1,0.2-0.2,0.1-0.4,0c-0.2-0.2-0.1-0.3,0-0.3c0.7-0.5,0.8-1.2,0.8-2
	c0-3.6,0-7.2,0-10.8c0-0.3,0.1-0.5,0.3-0.6c2.6-1.8,5.2-3.7,7.7-5.5c0.2-0.2,0.3-0.2,0.6,0c1.4,1.1,2.7,2.2,4.1,3.3
	c0.2,0.2,0.3,0.2,0.5,0c0.1-0.1,0.2-0.3,0.4-0.4c0.1-0.1,0.2-0.3,0.4-0.1c0.2,0.2,0.2,0.3,0,0.4c-0.6,0.5-0.8,1.1-0.7,1.9
	C178.8,21.4,178.8,23.6,178.8,25.9z M170.3,23.8c0,2.1,0,4.2,0,6.4c0,0.2,0.1,0.4,0.2,0.5c0.6,0.5,1.3,1,1.9,1.5
	c0.6,0.5,0.6,0.5,1.2-0.1c0.2-0.2,0.4-0.4,0.4-0.7c0-3.7,0-7.5,0-11.2c0-0.2-0.1-0.3-0.2-0.5c-1-0.8-2.1-1.6-3.1-2.4
	c-0.1-0.1-0.2-0.2-0.3-0.2c-0.1,0.1-0.1,0.2-0.1,0.3C170.3,19.5,170.3,21.6,170.3,23.8z M166.9,40.7
	C166.9,40.7,166.9,40.7,166.9,40.7c0.5-0.2,1-0.4,1.4-0.6c2.3-1,4.6-1,6.8,0.5c0.3,0.2,0.5,0.6,0.9,0.5c0.3-0.1,0.5-0.5,0.8-0.8
	c0.1-0.1,0.2-0.2,0.2-0.3c0.6-1,0.4-1.9-0.4-2.7c-0.4-0.3-0.8-0.6-1.2-0.9c-0.6-0.4-1-1-1.1-1.7c-0.1-0.6-0.1-1.3-0.1-1.9
	c0-0.1,0.1-0.2-0.1-0.3C171.6,35.2,169.2,37.9,166.9,40.7z M170.9,16.7c1.1,0.9,2.2,1.7,3.2,2.6c0.3,0.2,0.4,0.4,0.4,0.8
	c0,1.6,0,3.3,0,4.9c0,3,0,5.9,0,8.9c0,1.1,0.4,1.9,1.3,2.5c0.4,0.3,0.9,0.6,1.2,1c0.4,0.5,0.7,1,0.6,1.6c0,0.2,0,0.3,0,0.5
	c0.6-0.7,0.6-1.6,0.1-2.4c-0.3-0.5-0.8-0.8-1.2-1.2c-0.6-0.5-0.9-1.1-1-1.8c-0.1-0.6-0.1-1.2-0.1-1.8c0-4.2,0-8.5,0-12.7
	c0-0.3-0.1-0.4-0.3-0.6c-0.9-0.7-1.8-1.4-2.7-2.2c-0.2-0.2-0.5-0.5-0.7-0.5C171.5,16.2,171.2,16.5,170.9,16.7z M167,19.5
	c-0.3,0.2-0.5,0.4-0.7,0.5c-0.2,0.1-0.2,0.2-0.2,0.4c0,3.9,0,7.7,0,11.6c0,0.2,0.1,0.3,0.2,0.5c1.2,0.9,2.4,1.9,3.5,2.9
	c0.6,0.5,0.6,0.5,1.1-0.1c0.2-0.2,0.1-0.3-0.1-0.4c-1.2-0.9-2.4-1.8-3.6-2.7c-0.2-0.2-0.3-0.3-0.3-0.6c0-3.9,0-7.7,0-11.6
	C167,19.9,167,19.7,167,19.5z M166.2,42c0.1,0,0.3-0.1,0.4-0.1c0.9-0.3,1.7-0.5,2.7-0.5c1.3,0,2.2,0.6,3.1,1.5
	c0.2,0.2,0.3,0.5,0.6,0.5c0.2,0,0.4-0.3,0.7-0.5c0.2-0.1,0.2-0.2,0-0.4C171.4,40,168.5,40.3,166.2,42z"/>
<path class="st0" d="M146.4,17.8c-0.2,0.2-0.4,0.5-0.6,0.7c-0.1,0.1-0.2,0.3-0.3,0.1c-0.1-0.1-0.2-0.2,0-0.4
	c1.1-1.2,2.2-2.4,3.4-3.6c0.5-0.5,0.5-0.5,1,0c1,0.9,2,1.8,3.1,2.7c0.3,0.2,0.5,0.5,0.4,0.9c0,0.1,0,0.2,0,0.3
	c0.2,0,0.2-0.1,0.3-0.2c1.2-1.3,2.4-2.6,3.6-3.9c0.2-0.2,0.3-0.2,0.4,0c1.1,1,2.3,2.1,3.4,3.1c0.2,0.2,0.3,0.2,0.4,0
	c0.1-0.2,0.3-0.3,0.5-0.5c0.2-0.2,0.3-0.1,0.4,0c0.2,0.1,0.1,0.2,0,0.3c-0.8,0.5-0.9,1.3-0.9,2.2c0,3.6,0,7.2,0,10.8
	c0,0.2,0.1,0.4,0.3,0.6c0.5,0.4,1,0.9,1.5,1.4c0.2,0.2,0.3,0.2,0.5,0c0.2-0.2,0.4-0.4,0.6-0.6c0.1-0.1,0.2-0.2,0.3,0
	c0.1,0.1,0.2,0.2,0.1,0.4c-1.3,1.4-2.6,2.8-3.9,4.2c-0.1,0.1-0.2,0.1-0.3,0c-1.2-1.1-2.3-2.1-3.5-3.2c-0.2-0.1-0.1-0.3-0.1-0.5
	c0-4,0-8,0-12c0-0.3-0.1-0.5-0.3-0.6c-0.6-0.5-1.2-1.1-1.8-1.7c-0.1-0.1-0.2-0.2-0.4,0c-0.3,0.3-0.6,0.7-0.9,1
	c-0.1,0.1-0.1,0.2-0.1,0.4c0,3.8,0,7.5,0,11.3c0,0.2,0.1,0.3,0.2,0.4c0.3,0.3,0.7,0.6,1,0.9c0.2,0.2,0.2,0.3,0,0.5
	c-1.1,1.1-2.2,2.3-3.3,3.5c-0.1,0.1-0.2,0.1-0.3,0c-1.2-1.1-2.5-2.3-3.7-3.4c-0.2-0.2-0.1-0.3,0-0.4c0.4-0.4,0.8-0.9,1.2-1.3
	c0.1-0.1,0.2-0.3,0.2-0.5c0-3.5,0-7,0-10.4c0-0.1,0-0.3-0.1-0.4C147.7,18.9,147,18.4,146.4,17.8z M149.9,25.2c0-2,0-4,0-5.9
	c0-0.2-0.1-0.4-0.2-0.5c-0.6-0.5-1.2-1.1-1.8-1.7c-0.5-0.4-0.4-0.4-0.9,0c-0.2,0.2-0.1,0.3,0,0.4c0.6,0.5,1.1,1,1.7,1.5
	c0.2,0.2,0.3,0.4,0.3,0.7c0,3.2,0,6.3,0,9.5c0,0.6,0.1,1.2-0.1,1.7c-0.2,0.5-0.7,0.8-1.1,1.2c0,0,0,0,0,0c-0.2,0.2-0.2,0.3,0,0.5
	c0.9,0.8,1.8,1.6,2.6,2.4c0.5,0.5,0.5,0.5,1,0c0.2-0.2,0.2-0.3,0-0.4c-0.7-0.6-1.3-1.2-2-1.8c-0.4-0.4-0.5-0.4,0-0.8
	c0.3-0.3,0.5-0.7,0.5-1.2C149.8,28.9,149.9,27,149.9,25.2z M158.1,25.6c0-2,0-4.1,0-6.1c0-0.2-0.1-0.4-0.2-0.6
	c-0.6-0.6-1.3-1.1-1.9-1.7c-0.6-0.5-0.5-0.5-1.1,0.1c-0.1,0.2-0.1,0.2,0,0.4c0.7,0.6,1.3,1.2,2,1.8c0.2,0.2,0.3,0.4,0.3,0.6
	c0,4,0,8,0,12c0,0.2,0.1,0.4,0.2,0.6c0.8,0.8,1.7,1.6,2.5,2.3c0.5,0.5,0.5,0.5,1,0c0.2-0.2,0.1-0.3,0-0.4c-0.9-0.8-1.7-1.6-2.6-2.3
	c-0.2-0.2-0.3-0.3-0.3-0.6C158.1,29.6,158.1,27.6,158.1,25.6z"/>
<path class="st0" d="M208.2,17.8c-0.2,0.2-0.4,0.5-0.6,0.7c-0.1,0.1-0.2,0.3-0.3,0.1c-0.1-0.1-0.2-0.2,0-0.4
	c0.9-0.9,1.7-1.9,2.6-2.8c0.4-0.4,0.7-0.8,1.1-1.2c0.1-0.1,0.2-0.1,0.3,0c1.2,1.1,2.4,2.2,3.6,3.2c0.1,0.1,0.2,0.2,0.2,0.3
	c0,0.2,0,0.4,0,0.5c0.2,0,0.2-0.1,0.3-0.2c1.2-1.3,2.4-2.6,3.6-3.9c0.2-0.2,0.3-0.2,0.4,0c1.1,1,2.3,2,3.4,3.1
	c0.2,0.2,0.3,0.2,0.5,0c0.1-0.2,0.3-0.3,0.4-0.5c0.2-0.2,0.3-0.2,0.5,0c0.2,0.2,0,0.3-0.1,0.4c-0.7,0.5-0.9,1.2-0.8,2.1
	c0,3.6,0,7.3,0,10.9c0,0.3,0.1,0.4,0.3,0.6c0.5,0.5,1,0.9,1.5,1.4c0.1,0.1,0.2,0.2,0.4,0c0.2-0.2,0.4-0.5,0.6-0.7
	c0.1-0.1,0.2-0.2,0.3,0c0.1,0.1,0.2,0.2,0.1,0.4c-1.3,1.4-2.6,2.8-3.9,4.2c-0.1,0.1-0.2,0.1-0.3,0c-1.2-1.1-2.3-2.1-3.5-3.2
	c-0.2-0.1-0.1-0.3-0.1-0.5c0-4,0-8,0-12c0-0.3-0.1-0.5-0.3-0.7c-0.6-0.5-1.2-1.1-1.8-1.7c-0.1-0.1-0.2-0.2-0.4,0
	c-0.3,0.3-0.6,0.7-0.9,1c-0.1,0.1-0.1,0.2-0.1,0.4c0,3.8,0,7.5,0,11.3c0,0.2,0,0.3,0.2,0.4c0.3,0.3,0.7,0.6,1,0.9
	c0.2,0.2,0.2,0.3,0,0.5c-1.1,1.1-2.2,2.3-3.3,3.5c-0.1,0.1-0.2,0.1-0.3,0c-1.2-1.1-2.5-2.3-3.7-3.4c-0.2-0.1-0.2-0.3,0-0.4
	c0.4-0.4,0.8-0.9,1.3-1.3c0.1-0.1,0.2-0.3,0.2-0.5c0-3.5,0-7,0-10.4c0-0.1,0-0.3-0.1-0.4C209.5,18.9,208.9,18.4,208.2,17.8z
	 M211.7,25.2c0-2,0-3.9,0-5.9c0-0.2-0.1-0.4-0.2-0.5c-0.6-0.5-1.2-1.1-1.8-1.7c-0.4-0.4-0.4-0.4-0.9,0.1c-0.2,0.2-0.2,0.2,0,0.4
	c0.6,0.5,1.2,1.1,1.7,1.6c0.2,0.1,0.2,0.3,0.2,0.5c0,3.7,0,7.3,0,11c0,0.2-0.1,0.4-0.2,0.5c-0.3,0.3-0.6,0.7-1,1
	c-0.2,0.2-0.2,0.3,0,0.5c0.9,0.8,1.7,1.6,2.6,2.4c0.5,0.5,0.5,0.5,1,0c0.2-0.2,0.2-0.3,0-0.4c-0.7-0.6-1.3-1.2-2-1.7
	c-0.5-0.4-0.5-0.5,0-0.9c0.3-0.3,0.5-0.6,0.4-1.1C211.7,28.9,211.7,27,211.7,25.2z M219.9,25.6c0-2,0-4.1,0-6.1
	c0-0.2-0.1-0.4-0.2-0.6c-0.6-0.6-1.3-1.2-1.9-1.7c-0.5-0.5-0.5-0.5-1,0c-0.2,0.2-0.2,0.3,0,0.4c0.7,0.6,1.4,1.2,2,1.8
	c0.2,0.2,0.2,0.3,0.2,0.6c0,4,0,8,0,12c0,0.2,0.1,0.4,0.2,0.6c0.8,0.8,1.7,1.6,2.5,2.3c0.5,0.5,0.5,0.5,1,0c0.2-0.2,0.2-0.3,0-0.4
	c-0.9-0.8-1.7-1.5-2.6-2.3c-0.2-0.2-0.3-0.3-0.3-0.6C219.9,29.6,219.9,27.6,219.9,25.6z"/>
<path class="st0" d="M103.3,17.1c-0.1,0.1-0.1,0.2-0.2,0.2c-0.7,0.5-0.8,1.2-0.8,2c0,3.5,0,7.1,0,10.6c0,0.3,0.1,0.4,0.3,0.6
	c0.6,0.6,1.2,1.1,1.8,1.7c0.1,0.1,0.2,0.2,0.4,0c0.1-0.1,0.3-0.3,0.4-0.4c0.1-0.2,0.2-0.2,0.4,0c0.2,0.2,0,0.2-0.1,0.3
	c-1.2,1.3-2.4,2.6-3.6,3.8c-0.2,0.2-0.3,0.2-0.5,0c-1.2-1.1-2.4-2.2-3.7-3.3c-0.2-0.2-0.3-0.2-0.5,0c-1.1,1.1-2.1,2.2-3.2,3.3
	c-0.2,0.2-0.3,0.2-0.5,0c-1.3-1.2-2.7-2.4-4-3.6c-0.2-0.2-0.4-0.2-0.6,0c-0.1,0.1-0.1,0.1-0.2,0.2c-0.1,0.2-0.2,0.1-0.3,0
	c-0.1-0.1-0.3-0.2-0.1-0.3c0.7-0.4,0.7-1.1,0.7-1.8c0-3.4,0-6.8,0-10.2c0-0.3,0.1-0.5,0.3-0.6c2.6-1.8,5.1-3.7,7.7-5.5
	c0.2-0.1,0.3-0.1,0.5,0c1.4,1.1,2.8,2.2,4.2,3.3c0.2,0.2,0.3,0.2,0.5,0c0.1-0.2,0.3-0.3,0.4-0.5c0.1-0.1,0.1-0.2,0.2-0.1
	C103.1,16.9,103.2,17,103.3,17.1z M93.9,23.4c0,2,0,4.1,0,6.1c0,0.2,0,0.3,0.2,0.4c0.9,0.8,1.8,1.5,2.6,2.3c0.1,0,0.1,0.1,0.2,0.1
	c0.2-0.1,0.7-0.7,0.7-0.9c0-3.8,0-7.5,0-11.3c0-0.2-0.1-0.3-0.2-0.5c-1-0.8-2.1-1.6-3.1-2.4c-0.1-0.1-0.2-0.2-0.3-0.2
	c-0.1,0.1-0.1,0.2-0.1,0.3C93.9,19.4,93.9,21.4,93.9,23.4z M99,25.4c0-2,0-4,0-6c0-0.2-0.1-0.4-0.2-0.5c-1-0.8-1.9-1.6-2.9-2.3
	c-0.6-0.5-0.6-0.5-1.2,0c-0.2,0.2-0.2,0.2,0,0.4c1.1,0.8,2.1,1.6,3.2,2.5c0.2,0.2,0.3,0.3,0.3,0.6c0,3.9,0,7.8,0,11.8
	c0,0.3,0.1,0.5,0.3,0.7c1,0.9,1.9,1.7,2.9,2.6c0.5,0.4,0.5,0.4,0.9,0c0.2-0.2,0.2-0.3,0-0.5c-1-0.9-1.9-1.7-2.9-2.6
	c-0.2-0.2-0.2-0.3-0.2-0.6C99,29.4,99,27.4,99,25.4z M90.5,19.5c-0.2,0.2-0.4,0.3-0.6,0.5c-0.2,0.1-0.2,0.2-0.2,0.4
	c0,3.7,0,7.4,0,11.1c0,0.2,0.1,0.3,0.2,0.4c1.2,1,2.3,2.1,3.5,3.1c0.5,0.5,0.5,0.4,1,0c0.2-0.2,0.2-0.3,0-0.4
	c-1.2-1-2.3-2.1-3.5-3.1c-0.2-0.2-0.2-0.3-0.2-0.6c0-3.7,0-7.3,0-11C90.6,19.8,90.6,19.7,90.5,19.5z"/>
<path class="st0" d="M206.5,17.5c-0.1,0.1-0.1,0.2-0.2,0.2c-0.6,0.5-0.7,1-0.7,1.7c0,3.6,0,7.3,0,10.9c0,0.2-0.1,0.4-0.3,0.5
	c-2.3,1.7-4.6,3.4-6.9,5.1c-0.2,0.1-0.3,0.2-0.5,0c-1.7-1.3-3.3-2.5-5-3.8c-0.2-0.2-0.4-0.2-0.5,0c-0.1,0.1-0.2,0.2-0.2,0.3
	c-0.1,0.1-0.1,0.3-0.3,0.1c-0.2-0.2-0.2-0.3,0-0.4c0.5-0.4,0.6-1,0.6-1.6c0-3.6,0-7.1,0-10.7c0-0.3,0.1-0.5,0.3-0.6
	c2.4-1.7,4.8-3.4,7.1-5.1c0.2-0.2,0.3-0.1,0.5,0c1.5,1.2,3.1,2.4,4.6,3.6c0.2,0.2,0.3,0.2,0.5,0c0.1-0.2,0.3-0.3,0.5-0.5
	c0.1-0.1,0.1-0.2,0.2-0.1C206.4,17.3,206.5,17.4,206.5,17.5z M200.9,32.8C200.9,32.8,200.9,32.8,200.9,32.8c0-4.3,0-8.5,0-12.7
	c0-0.2-0.1-0.3-0.2-0.4c-1.1-0.8-2.1-1.7-3.2-2.5c-0.1-0.1-0.2-0.2-0.3-0.1c-0.1,0.1,0,0.2,0,0.3c0,4.1,0,8.2,0,12.4
	c0,0.2,0.1,0.4,0.3,0.5c1.1,0.8,2.1,1.6,3.1,2.4C200.7,32.7,200.7,32.8,200.9,32.8z M193.9,19.1c-0.3,0.2-0.5,0.4-0.7,0.5
	c-0.2,0.1-0.2,0.2-0.2,0.4c0,3.7,0,7.5,0,11.2c0,0.2,0.1,0.3,0.2,0.4c1.4,1.1,2.9,2.2,4.3,3.3c0.8,0.6,0.8,0.6,1.5-0.1
	c-0.1-0.1-0.2-0.2-0.3-0.2c-1.5-1.1-3-2.3-4.5-3.4c-0.2-0.2-0.3-0.3-0.3-0.6c0-3.6,0-7.1,0-10.7C193.9,19.8,193.9,19.5,193.9,19.1z
	 M201.4,33.3c0.2-0.2,0.4-0.3,0.6-0.4c0.3-0.2,0.3-0.4,0.3-0.7c0-4.2,0-8.4,0-12.6c0-0.3-0.1-0.5-0.3-0.6c-1.1-0.8-2.1-1.6-3.2-2.5
	c-0.6-0.4-0.6-0.4-1.2,0c-0.2,0.2-0.2,0.2,0,0.4c1.2,0.9,2.3,1.8,3.5,2.7c0.2,0.2,0.3,0.3,0.3,0.6c0,4.3,0,8.5,0,12.8
	C201.4,32.9,201.4,33.1,201.4,33.3z"/>
<path class="st0" d="M273.2,17.4c-0.1,0.1-0.2,0.2-0.2,0.3c-0.6,0.5-0.8,1.1-0.7,1.9c0,3.6,0,7.2,0,10.8c0,0.3-0.1,0.4-0.3,0.6
	c-2.3,1.7-4.5,3.4-6.8,5c-0.2,0.2-0.3,0.1-0.5,0c-1.7-1.3-3.3-2.5-5-3.8c-0.2-0.2-0.4-0.2-0.5,0.1c-0.1,0.1-0.2,0.2-0.2,0.3
	c-0.1,0.1-0.2,0.2-0.3,0.1c-0.1-0.1-0.3-0.2-0.1-0.4c0.6-0.4,0.7-1,0.7-1.7c0-3.5,0-7.1,0-10.6c0-0.2,0.1-0.4,0.3-0.5
	c2.4-1.7,4.8-3.4,7.2-5.2c0.2-0.2,0.3-0.2,0.6,0c1.5,1.2,3.1,2.4,4.6,3.6c0.2,0.2,0.3,0.2,0.5,0c0.1-0.2,0.3-0.3,0.5-0.5
	c0.1-0.1,0.1-0.2,0.2-0.1C273,17.3,273.1,17.4,273.2,17.4z M267.5,32.9c0-0.1,0-0.1,0-0.2c0-4.2,0-8.4,0-12.6c0-0.2-0.1-0.3-0.2-0.4
	c-1.1-0.8-2.1-1.7-3.2-2.5c-0.1-0.1-0.1-0.2-0.2-0.1c-0.1,0.1,0,0.3,0,0.4c0,3.9,0,7.8,0,11.6c0,0.7,0.2,1.2,0.8,1.6
	C265.5,31.4,266.5,32.1,267.5,32.9z M264,16.6c1.2,0.9,2.4,1.9,3.6,2.8c0.2,0.2,0.3,0.4,0.3,0.7c0,4.3,0,8.5,0,12.8
	c0,0.1,0,0.3,0.1,0.4c0.2-0.2,0.4-0.3,0.6-0.5c0.2-0.1,0.3-0.3,0.3-0.5c0-4.3,0-8.5,0-12.8c0-0.2-0.1-0.4-0.2-0.5
	c-1-0.8-2.1-1.6-3.1-2.4C264.8,16,264.8,16,264,16.6C264.1,16.6,264.1,16.6,264,16.6z M265.6,35c-0.1-0.1-0.2-0.2-0.3-0.3
	c-1.5-1.1-3-2.3-4.5-3.4c-0.2-0.2-0.3-0.3-0.3-0.6c0-3.7,0-7.4,0-11.1c0-0.1,0.1-0.3-0.1-0.4c-0.2,0.1-0.4,0.3-0.6,0.4
	c-0.2,0.1-0.2,0.3-0.2,0.5c0,3.7,0,7.4,0,11.1c0,0.2,0.1,0.4,0.3,0.5c1.4,1.1,2.9,2.2,4.3,3.3C264.8,35.6,264.8,35.6,265.6,35z"/>
<path class="st0" d="M282.4,21.9c1.4,0,2.8,0,4.1,0c0.3,0,0.3,0,0.3,0.3c0,2.9,0,5.8,0,8.7c0,0.2-0.1,0.3-0.2,0.5
	c-2.2,1.5-4.3,3-6.4,4.5c-0.2,0.1-0.3,0.2-0.4,0c-1.9-1.9-4.4-2.1-6.7-0.6c-0.2,0.1-0.4,0.3-0.6,0.4c-0.1,0.1-0.2,0.2-0.3,0.1
	c-0.1-0.1,0-0.2,0.1-0.3c1.8-2.7,3.7-5.4,5.5-8c0.1-0.1,0.1-0.2,0.2-0.3c-0.1-0.1-0.2,0-0.3,0c-1,0-2,0-3,0c-0.2,0-0.3,0-0.3-0.3
	c0-2.5,0-5.1,0-7.6c0-0.2,0.1-0.3,0.2-0.4c2.3-1.6,4.6-3.2,6.9-4.8c0.1-0.1,0.2-0.1,0.4,0c1.7,1.2,3.7,1.3,5.4,0.1
	c0.1-0.1,0.2-0.2,0.3-0.1c0.1,0.1,0,0.2-0.1,0.3c-1.6,2.3-3.2,4.6-4.8,7C282.6,21.6,282.5,21.7,282.4,21.9z M285.1,16.4
	c-0.1,0-0.3,0.1-0.4,0.1c-1.6,0.4-3.1,0.5-4.3-0.9c-0.1-0.1-0.2-0.1-0.2,0c-0.3,0.2-0.5,0.4-0.8,0.5c-0.1,0.1-0.1,0.1,0,0.2
	c0.5,0.5,1,1,1.7,1.2C282.6,17.9,284,17.5,285.1,16.4C285.2,16.4,285.2,16.4,285.1,16.4C285.2,16.4,285.1,16.4,285.1,16.4z
	 M274.4,34.1c0.1,0.1,0.2,0,0.3-0.1c1.7-0.5,3.3-0.2,4.7,0.9c0.2,0.2,0.4,0.5,0.6,0.5c0.3,0,0.5-0.3,0.7-0.5c0.2-0.1,0.2-0.2,0-0.4
	c-1.1-1.2-2.5-1.7-4.1-1.4C275.8,33.3,275,33.6,274.4,34.1C274.4,34.2,274.3,34.2,274.4,34.1C274.3,34.2,274.4,34.2,274.4,34.1
	C274.4,34.2,274.4,34.2,274.4,34.1z M274.6,33.1c2.6-1.7,5.1-2.2,7.5,0.1c0,0,0-0.1,0-0.1c0-2.4,0-4.8,0-7.2c0-0.2-0.1-0.2-0.3-0.2
	c-0.6,0-1.2,0-1.8,0c-0.3,0-0.4,0.1-0.6,0.3c-1.6,2.3-3.1,4.5-4.7,6.8C274.7,32.9,274.6,33,274.6,33.1z M284.9,17.3
	c-0.1,0-0.1,0-0.2,0.1c-1.5,1.2-3.9,1.2-5.4-0.3c0,0-0.1-0.1-0.2-0.1c-0.1,0,0,0.1,0,0.2c0,2,0,4,0,5.9c0,0.2,0.1,0.3,0.3,0.2
	c0.4,0,0.7,0,1.1,0c0.2,0,0.4-0.1,0.5-0.3c1.3-1.9,2.5-3.7,3.8-5.6C284.8,17.5,284.9,17.4,284.9,17.3z M280,25.2c0.8,0,1.5,0,2.2,0
	c0.3,0,0.4,0.1,0.4,0.4c0,2.5,0,5.1,0,7.6c0,0.1,0,0.3,0,0.5c0.3-0.2,0.6-0.4,0.8-0.6c0.1-0.1,0.1-0.2,0.1-0.3c0-2.8,0-5.5,0-8.3
	c0-0.2-0.1-0.2-0.2-0.2c-0.8,0-1.6,0-2.4,0c-0.1,0-0.2,0-0.3,0.1C280.4,24.7,280.3,24.9,280,25.2z M275.8,18.7
	c-0.3,0.2-0.5,0.4-0.7,0.5c-0.2,0.1-0.2,0.2-0.2,0.4c0,2.3,0,4.5,0,6.8c0,0.2,0,0.3,0.3,0.3c1,0,2,0,3.1,0c0.1,0,0.2,0,0.3-0.1
	c0.2-0.3,0.4-0.5,0.6-0.9c-0.5,0-1,0-1.4,0c-0.6,0-1.3,0.1-1.9,0c0-0.6,0-1.2,0-1.8C275.8,22.2,275.8,20.5,275.8,18.7z"/>
<path class="st0" d="M110.2,27.2c-1.2,0-2.2,0-3.3,0c-0.2,0-0.3,0-0.3-0.3c0-2.5,0-5,0-7.5c0-0.2,0.1-0.3,0.3-0.5
	c2.3-1.6,4.5-3.1,6.8-4.7c0.2-0.1,0.3-0.1,0.5,0c1.5,1.1,3.6,1.2,5.2,0.2c0.1,0,0.1-0.1,0.1-0.1c0.1-0.1,0.2-0.2,0.3-0.1
	c0.1,0.1,0,0.2-0.1,0.2c-0.6,0.9-1.2,1.8-1.8,2.6c-1.1,1.6-2.2,3.2-3.2,4.7c0.1,0.1,0.2,0.1,0.3,0.1c1.3,0,2.6,0,3.9,0
	c0.2,0,0.3,0,0.3,0.3c0,2.9,0,5.8,0,8.8c0,0.2-0.1,0.3-0.2,0.4c-2.2,1.5-4.3,3-6.5,4.6c-0.1,0.1-0.2,0.2-0.4,0
	c-1.6-1.8-4.6-2.4-7.1-0.3c-0.1,0.1-0.3,0.4-0.5,0.2c-0.2-0.2,0.1-0.3,0.2-0.5c1.8-2.6,3.6-5.2,5.4-7.9
	C110,27.5,110.1,27.4,110.2,27.2z M106.6,34.2c0.1,0,0.2-0.1,0.3-0.1c1.7-0.5,3.3-0.2,4.7,0.9c0.2,0.2,0.4,0.6,0.7,0.5
	c0.3,0,0.5-0.3,0.7-0.5c0.2-0.1,0.2-0.2,0-0.4c-0.9-0.9-1.9-1.5-3.2-1.5C108.6,33.1,107.5,33.4,106.6,34.2
	C106.5,34.1,106.5,34.2,106.6,34.2C106.5,34.2,106.5,34.2,106.6,34.2z M106.8,33.2c2.5-1.8,5-2.3,7.5,0.1c0-2.5,0-4.9,0-7.3
	c0-0.2-0.1-0.3-0.3-0.3c-0.6,0-1.2,0-1.8,0c-0.3,0-0.4,0.1-0.6,0.3c-1.6,2.3-3.2,4.6-4.7,6.9C106.8,33,106.7,33,106.8,33.2z
	 M117,17.3c-0.5,0.2-0.9,0.5-1.4,0.7c-1.5,0.4-2.9,0.2-4.1-0.9c-0.1-0.1-0.1-0.2-0.2-0.1c-0.1,0-0.1,0.2-0.1,0.3c0,1.9,0,3.9,0,5.8
	c0,0.2,0,0.3,0.3,0.3c0.4,0,0.7,0,1.1,0c0.2,0,0.4-0.1,0.5-0.2c0.6-0.9,1.2-1.7,1.8-2.6C115.6,19.4,116.3,18.4,117,17.3z
	 M114.8,33.7c0.3-0.2,0.5-0.4,0.8-0.6c0.1-0.1,0.2-0.2,0.1-0.3c0-2.8,0-5.5,0-8.3c0-0.2-0.1-0.3-0.2-0.2c-0.8,0-1.6,0-2.4,0
	c-0.1,0-0.2,0-0.3,0.1c-0.2,0.3-0.4,0.5-0.6,0.8c0.8,0,1.5,0,2.2,0c0.3,0,0.4,0.1,0.4,0.4c0,2.5,0,5.1,0,7.6
	C114.8,33.4,114.8,33.5,114.8,33.7z M111.2,25.8c-1,0-2,0-2.9,0c-0.3,0-0.4-0.1-0.4-0.4c0-2.1,0-4.2,0-6.2c0-0.1,0.1-0.3-0.1-0.4
	c-0.2,0.2-0.5,0.3-0.7,0.5c-0.1,0.1-0.2,0.2-0.2,0.4c0,2.3,0,4.6,0,6.8c0,0.2,0.1,0.3,0.3,0.3c1,0,2,0,3,0c0.1,0,0.2,0,0.3-0.1
	C110.8,26.3,111,26.1,111.2,25.8z M111.4,16.3c0.8,1.1,1.8,1.5,3.1,1.4c1.1-0.1,2-0.5,2.8-1.3c-0.1,0-0.1,0-0.1,0
	c-0.1,0-0.2,0.1-0.3,0.1c-1.6,0.4-3.1,0.6-4.4-0.9c-0.1-0.1-0.2-0.1-0.2,0C112,15.8,111.7,16,111.4,16.3z"/>
<path class="st0" d="M294.6,23.9c0,2.1,0,4.2,0,6.3c0,0.2,0.1,0.4,0.3,0.5c0.6,0.5,1.3,0.9,1.9,1.4c0.2,0.2,0.3,0.1,0.5-0.1
	c0.2-0.2,0.3-0.4,0.5-0.6c0.1-0.1,0.2-0.2,0.3,0c0.1,0.1,0.2,0.2,0,0.4c-1.3,1.4-2.6,2.8-3.8,4.2c-0.2,0.2-0.3,0.1-0.4,0
	c-1.2-0.9-2.3-1.8-3.5-2.7c-0.3-0.2-0.4-0.2-0.6,0.1c-0.1,0.1-0.2,0.3-0.4,0.4c-0.1,0.1-0.2,0.3-0.4,0.1c-0.2-0.2-0.2-0.3,0-0.4
	c0.7-0.5,0.8-1.2,0.8-2c0-4.6,0-9.1,0-13.7c0-0.3-0.1-0.4-0.4-0.4c-0.6,0-1.3,0-1.9,0c-0.1,0-0.2,0-0.2-0.1c-0.1-0.1,0-0.2,0.1-0.2
	c0.4-0.6,0.8-1.2,1.2-1.8c0.2-0.2,0.3-0.3,0.6-0.3c0.7,0,0.7,0,0.7-0.7c0-0.7,0-1.3,0-2c0-0.2,0-0.3,0.2-0.5c1.4-1.5,2.8-3,4.2-4.5
	c0.1-0.1,0.1-0.2,0.2-0.2c0.1,0.1,0.1,0.2,0.1,0.3c0,2.4,0,4.7,0,7.1c0,0.3,0.1,0.4,0.4,0.4c0.9,0,1.9,0,2.8,0
	c0.1,0,0.2-0.1,0.3,0.1c0,0.1-0.1,0.2-0.1,0.3c-0.4,0.6-0.8,1.2-1.2,1.8c-0.1,0.2-0.2,0.2-0.4,0.2c-0.5,0-1,0-1.5,0
	c-0.3,0-0.3,0.1-0.3,0.3C294.6,19.7,294.6,21.8,294.6,23.9z M291.3,24.7c0-2.3,0-4.6,0-6.9c0-0.6,0-0.6-0.6-0.6
	c-0.3,0-0.3,0.1-0.3,0.3c0,4.9,0,9.8,0,14.8c0,0.2,0.1,0.3,0.2,0.5c1,0.8,2,1.5,2.9,2.3c0.6,0.4,0.5,0.4,1-0.1
	c0.2-0.2,0.1-0.2,0-0.4c-1-0.8-2-1.5-3-2.3c-0.2-0.2-0.3-0.3-0.3-0.6C291.3,29.4,291.3,27,291.3,24.7z M291.3,11.2
	c-0.3,0.3-0.4,0.5-0.7,0.7c-0.2,0.2-0.3,0.4-0.3,0.7c0,0.5,0,1.1,0,1.6c0,0.7,0,0.7,0.7,0.7c0.2,0,0.2-0.1,0.2-0.2
	C291.3,13.5,291.3,12.4,291.3,11.2z"/>
<path class="st0" d="M187.6,7c0.1,0.1,0,0.3,0,0.4c0,2.4,0,4.7,0,7.1c0,0.3,0.1,0.3,0.3,0.3c1,0,1.9,0,2.9,0c0.1,0,0.2-0.1,0.3,0.1
	c0,0.1-0.1,0.2-0.1,0.3c-0.4,0.6-0.8,1.2-1.2,1.8c-0.1,0.2-0.2,0.2-0.4,0.2c-0.5,0-1,0-1.5,0c-0.3,0-0.3,0.1-0.3,0.3
	c0,1.9,0,3.8,0,5.7c0,2.3,0,4.6,0,6.9c0,0.3,0.1,0.4,0.3,0.6c0.6,0.5,1.3,1,1.9,1.5c0.2,0.1,0.3,0.1,0.4,0c0.2-0.2,0.4-0.4,0.5-0.6
	c0.1-0.1,0.2-0.3,0.4-0.1c0.2,0.2,0.1,0.2,0,0.4c-1.3,1.4-2.5,2.7-3.8,4.1c-0.2,0.2-0.3,0.2-0.4,0c-1.2-0.9-2.4-1.8-3.5-2.8
	c-0.2-0.2-0.3-0.2-0.5,0c-0.1,0.2-0.3,0.3-0.4,0.5c-0.1,0.1-0.2,0.2-0.4,0.1c-0.2-0.2-0.2-0.3,0-0.4c0.7-0.5,0.8-1.2,0.8-2.1
	c0-4.6,0-9.1,0-13.7c0-0.4-0.1-0.4-0.4-0.4c-0.6,0-1.3,0-1.9,0c-0.1,0-0.2,0-0.3-0.1c0-0.1,0.1-0.2,0.1-0.2c0.4-0.6,0.8-1.2,1.2-1.8
	c0.2-0.2,0.3-0.3,0.6-0.3c0.7,0,0.7,0,0.7-0.7c0-0.7,0-1.3,0-2c0-0.2,0-0.3,0.1-0.4c1.4-1.5,2.9-3.1,4.3-4.6
	C187.5,7.1,187.5,7,187.6,7z M183.4,24.9c0,2.5,0,4.9,0,7.4c0,0.2,0.1,0.4,0.2,0.5c1,0.8,2,1.5,3,2.3c0.5,0.4,0.5,0.4,1-0.1
	c0.2-0.2,0.2-0.3,0-0.4c-1-0.8-1.9-1.5-2.9-2.3c-0.2-0.2-0.3-0.3-0.3-0.6c0-4.4,0-8.8,0-13.2c0-0.4,0-0.7,0-1.1
	c0-0.2-0.1-0.2-0.2-0.2c-0.1,0-0.2,0-0.3,0c-0.3,0-0.4,0.1-0.4,0.4C183.4,20,183.4,22.5,183.4,24.9z M184.4,11.3
	c-0.7,0.5-1.1,1.1-0.9,2c0.1,0.3,0,0.7,0,1c0,0.7,0,0.7,0.7,0.7c0.2,0,0.2,0,0.2-0.2C184.4,13.5,184.4,12.4,184.4,11.3z"/>
<path class="st0" d="M49.8,20.9c0,0.1-0.1,0.2-0.2,0.2c-2.5,1.8-4.9,3.6-7.4,5.5c-0.2,0.2-0.3,0.3-0.3,0.6c0,0.5,0,1.1,0,1.6
	c0,0.2,0,0.3,0.2,0.4c1.3,1,2.6,2,3.8,3c0.2,0.1,0.3,0.1,0.4,0c0.7-0.7,1.4-1.5,2-2.2c0.1-0.1,0.2-0.3,0.4-0.1
	c0.2,0.2,0.1,0.3,0,0.4c-1.8,1.9-3.5,3.8-5.3,5.7c-0.2,0.2-0.2,0.1-0.4,0c-1.7-1.4-3.5-2.8-5.2-4.2c-0.2-0.2-0.4-0.2-0.6,0
	c-0.1,0.2-0.3,0.3-0.4,0.4c-0.1,0.1-0.2,0.3-0.4,0.1c-0.2-0.2-0.1-0.3,0-0.4c0.7-0.5,0.8-1.2,0.8-2.1c0-3.2,0-6.3,0-9.5
	c0-0.3,0.1-0.4,0.3-0.6c2.6-1.9,5.1-3.7,7.7-5.6c0.2-0.2,0.3-0.2,0.5,0.1c1.3,2.2,2.7,4.3,4,6.5C49.7,20.8,49.8,20.9,49.8,20.9z
	 M41.9,26.2c1.2-0.9,2.4-1.8,3.6-2.6c0.2-0.2,0.2-0.3,0.1-0.5c-1.2-1.8-2.3-3.7-3.4-5.6c-0.1-0.1-0.1-0.2-0.3-0.3
	C41.9,20.2,41.9,23.2,41.9,26.2z M38.7,19.6c-0.2,0.1-0.4,0.3-0.5,0.4c-0.3,0.2-0.4,0.4-0.4,0.8c0,3.3,0,6.7,0,10
	c0,0.3,0.1,0.5,0.3,0.7c1.5,1.2,3,2.5,4.6,3.7c0.5,0.4,0.5,0.4,1-0.1c0.2-0.2,0.2-0.3,0-0.5c-1.6-1.2-3.1-2.5-4.7-3.7
	c-0.2-0.2-0.3-0.3-0.3-0.6c0-2.5,0-4.9,0-7.4C38.7,21.9,38.7,20.8,38.7,19.6z M46.2,23.1c0.2-0.1,0.3-0.3,0.5-0.3
	c0.3-0.1,0.3-0.3,0.1-0.5c-1.1-1.8-2.2-3.5-3.3-5.3c-0.3-0.5-0.3-0.5-0.9-0.2c-0.2,0.2-0.2,0.3-0.1,0.5c1.1,1.7,2.2,3.4,3.2,5.2
	C45.9,22.6,46,22.8,46.2,23.1z"/>
<path class="st0" d="M146.2,31.6c-0.1,0.1-0.1,0.2-0.2,0.2c-1.3,1.4-2.6,2.7-3.8,4.1c-0.2,0.2-0.3,0.1-0.4,0c-1.1-1-2.2-2-3.3-3
	c-0.2-0.2-0.4-0.2-0.5,0c-0.1,0.2-0.3,0.3-0.4,0.4c-0.1,0.1-0.2,0.2-0.3,0.1c-0.1-0.1-0.2-0.3,0-0.4c0.8-0.6,0.9-1.3,0.9-2.2
	c0-3.7,0-7.3,0-11c0-0.3-0.1-0.4-0.3-0.6c-0.5-0.4-0.9-0.9-1.4-1.3c-0.1-0.1-0.2-0.2-0.4,0c-0.1,0.1-0.2,0.3-0.3,0.4
	c-0.1,0.1-0.1,0.3-0.3,0.1c-0.1-0.2-0.2-0.2,0-0.4c1.2-1.3,2.4-2.6,3.5-3.9c0.2-0.2,0.3-0.2,0.4,0c1,0.9,2,1.8,3,2.7
	c0.2,0.2,0.3,0.2,0.5,0c0.1-0.2,0.3-0.3,0.5-0.5c0.1-0.2,0.3-0.1,0.4,0c0.2,0.1,0.1,0.2,0,0.3c-0.8,0.6-0.9,1.4-0.9,2.4
	c0.1,3.7,0,7.4,0,11c0,0.2,0.1,0.4,0.2,0.6c0.6,0.5,1.1,1,1.6,1.5c0.2,0.2,0.3,0.2,0.4,0c0.2-0.2,0.4-0.4,0.6-0.6
	c0.1-0.1,0.1-0.2,0.2-0.1C146,31.5,146.1,31.6,146.2,31.6z M139.4,25.4c0-2.1,0-4.1,0-6.2c0-0.2-0.1-0.4-0.2-0.5
	c-0.5-0.5-1.1-1-1.6-1.5c-0.5-0.4-0.5-0.4-0.9,0c-0.2,0.2-0.2,0.3,0,0.4c0.5,0.5,1,0.9,1.5,1.4c0.2,0.2,0.3,0.4,0.3,0.7
	c0,4.1,0,8.2,0,12.3c0,0.2,0.1,0.4,0.2,0.6c0.9,0.8,1.9,1.7,2.8,2.5c0.5,0.4,0.5,0.4,0.9,0c0.2-0.2,0.2-0.3,0-0.5
	c-0.9-0.8-1.8-1.6-2.8-2.5c-0.2-0.1-0.2-0.3-0.2-0.5C139.5,29.5,139.4,27.4,139.4,25.4z"/>
<path class="st0" d="M140.4,6.8c0.1,0.1,0.2,0.1,0.2,0.2c1.1,1,2.1,2,3.2,2.9c0.1,0.1,0.2,0.2,0,0.3c-1,1-2,2.1-3,3.2
	c-0.1,0.1-0.2,0.1-0.3,0c-1.1-1-2.1-2-3.2-2.9c-0.1-0.1-0.2-0.2,0-0.4c1-1,2-2.1,2.9-3.1C140.3,6.9,140.4,6.9,140.4,6.8z
	 M141.3,12.2c0,0-0.1-0.1-0.2-0.2c-0.7-0.7-1.4-1.3-2.1-2c-0.5-0.4-0.5-0.4-0.9,0c-0.1,0.1-0.2,0.2,0,0.4c0.8,0.8,1.7,1.6,2.5,2.3
	c0.1,0,0.1,0.1,0.2,0.1C140.8,12.9,141.3,12.3,141.3,12.2z"/>
<path class="st1" d="M18.9,30.7c0,0,0.1-0.1,0.1-0.1C19,30.7,19,30.8,18.9,30.7C18.9,30.8,18.9,30.8,18.9,30.7z"/>
<path class="st1" d="M285.1,16.4C285.1,16.4,285.2,16.4,285.1,16.4C285.2,16.4,285.2,16.4,285.1,16.4
	C285.1,16.4,285.1,16.4,285.1,16.4z"/>
<path class="st1" d="M274.4,34.1C274.4,34.2,274.4,34.2,274.4,34.1C274.4,34.2,274.3,34.2,274.4,34.1
	C274.3,34.2,274.4,34.2,274.4,34.1C274.4,34.2,274.4,34.1,274.4,34.1z"/>
<path class="st1" d="M106.6,34.2C106.5,34.2,106.5,34.2,106.6,34.2C106.5,34.2,106.5,34.1,106.6,34.2
	C106.5,34.2,106.5,34.2,106.6,34.2z"/>
</svg>
