<?xml version="1.0" encoding="utf-8"?>
<!-- Generator: Adobe Illustrator 22.0.1, SVG Export Plug-In . SVG Version: 6.00 Build 0)  -->
<svg version="1.1" id="Layer_1" xmlns="http://www.w3.org/2000/svg" xmlns:xlink="http://www.w3.org/1999/xlink" x="0px" y="0px"
	 viewBox="0 0 300.8 162.3" style="enable-background:new 0 0 300.8 162.3;" xml:space="preserve">
<style type="text/css">
	.st0{fill:#5F646A;}
</style>
<path class="st0" d="M250.2,105.1c-15.9,0-31.8,0-47.6,0c-2,0-2.5,0.6-2.1,2.6c3.4,15.8,16,27.8,32.1,30.2c11.1,1.7,21.2-1.2,30-8.2
	c1.6-1.3,3.2-1.9,5.3-1.9c8,0.1,15.9,0,23.9,0c1.8,0,2.1,0.4,1.2,2c-9.5,16.5-23.5,27.2-42.3,30.9c-19.4,3.9-37-0.6-52.3-13.2
	c-11.8-9.7-19.1-22.3-21.6-37.4c-2.9-17.8,0.9-34,11.9-48.4c10.1-13.3,23.6-21.5,40.2-23.8c22-3.1,40.8,3.7,55.9,20
	c8.7,9.4,13.8,20.7,15.5,33.4c0.5,3.8,0.7,7.6,0.5,11.4c-0.1,1.8-0.6,2.3-2.5,2.3C282.2,105.1,266.2,105.1,250.2,105.1z M238.3,83.7
	c10.8,0,21.5,0,32.3,0c1.8,0,2.3-0.8,1.5-2.4c-2.2-4-4.9-7.6-8.3-10.6c-9-8.1-19.5-11-31.3-9.2c-12.4,1.9-21.4,9-27.7,19.7
	c-1,1.7-0.5,2.5,1.5,2.5C216.9,83.7,227.6,83.7,238.3,83.7z"/>
<path class="st0" d="M0,53.2C0,36.4,0,19.6,0,2.9c0-2.3,0.4-2.7,2.7-2.7c6.3,0,12.6,0,18.8,0c1.8,0,2.3,0.5,2.3,2.3
	c0,11.1,0,22.3,0,33.4c0,1,0.3,1.3,1.3,1.3c15.1,0,30.1,0,45.2,0c2.2,0,2.7,0.4,2.7,2.7c0,6.3,0,12.6,0,18.8c0,1.9-0.6,2.5-2.5,2.5
	c-15.1,0-30.2,0-45.3,0c-1,0-1.4,0.2-1.4,1.3c0,12.3,0,24.6,0,36.9c0,19.2,13.4,35.1,32.1,38.5c3.7,0.7,7.4,0.5,11.2,0.5
	c1.2,0,2.5,0,3.7,0c1.4,0,2.1,0.7,2.1,2c0,6.7,0,13.3,0,20c0,1.3-0.6,2-1.8,2c-5.2-0.1-10.5,0.2-15.7-0.4
	c-11.2-1.3-21.4-5.2-30.4-12.1C11.8,139.7,3.7,126.4,0.8,110c-0.6-3.3-0.8-6.7-0.8-10C0,84.4,0,68.8,0,53.2z"/>
<path class="st0" d="M136.2,81.1c0-26.1,0-52.2,0-78.2c0-2.4,0.3-2.7,2.8-2.7c6.3,0,12.6,0,18.8,0c1.7,0,2.3,0.6,2.3,2.3
	c0,52.5,0,105.1,0,157.6c0,1.7-0.6,2.3-2.3,2.3c-6.4,0-12.9,0-19.3,0c-1.8,0-2.3-0.5-2.3-2.3C136.2,133.7,136.2,107.4,136.2,81.1z"
	/>
<path class="st0" d="M116,99.8c0,20,0,40,0,60c0,2.1-0.5,2.5-2.5,2.5c-6.4,0-12.9,0-19.3,0c-1.6,0-2.2-0.6-2.2-2.2
	c0-40.2,0-80.5,0-120.7c0-1.6,0.6-2.2,2.2-2.2c6.5,0,12.9,0,19.4,0c1.8,0,2.3,0.5,2.3,2.3C116,59.5,116,79.7,116,99.8z"/>
<path class="st0" d="M104,27.5c-7.6,0-13.7-6.1-13.8-13.7C90.2,6.2,96.4,0,104.1,0c7.5,0,13.7,6.2,13.7,13.7
	C117.8,21.3,111.7,27.5,104,27.5z"/>
</svg>
