<svg width="811" height="657" xmlns="http://www.w3.org/2000/svg"><defs><linearGradient x1="45.816%" y1="0%" x2="45.816%" y2="100%" id="a"><stop stop-color="#727272" offset="0%"/><stop stop-color="#D2D7E0" offset="100%"/></linearGradient><linearGradient x1="50%" y1="100%" x2="50%" y2="0%" id="b"><stop stop-color="#373F4D" offset="0%"/><stop stop-color="#1E2430" offset="100%"/></linearGradient></defs><g fill="none" fill-rule="evenodd"><path d="M500.825 480.105l-12.788-8.679c-16.39 17.062-35.274 36.614-37.113 38.639-3.22 3.545-6.549 6.34-12.325 3.005l-21.922-12.657 21.936 13.009c2.383 1.375 3.167 4.518 1.744 6.984l-76.793 133.01c-1.424 2.465-4.538 3.357-6.921 1.981l.24.139c3.586 2.07 8.272.728 10.415-2.983l76.49-132.486c.045.024 19.001-11.841 56.868-35.597 1.604-1.004 1.694-3.33.17-4.365L378.368 692.993" fill-opacity=".77" fill="#394754"/><path d="M207.935 512.085c-2.75 0-4.998 2.331-4.998 5.18v153.642c0 2.848 2.249 5.178 4.998 5.178h255.92c2.748 0 4.997-2.33 4.997-5.178V517.264c0-2.848-2.25-5.179-4.998-5.179h-255.92z" fill="url(#a)" transform="rotate(30 447.614 466.15)"/><path d="M286.879 602.32c-.238.41-.757.559-1.154.33l-64.733-37.374c-.397-.23-.528-.753-.29-1.164l26.421-45.764c.238-.411.757-.56 1.154-.33l64.733 37.373c.397.23.528.753.29 1.164L286.88 602.32zm26.727-46.943l-65.896-38.045c-.397-.23-.916-.081-1.153.33l-27.009 46.78c-.237.411-.107.935.29 1.164l65.897 38.046c.397.229.916.08 1.153-.33l27.009-46.781c.237-.411.106-.935-.29-1.164z" fill="#999FA7"/><path d="M280.542 500.59h-11.926c-.458 0-.833-.388-.833-.863v-10.935c0-.475.375-.863.833-.863h11.926c.459 0 .834.388.834.863v10.935c0 .475-.375.863-.834.863" stroke="#202532" stroke-width=".5" fill="url(#b)" transform="rotate(30 386.3 366.324)"/><path d="M293.933 508.321h-11.926c-.459 0-.834-.388-.834-.863v-10.935c0-.475.375-.863.834-.863h11.926c.458 0 .833.388.833.863v10.935c0 .475-.375.863-.833.863" stroke="#202532" stroke-width=".5" fill="url(#b)" transform="rotate(30 399.69 374.055)"/><path d="M307.323 516.052h-11.926c-.459 0-.834-.388-.834-.863v-10.935c0-.475.375-.863.834-.863h11.926c.458 0 .834.388.834.863v10.935c0 .475-.376.863-.834.863" stroke="#202532" stroke-width=".5" fill="url(#b)" transform="rotate(30 413.08 381.786)"/><path d="M320.713 523.783h-11.926c-.458 0-.834-.388-.834-.863v-10.935c0-.475.376-.863.834-.863h11.926c.459 0 .834.388.834.863v10.935c0 .475-.375.863-.834.863" stroke="#202532" stroke-width=".5" fill="url(#b)" transform="rotate(30 426.47 389.517)"/><path d="M334.103 531.514h-11.925c-.459 0-.834-.389-.834-.863v-10.935c0-.475.375-.863.834-.863h11.925c.459 0 .834.388.834.863v10.935c0 .475-.375.863-.834.863" stroke="#202532" stroke-width=".5" fill="url(#b)" transform="rotate(30 439.86 397.248)"/><path d="M347.494 539.245h-11.926c-.459 0-.834-.389-.834-.863v-10.936c0-.474.375-.862.834-.862h11.926c.458 0 .833.388.833.862v10.936c0 .474-.375.863-.833.863" stroke="#202532" stroke-width=".5" fill="url(#b)" transform="rotate(30 453.25 404.979)"/><path d="M360.884 546.976h-11.926c-.458 0-.834-.389-.834-.863v-10.936c0-.474.376-.862.834-.862h11.926c.459 0 .834.388.834.862v10.936c0 .474-.375.863-.834.863" stroke="#202532" stroke-width=".5" fill="url(#b)" transform="rotate(30 466.64 412.71)"/><path d="M374.274 554.706h-11.926c-.458 0-.833-.388-.833-.862v-10.936c0-.474.375-.863.833-.863h11.926c.459 0 .834.389.834.863v10.936c0 .474-.375.862-.834.862" stroke="#202532" stroke-width=".5" fill="url(#b)" transform="rotate(30 480.031 420.44)"/><path d="M387.665 562.437h-11.926c-.459 0-.834-.388-.834-.863V550.64c0-.474.375-.863.834-.863h11.926c.458 0 .833.389.833.863v10.935c0 .475-.375.863-.833.863" stroke="#202532" stroke-width=".5" fill="url(#b)" transform="rotate(30 493.421 428.172)"/><path d="M401.055 570.168h-11.926c-.459 0-.834-.388-.834-.863V558.37c0-.475.375-.863.834-.863h11.926c.458 0 .834.388.834.863v10.935c0 .475-.376.863-.834.863" stroke="#202532" stroke-width=".5" fill="url(#b)" transform="rotate(30 506.812 435.902)"/><path d="M414.445 577.9H402.52c-.458 0-.833-.39-.833-.864v-10.935c0-.475.375-.863.833-.863h11.926c.459 0 .834.388.834.863v10.935c0 .475-.375.863-.834.863" stroke="#202532" stroke-width=".5" fill="url(#b)" transform="rotate(30 520.202 443.633)"/><path d="M441.226 593.36H429.3c-.459 0-.834-.387-.834-.862v-10.935c0-.475.375-.863.834-.863h11.926c.458 0 .833.388.833.863v10.935c0 .475-.375.863-.833.863" stroke="#202532" stroke-width=".5" fill="url(#b)" transform="rotate(30 546.983 459.095)"/><path d="M427.835 585.63H415.91c-.46 0-.834-.388-.834-.863v-10.935c0-.475.375-.863.834-.863h11.925c.459 0 .834.388.834.863v10.935c0 .475-.375.863-.834.863" stroke="#202532" stroke-width=".5" fill="url(#b)" transform="rotate(30 533.592 451.364)"/><path d="M461.211 602.859h-18.995c-.458 0-.833-.388-.833-.863v-10.935c0-.475.375-.863.833-.863h18.995c.459 0 .834.388.834.863v10.935c0 .475-.375.863-.834.863" stroke="#202532" stroke-width=".5" fill="url(#b)" transform="rotate(30 563.434 468.593)"/><path d="M466.774 590.2h-14.26c-.46 0-.835-.389-.835-.863v-3.62c0-.475.376-.863.834-.863h14.261c.459 0 .834.388.834.863v3.62c0 .474-.375.862-.834.862" stroke="#202532" stroke-width=".5" fill="url(#b)" transform="rotate(30 571.364 459.591)"/><path d="M450.577 580.848h-14.261c-.459 0-.834-.389-.834-.863v-3.62c0-.475.375-.863.834-.863h14.26c.46 0 .835.388.835.863v3.62c0 .474-.375.863-.834.863" stroke="#202532" stroke-width=".5" fill="url(#b)" transform="rotate(30 555.166 450.24)"/><path d="M434.38 571.496h-14.262c-.458 0-.834-.388-.834-.863v-3.62c0-.474.376-.863.834-.863h14.261c.459 0 .834.389.834.863v3.62c0 .475-.375.863-.834.863" stroke="#202532" stroke-width=".5" fill="url(#b)" transform="rotate(30 538.969 440.888)"/><path d="M418.182 562.144H403.92c-.459 0-.834-.388-.834-.862v-3.62c0-.475.375-.863.834-.863h14.26c.46 0 .835.388.835.863v3.62c0 .474-.376.862-.834.862" stroke="#202532" stroke-width=".5" fill="url(#b)" transform="rotate(30 522.771 431.536)"/><path d="M401.984 552.793h-14.26c-.46 0-.835-.388-.835-.863v-3.62c0-.475.376-.863.834-.863h14.261c.459 0 .834.388.834.863v3.62c0 .475-.375.863-.834.863" stroke="#202532" stroke-width=".5" fill="url(#b)" transform="rotate(30 506.574 422.185)"/><path d="M385.787 543.441h-14.261c-.459 0-.834-.388-.834-.863v-3.62c0-.474.375-.862.834-.862h14.26c.46 0 .835.388.835.862v3.62c0 .475-.376.863-.834.863" stroke="#202532" stroke-width=".5" fill="url(#b)" transform="rotate(30 490.376 412.833)"/><path d="M369.59 534.09h-14.262c-.459 0-.834-.389-.834-.863v-3.62c0-.475.375-.863.834-.863h14.261c.459 0 .834.388.834.863v3.62c0 .474-.375.862-.834.862" stroke="#202532" stroke-width=".5" fill="url(#b)" transform="rotate(30 474.178 403.481)"/><path d="M353.392 524.738H339.13c-.458 0-.833-.388-.833-.863v-3.62c0-.474.375-.863.833-.863h14.262c.458 0 .833.389.833.863v3.62c0 .475-.375.863-.833.863" stroke="#202532" stroke-width=".5" fill="url(#b)" transform="rotate(30 457.98 394.13)"/><path d="M337.194 515.386h-14.261c-.459 0-.834-.388-.834-.863v-3.62c0-.474.375-.862.834-.862h14.261c.459 0 .834.388.834.862v3.62c0 .475-.375.863-.834.863" stroke="#202532" stroke-width=".5" fill="url(#b)" transform="rotate(30 441.783 384.778)"/><path d="M320.997 506.035h-14.262c-.458 0-.833-.389-.833-.863v-3.62c0-.475.375-.863.833-.863h14.262c.458 0 .833.388.833.863v3.62c0 .474-.375.863-.833.863" stroke="#202532" stroke-width=".5" fill="url(#b)" transform="rotate(30 425.586 375.426)"/><path d="M304.8 496.683h-14.262c-.459 0-.834-.388-.834-.863v-3.62c0-.474.375-.863.834-.863h14.261c.459 0 .834.389.834.863v3.62c0 .475-.375.863-.834.863" stroke="#202532" stroke-width=".5" fill="url(#b)" transform="rotate(30 409.388 366.075)"/><path d="M288.602 487.331H274.34c-.458 0-.833-.388-.833-.863v-3.62c0-.474.375-.862.833-.862h14.262c.458 0 .833.388.833.862v3.62c0 .475-.375.863-.833.863" stroke="#202532" stroke-width=".5" fill="url(#b)" transform="rotate(30 393.19 356.723)"/><path d="M249.705 554.001H237.78c-.459 0-.834-.388-.834-.863v-10.935c0-.475.375-.863.834-.863h11.925c.459 0 .834.388.834.863v10.935c0 .475-.375.863-.834.863" stroke="#202532" stroke-width=".5" fill="url(#b)" transform="rotate(30 355.462 419.735)"/><path d="M263.208 561.797h-11.926c-.459 0-.834-.389-.834-.863v-10.935c0-.475.375-.863.834-.863h11.926c.458 0 .834.388.834.863v10.935c0 .474-.376.863-.834.863" stroke="#202532" stroke-width=".5" fill="url(#b)" transform="rotate(30 368.965 427.531)"/><path d="M276.71 569.592h-11.926c-.459 0-.834-.388-.834-.863v-10.935c0-.475.375-.863.834-.863h11.926c.459 0 .834.388.834.863v10.935c0 .475-.375.863-.834.863" stroke="#202532" stroke-width=".5" fill="url(#b)" transform="rotate(30 382.467 435.327)"/><path d="M389.394 634.65h-11.926c-.459 0-.834-.388-.834-.863v-10.935c0-.475.375-.863.834-.863h11.926c.459 0 .834.388.834.863v10.935c0 .475-.375.863-.834.863" stroke="#202532" stroke-width=".5" fill="url(#b)" transform="rotate(30 495.15 500.385)"/><path d="M402.896 642.446H390.97c-.459 0-.833-.389-.833-.863v-10.935c0-.475.374-.863.833-.863h11.926c.459 0 .834.388.834.863v10.935c0 .474-.375.863-.834.863" stroke="#202532" stroke-width=".5" fill="url(#b)" transform="rotate(30 508.653 508.18)"/><path d="M416.398 650.241h-11.925c-.459 0-.834-.388-.834-.862v-10.936c0-.475.375-.863.834-.863h11.925c.46 0 .834.388.834.863v10.936c0 .474-.375.862-.834.862" stroke="#202532" stroke-width=".5" fill="url(#b)" transform="rotate(30 522.155 515.976)"/><path d="M429.9 658.037h-11.925c-.459 0-.834-.389-.834-.863V646.24c0-.475.375-.863.834-.863H429.9c.458 0 .834.388.834.863v10.935c0 .474-.376.863-.834.863" stroke="#202532" stroke-width=".5" fill="url(#b)" transform="rotate(30 535.658 523.771)"/><path d="M293.133 578.17h-15.056c-.459 0-.834-.388-.834-.863v-10.935c0-.475.375-.863.834-.863h15.056c.458 0 .833.388.833.863v10.935c0 .475-.375.863-.833.863" stroke="#202532" stroke-width=".5" fill="url(#b)" transform="rotate(30 397.325 443.905)"/><path d="M381.43 606.846h-92.316c-.458 0-.833-.389-.833-.863v-10.935c0-.475.375-.863.833-.863h92.316c.459 0 .834.388.834.863v10.935c0 .474-.375.863-.834.863" stroke="#202532" stroke-width=".5" fill="url(#b)" transform="rotate(30 446.992 472.58)"/><path d="M441.102 605.318h11.927c.458 0 .833.388.833.863v10.935c0 .474-.375.863-.833.863h-11.927c-.458 0-.833-.389-.833-.863V606.18c0-.475.375-.863.833-.863" stroke="#202532" stroke-width=".5" fill="url(#b)" transform="rotate(30 558.785 483.713)"/><path d="M427.712 597.587h11.926c.459 0 .834.388.834.863v10.935c0 .475-.375.863-.834.863h-11.926c-.458 0-.834-.388-.834-.863V598.45c0-.475.376-.863.834-.863" stroke="#202532" stroke-width=".5" fill="url(#b)" transform="rotate(30 545.395 475.982)"/><path d="M414.322 589.856h11.926c.459 0 .834.388.834.863v10.935c0 .475-.375.863-.834.863h-11.926c-.459 0-.834-.388-.834-.863V590.72c0-.475.375-.863.834-.863" stroke="#202532" stroke-width=".5" fill="url(#b)" transform="rotate(30 532.005 468.251)"/><path d="M400.932 582.125h11.926c.458 0 .834.388.834.863v10.935c0 .475-.376.863-.834.863h-11.926c-.459 0-.834-.388-.834-.863v-10.935c0-.475.375-.863.834-.863" stroke="#202532" stroke-width=".5" fill="url(#b)" transform="rotate(30 518.615 460.52)"/><path d="M387.541 574.394h11.926c.459 0 .834.388.834.863v10.935c0 .475-.375.863-.834.863h-11.926c-.458 0-.833-.388-.833-.863v-10.935c0-.475.375-.863.833-.863" stroke="#202532" stroke-width=".5" fill="url(#b)" transform="rotate(30 505.224 452.79)"/><path d="M374.151 566.663h11.926c.459 0 .834.389.834.863v10.935c0 .475-.375.863-.834.863h-11.926c-.458 0-.834-.388-.834-.863v-10.935c0-.474.376-.863.834-.863" stroke="#202532" stroke-width=".5" fill="url(#b)" transform="rotate(30 491.834 445.059)"/><path d="M360.76 558.932h11.927c.458 0 .833.389.833.863v10.936c0 .474-.375.862-.833.862H360.76c-.459 0-.834-.388-.834-.862v-10.936c0-.474.375-.863.834-.863" stroke="#202532" stroke-width=".5" fill="url(#b)" transform="rotate(30 478.444 437.328)"/><path d="M347.37 551.201h11.926c.459 0 .834.389.834.863V563c0 .474-.375.863-.834.863H347.37c-.458 0-.833-.389-.833-.863v-10.936c0-.474.375-.863.833-.863" stroke="#202532" stroke-width=".5" fill="url(#b)" transform="rotate(30 465.053 429.597)"/><path d="M333.98 543.47h11.926c.459 0 .834.389.834.863v10.936c0 .474-.375.863-.834.863H333.98c-.458 0-.834-.389-.834-.863v-10.936c0-.474.376-.862.834-.862" stroke="#202532" stroke-width=".5" fill="url(#b)" transform="rotate(30 451.663 421.866)"/><path d="M320.59 535.74h11.926c.458 0 .834.388.834.863v10.935c0 .474-.376.863-.834.863H320.59c-.459 0-.834-.389-.834-.863v-10.935c0-.475.375-.863.834-.863" stroke="#202532" stroke-width=".5" fill="url(#b)" transform="rotate(30 438.273 414.135)"/><path d="M307.2 528.009h11.926c.458 0 .833.388.833.863v10.935c0 .475-.375.863-.833.863H307.2c-.459 0-.834-.388-.834-.863v-10.935c0-.475.375-.863.834-.863" stroke="#202532" stroke-width=".5" fill="url(#b)" transform="rotate(30 424.882 406.404)"/><path d="M280.42 512.547h11.925c.459 0 .834.388.834.863v10.935c0 .475-.375.863-.834.863h-11.926c-.458 0-.834-.388-.834-.863V513.41c0-.475.376-.863.834-.863" stroke="#202532" stroke-width=".5" fill="url(#b)" transform="rotate(30 398.102 390.942)"/><path d="M293.81 520.278h11.925c.459 0 .834.388.834.863v10.935c0 .475-.375.863-.834.863H293.81c-.458 0-.833-.388-.833-.863v-10.935c0-.475.375-.863.833-.863" stroke="#202532" stroke-width=".5" fill="url(#b)" transform="rotate(30 411.492 398.673)"/><path d="M260.434 503.049h18.994c.459 0 .834.388.834.863v10.935c0 .475-.375.863-.834.863h-18.994c-.459 0-.834-.388-.834-.863v-10.935c0-.475.375-.863.834-.863" stroke="#202532" stroke-width=".5" fill="url(#b)" transform="rotate(30 381.65 381.444)"/><path d="M395.892 597.02h11.926c.458 0 .834.387.834.862v10.935c0 .475-.376.863-.834.863h-11.926c-.459 0-.834-.388-.834-.863v-10.935c0-.475.375-.863.834-.863" stroke="#202532" stroke-width=".5" fill="url(#b)" transform="rotate(30 513.575 475.414)"/><path d="M409.227 604.718h11.926c.459 0 .834.388.834.863v10.935c0 .475-.375.863-.834.863h-11.926c-.458 0-.834-.388-.834-.863v-10.935c0-.475.376-.863.834-.863" stroke="#202532" stroke-width=".5" fill="url(#b)" transform="rotate(30 526.91 483.113)"/><path d="M382.556 589.32h11.926c.459 0 .834.388.834.863v10.935c0 .475-.375.863-.834.863h-11.926c-.458 0-.833-.388-.833-.863v-10.935c0-.475.375-.863.833-.863" stroke="#202532" stroke-width=".5" fill="url(#b)" transform="rotate(30 500.24 467.715)"/><path d="M369.22 581.62h11.927c.458 0 .834.389.834.863v10.936c0 .474-.376.863-.834.863H369.22c-.459 0-.834-.389-.834-.863v-10.936c0-.474.375-.862.834-.862" stroke="#202532" stroke-width=".5" fill="url(#b)" transform="rotate(30 486.904 460.016)"/><path d="M355.885 573.921h11.926c.46 0 .834.389.834.863v10.936c0 .474-.375.862-.834.862h-11.926c-.458 0-.833-.388-.833-.862v-10.936c0-.474.375-.863.833-.863" stroke="#202532" stroke-width=".5" fill="url(#b)" transform="rotate(30 473.568 452.317)"/><path d="M342.55 566.222h11.926c.459 0 .834.388.834.863v10.935c0 .475-.375.863-.834.863H342.55c-.459 0-.834-.388-.834-.863v-10.935c0-.475.375-.863.834-.863" stroke="#202532" stroke-width=".5" fill="url(#b)" transform="rotate(30 460.233 444.617)"/><path d="M329.214 558.523h11.927c.458 0 .833.388.833.863v10.935c0 .475-.375.863-.833.863h-11.927c-.458 0-.833-.388-.833-.863v-10.935c0-.475.375-.863.833-.863" stroke="#202532" stroke-width=".5" fill="url(#b)" transform="rotate(30 446.897 436.918)"/><path d="M315.88 550.824h11.925c.459 0 .834.388.834.862v10.936c0 .474-.375.863-.834.863h-11.926c-.458 0-.834-.389-.834-.863v-10.936c0-.474.376-.862.834-.862" stroke="#202532" stroke-width=".5" fill="url(#b)" transform="rotate(30 433.562 429.219)"/><path d="M302.544 543.124h11.926c.458 0 .833.389.833.863v10.936c0 .474-.375.862-.833.862h-11.926c-.459 0-.834-.388-.834-.862v-10.936c0-.474.375-.863.834-.863" stroke="#202532" stroke-width=".5" fill="url(#b)" transform="rotate(30 420.226 421.52)"/><path d="M289.208 535.425h11.926c.459 0 .834.389.834.863v10.935c0 .475-.375.863-.834.863h-11.926c-.458 0-.834-.388-.834-.863v-10.935c0-.474.376-.863.834-.863" stroke="#202532" stroke-width=".5" fill="url(#b)" transform="rotate(30 406.891 413.82)"/><path d="M275.873 527.726h11.926c.458 0 .834.388.834.863v10.935c0 .475-.376.863-.834.863h-11.926c-.459 0-.834-.388-.834-.863V528.59c0-.475.375-.863.834-.863" stroke="#202532" stroke-width=".5" fill="url(#b)" transform="rotate(30 393.556 406.121)"/><path d="M252.475 517.33h22.71c.46 0 .834.389.834.864v10.935c0 .474-.375.863-.833.863h-22.71c-.46 0-.834-.389-.834-.863v-10.935c0-.475.375-.863.833-.863" stroke="#202532" stroke-width=".5" fill="url(#b)" transform="rotate(30 375.55 395.726)"/><path d="M421.725 615.544h24.432c.459 0 .834.388.834.863v10.935c0 .475-.375.863-.834.863h-24.432c-.459 0-.834-.388-.834-.863v-10.935c0-.475.375-.863.834-.863" stroke="#202532" stroke-width=".5" fill="url(#b)" transform="rotate(30 545.66 493.94)"/><path d="M383.19 607.485h11.919c.458 0 .833.388.833.863v10.935c0 .475-.375.863-.833.863h-11.927c-.458 0-.833-.388-.833-.863v-10.927c0-.48.378-.871.841-.871" stroke="#202532" stroke-width=".5" fill="url(#b)" transform="rotate(30 500.865 485.88)"/><path d="M396.789 615.336h11.918c.459 0 .834.389.834.863v10.935c0 .475-.375.863-.834.863h-11.926c-.458 0-.834-.388-.834-.863v-10.927c0-.48.38-.871.842-.871" stroke="#202532" stroke-width=".5" fill="url(#b)" transform="rotate(30 514.464 493.731)"/><path d="M369.584 599.633h11.925c.46 0 .834.389.834.863v10.936c0 .474-.375.862-.834.862h-11.925c-.459 0-.834-.388-.834-.862v-10.936c0-.474.375-.863.834-.863" stroke="#202532" stroke-width=".5" fill="url(#b)" transform="rotate(30 487.266 478.029)"/><path d="M355.9 591.782h12.01c.46 0 .834.389.834.863v10.935c0 .475-.375.863-.833.863h-11.926c-.459 0-.834-.388-.834-.863v-11.023c0-.426.337-.775.749-.775" stroke="#202532" stroke-width=".5" fill="url(#b)" transform="rotate(30 473.668 470.177)"/><path d="M342.394 583.93h11.918c.459 0 .834.39.834.864v10.935c0 .475-.375.863-.834.863h-11.926c-.459 0-.834-.388-.834-.863v-10.927c0-.48.379-.871.842-.871" stroke="#202532" stroke-width=".5" fill="url(#b)" transform="rotate(30 460.069 462.326)"/><path d="M328.795 576.08h11.918c.459 0 .834.388.834.862v10.936c0 .475-.375.863-.834.863h-11.926c-.459 0-.834-.388-.834-.863V576.95c0-.479.379-.87.842-.87" stroke="#202532" stroke-width=".5" fill="url(#b)" transform="rotate(30 446.47 454.475)"/><path d="M315.196 568.228h11.918c.459 0 .834.389.834.863v10.935c0 .475-.375.863-.834.863h-11.926c-.458 0-.834-.388-.834-.863V569.1c0-.48.38-.87.842-.87" stroke="#202532" stroke-width=".5" fill="url(#b)" transform="rotate(30 432.871 446.623)"/><path d="M301.59 560.377h11.925c.459 0 .834.388.834.863v10.935c0 .475-.375.863-.834.863H301.59c-.458 0-.833-.388-.833-.863V561.24c0-.475.375-.863.833-.863" stroke="#202532" stroke-width=".5" fill="url(#b)" transform="rotate(30 419.272 438.772)"/><path d="M287.998 552.526h11.919c.458 0 .833.388.833.862v10.936c0 .475-.375.863-.833.863H287.99c-.458 0-.833-.388-.833-.863v-10.928c0-.479.378-.87.841-.87" stroke="#202532" stroke-width=".5" fill="url(#b)" transform="rotate(30 405.673 430.92)"/><path d="M274.392 544.674h11.926c.458 0 .834.389.834.863v10.936c0 .474-.376.862-.834.862h-11.926c-.459 0-.834-.388-.834-.862v-10.936c0-.474.375-.863.834-.863" stroke="#202532" stroke-width=".5" fill="url(#b)" transform="rotate(30 392.075 423.07)"/><path d="M244.313 532.405h29.59c.458 0 .833.389.833.863v10.935c0 .475-.375.863-.833.863h-29.598c-.459 0-.834-.388-.834-.863v-10.927c0-.48.379-.87.842-.87" stroke="#202532" stroke-width=".5" fill="url(#b)" transform="rotate(30 370.824 410.8)"/><path d="M409.204 627.605h29.59c.459 0 .834.389.834.863v10.935c0 .475-.375.863-.834.863h-29.598c-.458 0-.834-.388-.834-.863v-10.927c0-.48.38-.87.842-.87" stroke="#202532" stroke-width=".5" fill="url(#b)" transform="rotate(30 535.715 506)"/><path fill="#1E2430" d="M237.81 400.962L416.156 503.93l2.013-3.487-178.345-102.968z"/><path d="M507.527 431.4L256.73 286.603c-6.258-3.613-13.055-7.222-16.543 4.197-4.929 16.13-22.515 77.755-23.82 81.83-1.46 4.562-2.216 8.842 3.56 12.177L440.88 512.374c5.776 3.335 9.106.54 12.325-3.005 2.877-3.168 47.452-49.21 58.958-61.544 8.144-8.73 1.62-12.812-4.637-16.425" fill="#D7D7D7"/><path d="M506.376 433.393L255.58 288.596c-6.257-3.613-13.054-7.223-16.543 4.196-4.928 16.132-22.514 77.756-23.82 81.83-1.46 4.562-2.216 8.843 3.56 12.178l20.686 11.942-1.662 2.879 178.346 102.967 1.661-2.878 21.922 12.657c5.777 3.335 9.106.54 12.326-3.006 2.876-3.167 47.452-49.21 58.957-61.543 8.145-8.731 1.621-12.812-4.637-16.425" fill="#0C0C0D"/><path d="M243.274 299.952c-4.423 14.586-20.33 67.222-21.503 70.906-1.312 4.124-4.131 9.458 1.136 12.499L438.7 507.945c5.267 3.041 9.55-.642 12.465-3.84 2.605-2.858 39.281-43.502 49.702-54.626 7.376-7.874.733-11.994-4.973-15.288L257.461 296.53c-.452-.26-.902-.524-1.349-.782-5.19-2.997-9.955-5.305-12.838 4.203" fill="#F7F8FB"/><path d="M389.517 140.907c-3.397-1.642-5.323-5.081-4.535-8.097l22.594-86.412c.978-3.74 5.657-5.277 9.87-3.24l175.701 84.921c4.26 2.059 6.008 6.78 3.666 9.896l-53.679 71.388c-1.844 2.454-5.647 3.062-9 1.442l-144.617-69.898z" fill-opacity=".3" fill="#FFF"/><path d="M347.924 194.86c-3.944-1.817-6.108-5.775-5.094-9.317l29.042-101.49c1.257-4.394 6.8-6.32 11.691-4.066l204.008 94.03c4.946 2.279 6.864 7.738 4.022 11.442l-65.135 84.854c-2.238 2.916-6.724 3.736-10.618 1.942L347.924 194.86z" fill-opacity=".5" fill="#FFF"/><path d="M613.016 217.269c-2.435-2.882-2.796-6.807-.849-9.242l55.788-69.751c2.415-3.02 7.314-2.52 10.334 1.054l125.97 149.044c3.054 3.613 2.731 8.638-.676 10.531l-78.074 43.384c-2.683 1.49-6.404.5-8.809-2.345L613.016 217.27z" fill-opacity=".3" fill="#FFF"/><path d="M576.137 300.349c-2.864-3.265-3.23-7.761-.864-10.585l67.81-80.903c2.936-3.502 8.783-3.009 12.335 1.04L803.544 378.78c3.59 4.094 3.122 9.862-.98 12.09l-94.018 51.025c-3.23 1.754-7.662.678-10.49-2.545l-121.92-139z" fill-opacity=".5" fill="#FFF"/><path d="M139.513 101.031c-3.77-.118-6.93-2.477-7.436-5.552L117.571 7.347c-.628-3.815 3.021-7.12 7.698-6.974l195.052 6.116c4.728.148 8.247 3.75 7.374 7.55l-20.002 87.049c-.687 2.99-3.913 5.094-7.636 4.977l-160.544-5.034z" fill-opacity=".3" fill="#FFF"/><path d="M56.576 184.03c-4.342-.057-7.929-2.793-8.444-6.44L33.384 73.06c-.638-4.524 3.64-8.539 9.027-8.469l224.615 2.923c5.445.07 9.419 4.278 8.328 8.817l-24.99 104.012c-.859 3.574-4.623 6.148-8.91 6.092l-184.878-2.406z" fill-opacity=".5" fill="#FFF"/><path d="M503.78 351.007l-207.97-96.978c-4.884-2.278-7.61-7.274-6.417-11.762l34.188-128.6c1.48-5.567 8.275-8.038 14.333-5.213l252.672 117.823c6.125 2.856 8.573 9.754 5.13 14.457l-78.89 107.756c-2.712 3.702-8.223 4.766-13.046 2.517" fill="#FFF"/><path fill="#C7CBD1" d="M333.425 125.16l188.229 88.174-5.778 10.572-185.568-85.305zM328.024 146.948l93.564 44.198-4.015 11.394-93.17-42.387zM425.121 192.649l64.153 30.526-5.022 10.924-63.312-29.937z"/><path fill="#27B340" d="M317.15 188.693l93.563 44.198-4.014 11.394-92.666-42.152z"/><path fill="#C7CBD1" d="M413.995 234.276l64.405 30.643-5.526 10.69-62.808-29.703zM322.452 167.728l64.405 30.643-4.014 11.394-63.558-29.715z"/><path fill="#27B340" d="M311.945 209.14l64.405 30.643-4.015 11.394-63.557-29.715z"/><path d="M678.532 552.027L531.831 373.652c-3.446-4.19-3.842-9.954-.933-13.568l83.35-103.564c3.607-4.483 10.711-3.84 14.985 1.357l178.234 216.716c4.32 5.254 3.688 12.645-1.326 15.492l-114.882 65.223c-3.948 2.242-9.325.855-12.727-3.281" fill="#FFF"/><path fill="#27B340" d="M618.362 271.31l132.612 161.813-9.513 7.24L610.06 282.33z"/><path fill="#C7CBD1" d="M604.592 289.024l65.766 80.772-8.268 8.753-66.156-78.938zM672.91 372.694l45.003 55.585-8.979 7.889-44.49-54.684zM577.736 322.738l65.766 80.772-8.268 8.753-65.8-78.506zM645.877 406.191l45.18 55.802-9.334 7.457-44.135-54.252zM591.08 305.738l45.182 55.802-8.269 8.753-44.8-54.585zM564.69 339.303l45.182 55.802-8.269 8.753-44.8-54.585z"/><path d="M260.45 245.883L29.658 242.88c-5.421-.07-9.899-3.486-10.541-8.04L.705 104.352c-.796-5.649 4.545-10.66 11.269-10.573l280.4 3.648c6.797.089 11.758 5.34 10.396 11.007l-31.196 129.844c-1.072 4.461-5.772 7.674-11.124 7.605" fill="#FFF"/><path fill="#C7CBD1" d="M14.321 110.75l209.042 3.081-1.24 11.938-205.455-1.567z"/><path fill="#27B340" d="M17.804 132.697l104.053 1.867.716 11.964-102.981-.386zM125.721 134.484l71.432 1.48-.402 11.948-70.422-1.29z"/><path fill="#C7CBD1" d="M23.988 174.964l104.052 1.867.717 11.963-102.422-.378zM131.626 176.746l71.71 1.484-.96 11.941-69.862-1.282z"/><path fill="#27B340" d="M20.734 153.802l71.711 1.484.717 11.963-70.562-.988z"/><path fill="#C7CBD1" d="M27.129 195.617l71.711 1.484.717 11.963-70.563-.988z"/><path d="M458.256 444.02l-46.627-14.856a3.07 3.07 0 0 0-1.665-3.013 3.067 3.067 0 0 0-3.982 1.081l-45.639-16.708a3.07 3.07 0 0 0-1.65-3.143 3.068 3.068 0 0 0-3.969 1.06l-45.459-17.047a3.07 3.07 0 0 0-1.646-3.166 3.068 3.068 0 0 0-3.972 1.063l-45.484-16.999a3.07 3.07 0 0 0-1.648-3.163 3.066 3.066 0 0 0-4.126 1.333 3.066 3.066 0 0 0 1.347 4.121 3.068 3.068 0 0 0 3.972-1.063l45.484 17a3.07 3.07 0 0 0 1.647 3.162 3.068 3.068 0 0 0 3.97-1.06l45.458 17.047a3.069 3.069 0 0 0 1.647 3.166 3.067 3.067 0 0 0 3.982-1.08l45.639 16.708a3.07 3.07 0 0 0 5.696 1.949l46.626 14.855a3.07 3.07 0 0 0 1.665 3.013 3.066 3.066 0 0 0 4.126-1.333 3.066 3.066 0 0 0-1.347-4.121 3.064 3.064 0 0 0-4.045 1.193z" fill="#EC2279"/><path d="M311.232 284.42l-.296.634-1.387-.647-2.324 4.985 1.387.646-.292.626-3.57-1.665.29-.626 1.387.647 2.325-4.985-1.387-.646.296-.635 3.57 1.665zm-1.072 7.102l2.227-4.776.653.304-.25.7a2.288 2.288 0 0 1 1.936-.035c.934.435 1.097 1.151.682 2.04l-1.614 3.461-.761-.355 1.352-2.9c.457-.979.539-1.415-.177-1.749-.562-.262-1.237-.069-1.668.194l-1.619 3.47-.761-.354zm9.35 4.062c-.438.06-.995-.045-1.448-.256-1.025-.478-1.326-1.346-.937-2.18l1.327-2.846-1.096-.511.278-.599 1.097.512.503-1.079.804.265-.546 1.169 1.659.773-.379.552-1.559-.727-1.322 2.837c-.245.525-.114.929.539 1.233.353.165.704.218 1.021.2l.058.657zm3.122-.828c-.48 1.122-.087 1.89.647 2.232.49.228.92.252 1.476.17l.117.672c-.605.138-1.3.067-1.89-.207-1.395-.651-1.718-2.016-1.025-3.502.672-1.441 1.968-2.116 3.237-1.525 1.206.562 1.53 1.806.854 3.256a5.097 5.097 0 0 1-.208.4l-3.208-1.496zm2.28-1.53c-.707-.33-1.456-.072-2.01.95l2.483 1.158c.46-1.033.252-1.77-.473-2.108zm7.909 2.441l-.107.822c-.458-.06-.925-.266-1.46-.515.444.516.526 1.05.272 1.594-.44.943-1.418 1.314-2.55.786-.318-.148-.496-.264-.67-.434-.187.045-.38.176-.46.348-.106.227-.046.476.444.704l.86.401c.962.448 1.429 1.34 1.082 2.082-.435.934-1.5 1.066-2.95.39-1.523-.71-1.793-1.41-1.34-2.38l.688.322c-.262.562-.13.943.939 1.441 1.042.486 1.63.43 1.872-.086.211-.454-.146-.896-.753-1.179l-.852-.397c-.833-.389-1.006-.988-.782-1.469.139-.299.464-.522.914-.588-.413-.535-.472-1.07-.185-1.686.452-.97 1.544-1.3 2.677-.771 1.196.558 1.69.589 2.361.615zm-2.632-.058c-.77-.359-1.326-.066-1.626.577-.305.653-.167 1.28.613 1.643.68.317 1.236.07 1.566-.638.334-.716.154-1.252-.553-1.582zm7.222 2.684c.263.123.441.261.624.413l-.865 1.571-.616-.287.477-1.024-.045-.021c-.734-.343-1.505-.062-2.303.845l-.938 2.012.97.453-.275.589-2.484-1.158.275-.59.752.351 1.678-3.598-.752-.35.275-.59 1.323.618-.383 1.2c.726-.61 1.426-.835 2.287-.434zm3.85 6.463c-.178.38-.127.58.106.788l-.443.456c-.383-.245-.63-.592-.554-1.086-.551.284-1.191.26-1.808-.027-.96-.448-1.27-1.298-.856-2.186.457-.979 1.503-1.164 2.944-.492l.707.33.182-.39c.325-.698.017-1.15-.69-1.48-.317-.148-.786-.278-1.355-.335l.062-.677c.686.067 1.236.213 1.707.432 1.187.554 1.507 1.431 1.067 2.374l-1.07 2.293zm-2.242-.35c.471.219 1.043.177 1.522-.118l.57-1.224-.688-.321c-1.051-.49-1.61-.287-1.897.33-.279.597-.133 1.04.493 1.332zm7.68 3.856c-.437.061-.995-.044-1.448-.256-1.024-.477-1.325-1.346-.937-2.18l1.327-2.845-1.096-.512.279-.598 1.096.511.503-1.078.804.264-.545 1.17 1.658.773-.378.551-1.56-.726-1.322 2.836c-.245.526-.113.93.54 1.234.353.165.703.218 1.02.2l.058.656zm6.605-5.15c.335.156.456.488.313.796-.144.308-.476.429-.812.273-.326-.153-.438-.48-.294-.789.144-.308.467-.433.793-.28zm-.432 2.512l-1.944 4.169 1.341.625-.283.608-3.571-1.666.283-.607 1.468.685 1.661-3.562-1.423-.663.284-.608 2.184 1.019zm4.886 2.157c1.341.625 1.592 1.934.89 3.438-.684 1.469-1.887 2.155-3.22 1.533-1.34-.625-1.6-1.938-.899-3.442.685-1.468 1.888-2.155 3.229-1.529zm-.292.625c-.824-.384-1.52.02-2.112 1.288-.592 1.27-.458 2.048.366 2.433.825.385 1.508-.014 2.103-1.292.588-1.26.459-2.048-.357-2.429zm1.634 5.937l2.228-4.776.652.304-.25.7a2.288 2.288 0 0 1 1.937-.035c.934.436 1.096 1.152.682 2.04l-1.614 3.462-.762-.355 1.353-2.9c.456-.98.538-1.415-.178-1.75-.562-.261-1.236-.068-1.668.194l-1.618 3.471-.762-.355zm7.315 2.77c.734.343 1.317.251 1.533-.211.199-.426.168-.716-.728-1.443-.874-.705-1.378-1.305-.99-2.138.372-.798 1.343-.963 2.422-.46.77.36 1.222.857 1.495 1.337l-.59.365c-.24-.41-.558-.79-1.175-1.077-.76-.355-1.155-.22-1.324.143-.203.435.028.72.866 1.43.816.69 1.28 1.303.866 2.191-.478 1.024-1.652.963-2.667.49-.87-.406-1.324-.971-1.567-1.515l.659-.3c.227.482.638.927 1.2 1.189z" fill="#999FA7"/><path stroke="#999FA7" d="M301.818 279.94l-3.094 6.636 2.452 6.737 68.764 31.707 7.019-15.052-68.101-31.397zM534.288 402.653l-5.69 4.608-.75 7.13 11.526 15.578 12.906-10.451-11.065-15.01z"/><path d="M540.677 412.432l-3.672 2.869c-1.103.862-2.398.731-3.254-.364-.874-1.119-.649-2.374.447-3.23l3.672-2.868.535.685-3.695 2.888c-.828.646-.916 1.362-.368 2.063.554.71 1.27.797 2.098.151l3.695-2.887.542.693zm3.503 4.484l-.551.43-.942-1.205-4.334 3.386.942 1.206-.544.425-2.426-3.105.544-.425.942 1.206 4.334-3.386-.942-1.206.552-.431 2.425 3.105zM46.28 263.11v4.66c0 1.4-.9 2.34-2.29 2.34-1.42 0-2.27-.95-2.27-2.34v-4.66h.87v4.69c0 1.05.51 1.56 1.4 1.56.9 0 1.41-.51 1.41-1.56v-4.69h.88zM48 270v-5.27h.72l.07.74c.42-.54 1.12-.85 1.74-.85 1.03 0 1.48.58 1.48 1.56V270h-.84v-3.2c0-1.08-.11-1.51-.9-1.51-.62 0-1.15.46-1.43.88V270H48zm8-7.73c.37 0 .62.25.62.59 0 .34-.25.59-.62.59-.36 0-.6-.25-.6-.59 0-.34.24-.59.6-.59zm.67 2.46v4.6h1.48v.67h-3.94v-.67h1.62v-3.93h-1.57v-.67h2.41zm7.52 5c-.37.24-.92.38-1.42.38-1.13 0-1.77-.66-1.77-1.58v-3.14h-1.21v-.66H61v-1.19l.84-.1v1.29h1.83l-.11.66h-1.72v3.13c0 .58.29.89 1.01.89.39 0 .73-.1 1.01-.25l.33.57zm12 0c-.37.24-.92.38-1.42.38-1.13 0-1.77-.66-1.77-1.58v-3.14h-1.21v-.66H73v-1.19l.84-.1v1.29h1.83l-.11.66h-1.72v3.13c0 .58.29.89 1.01.89.39 0 .73-.1 1.01-.25l.33.57zm2.48-2.07c.04 1.22.72 1.75 1.53 1.75.54 0 .94-.16 1.41-.47l.39.56c-.49.38-1.15.61-1.8.61-1.54 0-2.41-1.1-2.41-2.74 0-1.59.89-2.75 2.29-2.75 1.33 0 2.15.99 2.15 2.59 0 .18-.01.34-.02.45h-3.54zm1.42-2.35c-.78 0-1.35.55-1.42 1.71h2.74c-.02-1.13-.52-1.71-1.32-1.71zm5.71 4.11c.81 0 1.3-.33 1.3-.84 0-.47-.15-.72-1.27-1-1.09-.27-1.8-.6-1.8-1.52 0-.88.81-1.44 2-1.44.85 0 1.47.26 1.92.58l-.38.58c-.39-.27-.84-.48-1.52-.48-.84 0-1.14.29-1.14.69 0 .48.33.64 1.39.93 1.03.28 1.71.64 1.71 1.62 0 1.13-1.09 1.57-2.21 1.57-.96 0-1.61-.32-2.06-.71l.47-.55c.41.34.97.57 1.59.57zm8.39.31c-.37.24-.92.38-1.42.38-1.13 0-1.77-.66-1.77-1.58v-3.14h-1.21v-.66H91v-1.19l.84-.1v1.29h1.83l-.11.66h-1.72v3.13c0 .58.29.89 1.01.89.39 0 .73-.1 1.01-.25l.33.57zm3.61-.31c.81 0 1.3-.33 1.3-.84 0-.47-.15-.72-1.27-1-1.09-.27-1.8-.6-1.8-1.52 0-.88.81-1.44 2-1.44.85 0 1.47.26 1.92.58l-.38.58c-.39-.27-.84-.48-1.52-.48-.84 0-1.14.29-1.14.69 0 .48.33.64 1.39.93 1.03.28 1.71.64 1.71 1.62 0 1.13-1.09 1.57-2.21 1.57-.96 0-1.61-.32-2.06-.71l.47-.55c.41.34.97.57 1.59.57z" fill="#999FA7"/><path stroke="#999FA7" d="M36.334 262.76v7.323l5.07 5.07h63.992v-16.608h-63.26z"/></g></svg>