<svg width="69" height="67" xmlns="http://www.w3.org/2000/svg" xmlns:xlink="http://www.w3.org/1999/xlink"><defs><path id="a" d="M.68.464h42.882V44H.68z"/><path id="c" d="M0 .46h68.833v56.65H0z"/></defs><g fill="none" fill-rule="evenodd"><g transform="translate(14 21.541)"><mask id="b" fill="#fff"><use xlink:href="#a"/></mask><path d="M28.79 27.817l-.88.328h-1.37l3.039-10.989-5.583 2.884-1.492-3.426-2.592 3.992-5.39-3.39 3.772 10.93h-1.961l-.88-.329c-7.151-2.66-11.772-9.13-11.772-16.48 0-2.614.606-5.197 1.758-7.542 3.393 1.14 10.129 3.107 16.896 3.375 6.814.267 13.597-1.148 17.064-2.027a16.912 16.912 0 0 1 1.163 6.194c0 7.35-4.621 13.82-11.772 16.48zM16.43 41h11.383v-2.614H16.43V41zm0-3.614h11.383v-2.508H16.43v2.508zm0-3.508h11.383v-2.732H16.43v2.732zm2.922-5.732l-2.957-8.569 3.819 2.401 2.116-3.258 1.175 2.7 4.5-2.326-2.502 9.052h-6.151zM41.618 2.72l-.06-.112c-.175-.299-.703-.96-1.825-.654-2.173.595-9.842 2.517-17.28 2.217C15.32 3.89 8.16 1.588 5.413.611 5.114.506 4.495.286 3.858.735l-.266.188-.165.282A20.124 20.124 0 0 0 .68 11.337c0 8.142 5.082 15.612 12.749 18.901v11.488A2.277 2.277 0 0 0 15.705 44H28.54a2.276 2.276 0 0 0 2.273-2.274V30.238c7.667-3.289 12.749-10.759 12.749-18.9 0-3.007-.654-5.906-1.944-8.618z" fill="#242134" mask="url(#b)"/></g><path d="M36.783 25.421L14.411 18.97V30.03c-.6 0 11.46 5.12 22.418 5.12 10.96 0 20.815-5.12 20.815-5.12V19.048l-20.86 6.373z" fill="#F01F7A"/><g transform="translate(0 .541)"><mask id="d" fill="#fff"><use xlink:href="#c"/></mask><path d="M36.02.46c-.127 0-32.798 11.076-32.798 11.076-.007-.007.002 2.278 0 2.28l.38.126v24.123C1.538 38.602 0 40.468 0 42.7V57.11h9.608V42.7c0-2.232-1.538-4.098-3.603-4.635V14.743l5.16 1.72 25.602 7.371 24.056-7.349 8.009-2.669c.004.003-.002-2.278 0-2.28 0 0-32.683-11.077-32.811-11.077z" fill="#F01F7A" mask="url(#d)"/></g></g></svg>