<svg width="65" height="64" xmlns="http://www.w3.org/2000/svg" xmlns:xlink="http://www.w3.org/1999/xlink"><defs><path id="a" d="M.677.803h54.198V55H.677z"/><path id="c" d="M.01.637h13.396v3H.01z"/></defs><g fill="none" fill-rule="evenodd"><g transform="translate(10 8.363)"><mask id="b" fill="#fff"><use xlink:href="#a"/></mask><path d="M27.776 51.5c-13.033 0-23.599-10.565-23.599-23.599 0-13.033 10.566-23.598 23.6-23.598 13.032 0 23.598 10.565 23.598 23.598 0 13.034-10.566 23.599-23.599 23.599m0-50.697C12.81.803.677 12.936.677 27.901.677 42.867 12.81 55 27.777 55c14.965 0 27.098-12.133 27.098-27.099C54.875 12.936 42.742.803 27.776.803" fill="#242134" mask="url(#b)"/></g><path d="M36.677 36.8l13.545-14.263" fill="#D31E8E"/><path d="M35.644 37.888a1.5 1.5 0 0 1-.054-2.121l13.544-14.263a1.5 1.5 0 0 1 2.176 2.067L37.765 37.833a1.5 1.5 0 0 1-2.121.055z" fill="#F01F7A"/><g transform="translate(30 -.637)"><mask id="d" fill="#fff"><use xlink:href="#c"/></mask><path d="M11.906 3.637H1.51a1.5 1.5 0 0 1 0-3h10.396a1.5 1.5 0 0 1 0 3" fill="#242134" mask="url(#d)"/></g><path d="M36.887 11.946a1.5 1.5 0 0 1-1.5-1.5V2.72a1.5 1.5 0 0 1 3 0v7.726a1.5 1.5 0 0 1-1.5 1.5" fill="#242134"/><path d="M6.75 26.988h15.5" fill="#D31E8E"/><path d="M22.25 28.488H6.75a1.5 1.5 0 0 1 0-3h15.5a1.5 1.5 0 0 1 0 3" fill="#F01F7A"/><path d="M1.5 35.8H17" fill="#D31E8E"/><path d="M17 37.3H1.5a1.5 1.5 0 0 1 0-3H17a1.5 1.5 0 0 1 0 3M6.5 44.613H22M22 46.113H6.5a1.5 1.5 0 0 1 0-3H22a1.5 1.5 0 0 1 0 3" fill="#F01F7A"/></g></svg>