<svg width="107" height="65" xmlns="http://www.w3.org/2000/svg" xmlns:xlink="http://www.w3.org/1999/xlink"><defs><path id="a" d="M.299.422h53.834v53.837H.299z"/><path id="c" d="M0 .137h53.86V54H0z"/></defs><g fill="none" fill-rule="evenodd"><g transform="translate(52 -.422)"><mask id="b" fill="#fff"><use xlink:href="#a"/></mask><path d="M42.24 24.093c1.795 8.296-3.479 16.478-11.776 18.271-8.296 1.794-16.479-3.477-18.273-11.773-1.794-8.297 3.48-16.479 11.777-18.272 8.296-1.794 16.479 3.478 18.273 11.774zM.3 28.195l2.052 9.489 6.01-.282a21.283 21.283 0 0 0 2.804 4.049l-2.379 5.527 8.161 5.26 4.052-4.451c1.559.476 3.183.774 4.845.88l2.226 5.592 9.489-2.052-.282-6.012a21.137 21.137 0 0 0 4.047-2.802l5.529 2.379 5.259-8.161-4.45-4.051a21.3 21.3 0 0 0 .881-4.846l5.59-2.226-2.052-9.49-6.011.282a21.264 21.264 0 0 0-2.803-4.05l2.379-5.526-8.162-5.26-4.051 4.45a21.226 21.226 0 0 0-4.845-.88L26.361.422l-9.49 2.052.283 6.013a21.144 21.144 0 0 0-4.048 2.802l-5.529-2.38-5.26 8.163 4.45 4.05a21.226 21.226 0 0 0-.881 4.845L.299 28.195z" fill="#F01F7A" mask="url(#b)"/></g><g transform="translate(0 10.578)"><mask id="d" fill="#fff"><use xlink:href="#c"/></mask><path d="M29.664 11.487c8.606 1.51 14.361 9.712 12.851 18.318-1.51 8.605-9.715 14.357-18.32 12.848-8.605-1.511-14.36-9.713-12.85-18.318 1.51-8.606 9.714-14.357 18.32-12.848zM1.678 17.71L0 27.272l5.673 2.005a21.323 21.323 0 0 0 1.07 4.808l-4.288 4.22 5.575 7.95 5.431-2.594a21.146 21.146 0 0 0 4.155 2.642l-.046 6.019L27.132 54l2.006-5.676a21.136 21.136 0 0 0 4.805-1.07l4.224 4.29 7.948-5.576-2.594-5.43a21.347 21.347 0 0 0 2.643-4.156l6.017.046 1.678-9.562-5.673-2.006a21.315 21.315 0 0 0-1.069-4.807l4.287-4.222-5.576-7.95-5.43 2.594a21.247 21.247 0 0 0-4.155-2.641l.046-6.02L26.726.138 24.72 5.812a21.263 21.263 0 0 0-4.806 1.068l-4.223-4.288-7.949 5.577 2.594 5.428a21.297 21.297 0 0 0-2.644 4.156l-6.014-.043z" fill="#242134" mask="url(#d)"/></g></g></svg>