<?xml version="1.0" encoding="utf-8"?>
<!-- Generator: Adobe Illustrator 22.0.1, SVG Export Plug-In . SVG Version: 6.00 Build 0)  -->
<svg version="1.1" id="SOC" xmlns="http://www.w3.org/2000/svg" xmlns:xlink="http://www.w3.org/1999/xlink" x="0px" y="0px"
	 viewBox="0 0 184.5 184.5" style="enable-background:new 0 0 184.5 184.5;" xml:space="preserve">
<style type="text/css">
	.st0{fill:url(#SVGID_1_);}
	.st1{fill:url(#SVGID_2_);}
	.st2{fill:#FEFEFE;}
	.st3{fill:#1F73B9;}
</style>
<linearGradient id="SVGID_1_" gradientUnits="userSpaceOnUse" x1="0" y1="92.2495" x2="184.4989" y2="92.2495">
	<stop  offset="0" style="stop-color:#14BCEE"/>
	<stop  offset="1" style="stop-color:#2161AD"/>
</linearGradient>
<circle class="st0" cx="92.2" cy="92.2" r="92.2"/>
<linearGradient id="SVGID_2_" gradientUnits="userSpaceOnUse" x1="20.7572" y1="92.6497" x2="164.6375" y2="92.6497">
	<stop  offset="0" style="stop-color:#2161AD"/>
	<stop  offset="1" style="stop-color:#14BCEE"/>
</linearGradient>
<circle class="st1" cx="92.7" cy="92.6" r="71.9"/>
<path d="M172.5,167.9c0.3-0.8,0.5-1.5,0.7-2.2c0.2-0.7,0.7-0.4,1.1-0.4c0.5,0,0.3,0.4,0.3,0.6c0.1,0.9,0.1,1.9,0.2,2.8
	c0,0.3,0.1,0.5-0.3,0.5c-0.3,0-0.5,0-0.6-0.4c0-0.8-0.1-1.6-0.1-2.7c-0.3,1-0.6,1.7-0.8,2.5c-0.1,0.3-0.2,0.4-0.6,0.4
	c-0.4,0-0.5-0.1-0.6-0.5c-0.2-0.8-0.5-1.5-0.8-2.3c0,0.8-0.1,1.6-0.1,2.3c0,0.4-0.1,0.5-0.5,0.5c-0.4,0-0.3-0.3-0.3-0.5
	c0.1-0.9,0.1-1.9,0.2-2.8c0-0.2-0.1-0.6,0.3-0.6c0.4,0,0.9-0.3,1.1,0.4C171.9,166.4,172.2,167.1,172.5,167.9z"/>
<path d="M168.3,165.3c0.4,0,0.8,0,1.2,0c0.3,0,0.4,0,0.4,0.3c0,0.3-0.2,0.3-0.4,0.3c-0.9,0-0.9,0-0.9,0.9c0,0.7,0,1.3,0,2
	c0,0.3-0.1,0.4-0.4,0.4c-0.3,0-0.4-0.1-0.4-0.4c0-0.8,0-1.6,0-2.4c0-0.4-0.1-0.5-0.5-0.4c-0.2,0-0.3,0-0.5,0c-0.2,0-0.3-0.1-0.3-0.3
	c0-0.2,0-0.4,0.3-0.4C167.3,165.3,167.8,165.3,168.3,165.3z"/>
<path class="st2" d="M98.2,99.9c3.7,2.6,5,6.4,5.1,10.7c0.1,2.2,0.1,4.5-0.2,6.7c-0.5,3.4-1.7,6.3-4.5,8.5c-0.4,0.3-0.9,0.6-1.3,0.9
	c-1.1,0.5-2.2,0.9-3.4,1c-6,0.8-10.6-2.2-12.4-8c-0.5-1.6-0.7-3.1-0.7-4.8c0-2.7-0.2-5.5,0.6-8.2c1.1-3.8,3.1-6.7,7-7.9
	C91.8,97.7,95.1,98,98.2,99.9z M83.4,113c0,0.6,0,1.3,0,1.9c0,1.8,0.3,3.6,0.9,5.3c2.1,5.3,8.3,7.3,12.8,4c1.8-1.3,2.8-3.2,3.3-5.3
	c0.7-2.7,0.5-5.5,0.5-8.3c0-1.4-0.2-2.7-0.6-4.1c-1.4-4.8-5.4-7.2-10.2-6.1c-3.2,0.7-5,3-6,6C83.3,108.6,83.3,110.8,83.4,113z"/>
<path class="st2" d="M66.1,127.8c-1.7,0-4.4-0.7-6.6-2.5c-1.9-1.5-2.7-3.5-2.8-5.9c0-0.2,0.1-0.3,0.3-0.3c0.6,0,1.2,0,1.8,0
	c0.2,0,0.3,0.1,0.3,0.3c0.1,3.1,2.2,5.1,4.9,5.8c2.5,0.7,5.1,0.7,7.5-0.3c2.9-1.2,4.1-3.9,3-6.6c-0.5-1.2-1.3-1.9-2.4-2.5
	c-1.7-0.9-3.5-1.5-5.3-2c-2.2-0.7-4.4-1.3-6.3-2.6c-3.8-2.5-3.9-8.3-0.2-10.9c1.8-1.3,3.7-1.9,5.8-2.1c2.9-0.2,5.7,0.3,8,2.1
	c1.9,1.5,2.9,3.5,3.1,5.9c0,0.4-0.1,0.6-0.5,0.6c-0.5,0-0.9,0-1.4,0c-0.4,0-0.6-0.1-0.6-0.5c-0.1-2.9-2.1-5.4-5.6-5.9
	c-1.9-0.3-3.7-0.2-5.5,0.5c-1.9,0.8-3.3,2.1-3.5,4.3c-0.2,1.7,0.5,3.1,1.8,4.1c1.5,1.2,3.4,1.8,5.2,2.3c1.7,0.5,3.4,1,5,1.7
	c1.8,0.8,3.5,1.9,4.5,3.7c1.7,3.4,0.9,7.8-3.7,9.8C71.3,127.5,69.6,127.8,66.1,127.8z"/>
<path class="st2" d="M39.8,80.8c0.4-1,0.7-2,1.1-3c3.2-8.4,6.4-16.9,9.6-25.3c0.2-0.5,0.4-0.6,0.9-0.6c0.6,0.1,1.3-0.2,1.7,0.1
	c0.4,0.3,0.5,1,0.7,1.5c3.3,8.8,6.7,17.7,10,26.5c0.3,0.7,0.3,0.7-0.5,0.7c-0.6,0-1.3,0.2-1.7-0.1c-0.4-0.3-0.5-1-0.7-1.6
	c-0.7-2-1.5-4-2.2-5.9c-0.1-0.4-0.3-0.5-0.7-0.5c-4,0-8,0-12,0c-0.4,0-0.6,0.1-0.7,0.5c-0.9,2.4-1.7,4.8-2.6,7.1
	c-0.1,0.4-0.3,0.5-0.7,0.5C41.2,80.8,40.5,80.8,39.8,80.8z M51.8,55.1c-0.1,0.2-0.1,0.2-0.1,0.3c-1.8,4.9-3.6,9.9-5.5,14.8
	c-0.2,0.5,0.1,0.5,0.4,0.5c3.4,0,6.9,0,10.3,0c0.5,0,0.6-0.1,0.4-0.6c-1-2.7-2-5.5-3-8.2C53.5,59.6,52.7,57.4,51.8,55.1z"/>
<path class="st2" d="M79.6,66.4c0,2.4,0,4.7,0.8,7c1,2.8,2.7,4.9,5.8,5.6c1.9,0.4,3.8,0.2,5.7-0.5c2.4-0.9,3.4-2.9,4-5.2
	c0.3-1.4,0.3-1.4,1.8-1.4c0.1,0,0.3,0,0.4,0c0.5-0.1,0.6,0.1,0.5,0.6c-0.7,4.9-3.6,8.1-8.6,8.7c-3,0.4-5.9,0-8.4-1.9
	c-1.9-1.5-3.2-3.5-3.8-5.8c-1.2-4.6-1.2-9.3,0-13.9c1-3.8,3.4-6.5,7.3-7.5c2.8-0.7,5.7-0.6,8.3,0.8c2.8,1.4,4.3,3.9,4.9,6.9
	c0.3,1.3,0.2,1.3-1.1,1.3c-1.1,0-1.1,0-1.4-1.1c-0.5-2.4-1.5-4.5-3.9-5.5c-4-1.7-9.5-1.1-11.7,5c-0.6,1.7-0.8,3.5-0.8,5.3
	C79.6,65.3,79.6,65.9,79.6,66.4z"/>
<path class="st2" d="M68.2,66.3c0-4.6,0-9.1,0-13.7c0-0.5,0.2-0.7,0.7-0.6c0.6,0.1,1.4-0.3,1.7,0.1c0.3,0.3,0.1,1.1,0.1,1.7
	c0,8.8,0,17.6,0,26.4c0,0.6-0.2,0.8-0.7,0.7c-0.6-0.1-1.3,0.2-1.6-0.1c-0.3-0.3-0.1-1-0.1-1.6C68.2,74.8,68.2,70.6,68.2,66.3z"/>
<path class="st2" d="M101.5,89.8c0.3,0,0.5,0,0.8,0c15.2,0,30.4,0,45.6,0c0.3,0,0.8-0.2,0.8,0.3c0,0.4-0.5,0.2-0.8,0.2
	c-16.2,0-32.4,0-48.6,0c-0.3,0-0.5,0-0.8,0c-0.3,0-0.5,0-0.8,0c-19.4,0-38.7,0-58.1,0c-0.3,0-0.9,0.2-0.9-0.2c0-0.5,0.6-0.3,0.9-0.3
	c20.4,0,40.8,0,61.2,0C101,89.9,101.3,89.8,101.5,89.8z"/>
<path class="st2" d="M92.4,143.8c-2,1.3-3.5,0-3.7-1.9c0-0.4,0-0.7,0-1.1c0.2-2.2,2.1-3,3.8-1.7c-0.1-0.6,0.3-0.5,0.7-0.5
	c0.4,0,0.2,0.4,0.2,0.6c0,1.6,0,3.2,0,4.8c0,1-0.3,1.8-1.2,2.2c-1,0.4-1.9,0.3-2.8-0.3c-0.2-0.1-0.5-0.3-0.2-0.6
	c0.2-0.3,0.4-0.2,0.7,0c0.2,0.2,0.5,0.3,0.8,0.4C91.8,145.8,92.5,145.1,92.4,143.8z M92.4,141.4c0-0.3,0-0.6,0-0.9
	c0.1-0.6-0.3-1-0.8-1.2c-0.6-0.2-1.1-0.1-1.5,0.4c-0.6,0.8-0.6,2.6,0,3.4c0.4,0.5,0.9,0.6,1.5,0.4c0.5-0.2,0.9-0.6,0.8-1.2
	C92.4,142,92.4,141.7,92.4,141.4z"/>
<path class="st2" d="M67.4,139.1c1.9-1.2,3.4-0.5,3.7,1.6c0.1,0.8,0.1,1.6-0.3,2.4c-0.5,1.2-1.8,1.6-2.9,1c-0.1-0.1-0.3-0.2-0.5-0.3
	c0,0.8,0,1.4,0,2.1c0,0.3-0.1,0.5-0.4,0.5c-0.4,0-0.5,0-0.5-0.5c0-2.2,0-4.5,0-6.7c0-0.2-0.2-0.6,0.3-0.6
	C67,138.6,67.4,138.5,67.4,139.1z M70.2,141.6c0-0.8-0.1-1.4-0.4-1.8c-0.4-0.5-0.9-0.7-1.5-0.5c-0.6,0.2-0.9,0.6-0.9,1.2
	c0,0.5,0,1.1,0,1.6c0,0.7,0.3,1.1,0.9,1.3c0.6,0.2,1.3-0.1,1.6-0.7C70.1,142.4,70.2,141.9,70.2,141.6z"/>
<path class="st2" d="M57.7,141.8c0,0.7-0.1,1.4,0.1,2.1c0,0.1,0.1,0.3-0.1,0.3c-0.3,0-0.7,0.2-0.9-0.2c-0.1-0.4-0.3-0.2-0.5-0.1
	c-0.5,0.3-1,0.5-1.6,0.4c-0.8-0.1-1.4-0.7-1.5-1.4c-0.1-0.8,0.3-1.5,1-1.8c0.6-0.3,1.3-0.3,1.9-0.3c0.4,0,0.5-0.1,0.5-0.5
	c-0.1-0.5-0.3-0.9-0.9-1c-0.6-0.1-1.1,0-1.4,0.6c-0.1,0.2-0.1,0.4-0.4,0.3c-0.2,0-0.5,0.1-0.6-0.1c-0.1-0.2,0-0.4,0.2-0.6
	c0.5-0.8,1.7-1.1,2.7-0.8c0.9,0.3,1.3,0.9,1.3,1.9C57.7,140.9,57.7,141.3,57.7,141.8z M56.1,141.5c-0.4,0-0.8,0-1.1,0.1
	c-0.5,0.2-0.7,0.5-0.6,1c0.1,0.5,0.4,0.8,0.9,0.8c0.6,0.1,1.1-0.2,1.4-0.6c0.3-0.4,0.2-0.9,0.1-1.3
	C56.7,141.4,56.3,141.6,56.1,141.5z"/>
<path class="st2" d="M75.3,143.7c-0.7,0.5-1.4,0.8-2.2,0.5c-0.7-0.2-1.2-0.7-1.2-1.5c-0.1-0.7,0.3-1.4,1-1.7c0.6-0.3,1.3-0.3,2-0.3
	c0.5,0,0.5-0.2,0.5-0.6c-0.1-0.5-0.3-0.8-0.8-0.9c-0.6-0.1-1.1-0.1-1.4,0.5c-0.2,0.4-0.5,0.4-0.9,0.4c-0.2,0-0.3-0.1-0.2-0.3
	c0-0.1,0-0.1,0.1-0.2c0.3-0.8,1.4-1.3,2.5-1.2c1,0.1,1.6,0.7,1.7,1.7c0.1,1.3-0.1,2.5,0.1,3.8c0,0.1,0,0.2-0.1,0.2
	c-0.3,0-0.6,0.2-0.9-0.2C75.4,143.9,75.4,143.8,75.3,143.7z M74.6,141.5c-0.5,0-0.8,0-1.2,0.2c-0.4,0.2-0.6,0.5-0.6,1
	c0.1,0.5,0.4,0.7,0.8,0.8c0.5,0.1,1.3-0.2,1.6-0.6c0.2-0.4,0.2-0.8,0.1-1.2C75.2,141.4,74.8,141.6,74.6,141.5z"/>
<path class="st2" d="M79.8,141.5c0-2.2,1.5-3.4,3.3-2.9c0.9,0.3,1.4,0.9,1.6,1.8c0.3,1.1,0.2,2.1-0.5,3.1c-0.7,0.9-1.6,1.1-2.7,0.8
	c-1.1-0.3-1.5-1.1-1.7-2.1C79.8,141.8,79.8,141.6,79.8,141.5z M83.9,141.3c0-0.5-0.1-1-0.4-1.5c-0.6-0.8-1.7-0.8-2.3,0
	c-0.6,0.8-0.6,2.3,0,3.1c0.6,0.8,1.8,0.8,2.3-0.1C83.8,142.4,83.9,141.9,83.9,141.3z"/>
<path class="st2" d="M61,141.5c0-2,1.1-3.2,2.7-3c0.9,0.1,1.8,0.7,1.9,1.6c0,0.1,0.3,0.4-0.1,0.4c-0.3,0-0.6,0.2-0.7-0.2
	c-0.1-0.3-0.3-0.6-0.6-0.8c-0.7-0.5-1.7-0.2-2,0.6c-0.3,0.9-0.3,1.7,0,2.6c0.2,0.5,0.6,0.8,1.2,0.9c0.6,0,1.1-0.2,1.3-0.8
	c0.2-0.5,0.6-0.4,0.8-0.3c0.3,0.2,0,0.5-0.1,0.7c-0.4,0.8-1.5,1.3-2.4,1.1c-1.1-0.2-1.8-1-2-2.2C61,141.9,61,141.6,61,141.5z"/>
<path class="st2" d="M160.3,141.6c0,0.2,0,0.4-0.1,0.5c-0.2,1.2-1.2,1.8-2.4,1.5c-0.7-0.2-1.2-0.6-1.7-1.1c-0.5-0.5-0.8-1.2-0.6-1.9
	c0.3-0.7,0.8-1.2,1.6-1.3c0.1-0.2-0.5-0.3-0.1-0.6c0.3-0.2,0.4,0.1,0.6,0.2c1.1,0.8,2.2,1.6,3.3,2.5c0.6,0.4,1,1,0.8,1.8
	c-0.2,0.8-0.7,1.4-1.5,1.6c-0.2,0.1-0.5,0.3-0.6-0.1c-0.1-0.4,0.3-0.3,0.4-0.4c0.7-0.2,1.1-0.7,1.1-1.4
	C161.4,142.3,161,141.9,160.3,141.6z M159.9,141.8c0-0.4-0.1-0.7-0.5-1c-0.4-0.3-0.8-0.6-1.2-0.9c-0.5-0.4-1.2-0.4-1.7,0.1
	c-0.5,0.5-0.6,1.1-0.3,1.7c0.4,0.7,1,1.2,1.8,1.4C159,143.4,159.9,142.8,159.9,141.8z"/>
<path class="st2" d="M102.8,174c0,1.9-1.3,3.1-3,2.8c-0.9-0.2-1.5-0.8-1.8-1.6c-0.4-1-0.5-2-0.3-3c0.2-1.1,1-1.8,2.1-1.9
	c1.1-0.1,2,0.4,2.5,1.4C102.7,172.3,102.7,173.2,102.8,174z M98.2,173.2c0,0.6,0.1,1.3,0.3,1.9c0.3,0.8,1.1,1.3,1.9,1.3
	c0.9-0.1,1.5-0.5,1.7-1.4c0.2-1.1,0.1-2.2-0.4-3.3c-0.3-0.7-0.9-1-1.7-1C98.8,170.7,98.1,171.6,98.2,173.2z"/>
<path class="st2" d="M154.9,148.1c0,1.6-1.5,2.8-3,2.4c-1.4-0.4-2.4-1.4-3-2.7c-0.4-0.9-0.2-1.7,0.4-2.4c0.7-0.7,1.5-1.1,2.4-0.8
	c1.4,0.5,2.4,1.4,3,2.8c0.1,0.1,0.1,0.3,0.1,0.4C154.9,147.9,154.9,148,154.9,148.1z M152.5,150c1.3,0,2.3-1.2,1.8-2.4
	c-0.5-1.3-1.5-2.2-2.8-2.6c-1.1-0.3-2.3,0.8-2.2,1.9C149.3,148.2,151.2,150,152.5,150z"/>
<path class="st2" d="M94.6,177.1c-0.9,0-1.8-0.2-2.2-1.2c-0.1-0.2-0.3-0.5,0-0.7c0.4-0.2,0.4,0.2,0.5,0.4c0.3,0.7,0.8,0.9,1.5,0.9
	c0.7,0,1.4,0,1.8-0.7c0.3-0.5,0.2-1.2-0.4-1.5c-0.4-0.2-0.8-0.3-1.2-0.5c-0.5-0.1-1-0.3-1.5-0.5c-0.7-0.5-1-1.3-0.6-2
	c0.5-0.8,1.4-1,2.3-0.9c0.8,0.1,1.5,0.5,1.8,1.3c0.1,0.2,0.3,0.5-0.1,0.6c-0.3,0.1-0.4-0.2-0.4-0.4c-0.2-0.6-0.6-0.9-1.2-1
	c-0.7-0.1-1.3,0-1.8,0.6c-0.4,0.5-0.2,1.1,0.3,1.5c0.4,0.3,0.8,0.4,1.3,0.5c0.4,0.1,0.9,0.2,1.3,0.4c0.6,0.3,0.9,0.8,0.9,1.5
	c0,0.7-0.4,1.1-1,1.4C95.4,177,95,177.1,94.6,177.1z"/>
<path class="st2" d="M125.5,166c0.7-0.1,1.4-0.2,2-0.2c0.9,0,1.5,0.4,1.7,1.1c0.2,0.7,0,1.3-0.6,1.8c-0.6,0.5-1.3,0.8-2,0.8
	c-0.6,0-1.1-0.2-1.5-0.7c-0.1-0.1-0.2-0.3,0-0.4c0.1-0.1,0.3-0.2,0.4,0c1,0.8,1.9,0.8,2.8,0c0.4-0.4,0.6-0.8,0.4-1.4
	c-0.2-0.5-0.6-0.7-1.2-0.7c-0.7,0.1-1.3,0.2-2,0.2c-1.1,0.1-1.8-0.5-1.9-1.5c0-0.8,0.6-1.5,1.6-1.9c0.9-0.3,1.8-0.2,2.3,0.4
	c0.1,0.1,0.4,0.3,0.2,0.5c-0.2,0.2-0.4,0-0.6-0.2c-0.4-0.5-0.9-0.6-1.5-0.4c-0.7,0.2-1.2,0.5-1.4,1.2C124,165.4,124.6,166,125.5,166
	z"/>
<path class="st2" d="M103.7,171.8c0-1.7,1.1-2.7,2.7-2.6c0.8,0,1.5,0.6,1.8,1.3c0.1,0.2,0.1,0.3-0.1,0.4c-0.2,0.1-0.3,0-0.4-0.2
	c-0.6-1.1-1.3-1.3-2.2-1c-0.9,0.3-1.4,1.2-1.2,2.3c0.1,0.7,0.2,1.5,0.5,2.2c0.4,0.9,1.1,1.3,2,1.1c0.9-0.1,1.3-0.6,1.4-1.6
	c0-0.3,0.2-0.4,0.4-0.4c0.3,0,0.2,0.3,0.2,0.5c-0.1,0.9-0.6,1.6-1.6,1.9c-1,0.3-1.9,0.1-2.6-0.7C104.1,174.3,103.7,173,103.7,171.8z
	"/>
<path class="st2" d="M168,123.4c0-0.5,0.2-1,0.4-1.6c0.1-0.3,0.1-0.5-0.3-0.6c-0.5-0.2-1-0.2-1.3,0.3c-0.4,0.5-0.5,1.3-0.1,1.8
	c0.2,0.2,0.4,0.4,0.1,0.6c-0.3,0.2-0.4-0.1-0.5-0.3c-0.4-0.6-0.4-1.7,0.2-2.4c0.4-0.6,1-0.7,1.9-0.4c0.9,0.3,1.7,0.8,2.7,1
	c0.1,0,0.3,0,0.3,0.3c0,0.1-0.1,0.3-0.3,0.3c-0.5-0.1-0.3,0.2-0.3,0.4c0.1,0.4,0,0.9-0.1,1.3c-0.3,0.7-0.9,1.1-1.6,0.9
	C168.4,124.8,168,124.3,168,123.4z M170.4,123.2c0-0.9-0.4-1.4-1.2-1.6c-0.2,0-0.3,0-0.3,0.2c-0.2,0.5-0.4,1-0.5,1.6
	c0,0.5,0.2,1,0.8,1.1c0.5,0.1,0.9-0.2,1.1-0.7C170.3,123.6,170.4,123.4,170.4,123.2z"/>
<path class="st2" d="M147.4,155.3c0.8,0,1.4-0.5,1.6-1.3c0-0.2,0-0.5,0.3-0.4c0.3,0.1,0.2,0.4,0.1,0.5c-0.2,1-0.9,1.5-1.8,1.8
	c-0.7,0.2-1.3-0.1-1.8-0.7c-0.4-0.4-0.8-0.9-1-1.5c-0.3-1,0.2-1.9,1-2.3c0.8-0.4,1.9,0,2.4,0.7c0.2,0.3,0,0.3-0.1,0.5
	c-0.6,0.6-1.2,1.2-1.9,1.7c-0.3,0.3-0.3,0.5,0,0.7C146.6,155.1,147,155.3,147.4,155.3z M145.2,153.1c0,0.1,0,0.3,0.1,0.5
	c0.2,0.6,0.3,0.7,0.8,0.2c0.5-0.4,0.9-0.8,1.4-1.2c0.2-0.2,0.3-0.3,0-0.5c-0.4-0.3-0.9-0.4-1.4-0.2
	C145.5,152,145.2,152.4,145.2,153.1z"/>
<path class="st2" d="M160.1,138.4c0-0.7,0.4-1.3,0.8-1.9c0.2-0.3,0.2-0.5-0.1-0.7c-0.5-0.3-0.9-0.3-1.3,0c-0.5,0.4-0.7,1.1-0.5,1.6
	c0,0.1,0.1,0.2,0.2,0.3c0.1,0.2,0,0.3-0.1,0.4c-0.2,0.1-0.3-0.1-0.3-0.2c-0.1-0.2-0.2-0.4-0.2-0.6c-0.1-0.9,0.3-1.5,0.9-2
	c0.6-0.4,1.2-0.3,1.8,0.1c0.8,0.5,1.5,1.1,2.4,1.5c0.1,0,0.2,0.1,0.2,0.3c-0.1,0.2-0.2,0.3-0.4,0.2c-0.3-0.1-0.3,0.1-0.3,0.3
	c0,0.6-0.2,1.2-0.6,1.6c-0.4,0.4-0.9,0.5-1.5,0.3C160.3,139.5,160.1,139,160.1,138.4z M161.4,139.3c0.6,0,1.1-0.6,1.2-1.3
	c0.1-0.6-0.4-1.3-1-1.5c-0.1,0-0.2,0-0.3,0.1c-0.4,0.5-0.8,1-0.8,1.7C160.5,138.8,160.9,139.3,161.4,139.3z"/>
<path class="st2" d="M131.6,166.9c-1.1,0-2.1-1-2.4-2.3c-0.2-1.1,0.2-2,1.2-2.4c1-0.4,2.3,0.2,2.6,1.2c0.1,0.3-0.1,0.3-0.2,0.4
	c-0.7,0.4-1.5,0.8-2.2,1.2c-0.4,0.2-0.4,0.4-0.1,0.7c0.9,1,2.2,0.8,2.8-0.4c0.1-0.2,0.1-0.4,0.4-0.3c0.3,0.1,0.1,0.3,0,0.5
	C133.3,166.4,132.5,166.9,131.6,166.9z M129.7,164.1c0,0.7,0.1,0.8,0.8,0.5c0.5-0.3,1-0.6,1.5-0.8c0.4-0.2,0.4-0.4,0.1-0.7
	c-0.4-0.4-0.9-0.6-1.4-0.4C130,162.9,129.7,163.4,129.7,164.1z"/>
<path class="st2" d="M114.6,170.6c0-1.2,0.6-2,1.5-2.3c0.9-0.3,1.8,0.1,2.4,0.9c0.4,0.6,0.6,1.3,0.5,2c-0.1,0.9-0.5,1.5-1.4,1.8
	c-0.8,0.3-1.6,0.1-2.2-0.5C114.9,172,114.7,171.2,114.6,170.6z M116.8,168.8c-0.7,0-1.2,0.2-1.5,0.8c-0.4,0.9-0.1,1.7,0.4,2.5
	c0.4,0.5,0.9,0.8,1.6,0.6c0.2-0.1,0.4-0.1,0.6-0.3c0.6-0.4,0.7-1.3,0.4-2.3C118,169.3,117.4,168.8,116.8,168.8z"/>
<path class="st2" d="M171.8,115.3c-0.7,0-1.5-0.2-2.1-0.8c-0.6-0.6-0.8-1.4-0.5-2.2c0.3-0.8,0.9-1.2,1.7-1.3
	c0.7-0.1,1.3,0.1,1.9,0.4c1,0.5,1.4,1.4,1.2,2.4C173.8,114.7,173,115.3,171.8,115.3z M171.8,114.7c1,0,1.6-0.4,1.8-1.2
	c0.2-0.7-0.2-1.4-0.9-1.8c-0.5-0.3-1.1-0.4-1.7-0.3c-0.7,0.1-1.1,0.4-1.3,1.1c-0.2,0.7,0,1.2,0.6,1.6
	C170.7,114.6,171.3,114.7,171.8,114.7z"/>
<path class="st2" d="M97.5,136.7c0.2,0,0.3,0.1,0.2,0.4c-0.1,0.3-0.2,0.6-0.3,0.9c-0.8,2.1-1.7,4.2-2.5,6.3c-0.2,0.5-0.5,0.6-1,0.5
	c0.1-0.2,0.2-0.5,0.2-0.7c0.9-2.3,1.8-4.6,2.7-6.9C96.9,136.9,97.1,136.6,97.5,136.7z"/>
<path class="st2" d="M176.1,103.3c-0.1,0.8-0.2,1.5-1,1.9c-0.2,0.1-0.5,0.2-0.6,0c-0.1-0.3,0.1-0.4,0.4-0.5c0.7-0.3,1.1-1.5,0.6-2.2
	c-0.3-0.4-0.8-0.4-1.2,0c-0.3,0.3-0.4,0.6-0.5,0.9c-0.1,0.4-0.3,0.7-0.5,1c-0.4,0.5-1.1,0.5-1.6,0.1c-0.8-0.7-0.5-2.6,0.5-3
	c0.2-0.1,0.5-0.2,0.6,0c0.1,0.3-0.1,0.4-0.4,0.4c-0.6,0.2-1,1.1-0.7,1.7c0.1,0.3,0.3,0.5,0.6,0.5c0.3,0,0.6-0.1,0.7-0.4
	c0.2-0.4,0.4-0.8,0.6-1.3c0.4-0.8,0.9-1.1,1.5-0.9C175.7,101.9,176.1,102.6,176.1,103.3z"/>
<path class="st2" d="M170.8,109c-0.4-0.6-0.6-1.2-0.3-1.9c0.2-0.5,0.5-0.9,1.1-0.9c1.2,0,2.4,0.4,3.6,0.6c0.2,0,0.2,0.1,0.2,0.3
	c-0.1,0.2-0.2,0.2-0.4,0.2c-0.8-0.2-1.7-0.3-2.5-0.5c-1.1-0.2-1.5,0-1.7,0.8c-0.2,0.8,0.4,1.5,1.3,1.7c0.8,0.2,1.6,0.3,2.4,0.5
	c0.2,0,0.4,0.1,0.4,0.4c-0.1,0.3-0.3,0.2-0.5,0.1c-1.2-0.2-2.4-0.5-3.7-0.7c-0.2,0-0.5,0.1-0.5-0.3
	C170.2,108.8,170.6,109.1,170.8,109z"/>
<path class="st2" d="M161.3,133.3c-0.1-0.4-0.2-0.7-0.1-1.1c0.2-1.1,1.1-1.7,2.1-1.2c1,0.5,1.9,1,2.8,1.6c0.2,0.1,0.2,0.2,0.1,0.4
	c-0.1,0.2-0.3,0.1-0.4,0c-0.8-0.4-1.5-0.9-2.3-1.3c-0.9-0.5-1.4-0.4-1.8,0.2c-0.4,0.7-0.2,1.6,0.6,2c0.7,0.4,1.4,0.8,2.1,1.2
	c0.2,0.1,0.4,0.2,0.2,0.5c-0.2,0.3-0.3,0-0.5,0c-1.1-0.6-2.2-1.3-3.4-1.9c-0.1-0.1-0.5-0.1-0.3-0.4c0.2-0.4,0.4-0.1,0.6,0
	C161.2,133.3,161.3,133.3,161.3,133.3z"/>
<path class="st2" d="M86.7,139.2c0.5-0.5,0.9-0.7,1.4-0.7c0.3,0,0.4,0.2,0.4,0.4c0,0.3-0.1,0.3-0.4,0.3c-1.1,0.1-1.4,0.4-1.4,1.5
	c0,1,0,2,0,3c0,0.3-0.1,0.4-0.4,0.4c-0.3,0-0.5,0-0.5-0.4c0-1.6,0-3.2,0-4.7c0-0.2,0-0.5,0.3-0.4C86.4,138.6,86.8,138.5,86.7,139.2z
	"/>
<path class="st2" d="M167.9,128.8c0.4-0.9,0.8-1.7,1.2-2.4c0.1-0.1,0.1-0.4,0.3-0.2c0.2,0.1,0.1,0.3,0.1,0.4
	c-0.4,0.8-0.8,1.7-1.2,2.5c-0.1,0.2-0.1,0.5-0.3,0.5c-0.3,0-0.4-0.2-0.5-0.4c-0.6-1.1-1.2-2.2-1.8-3.3c-0.1-0.2-0.2-0.4-0.4-0.6
	c-0.4,0.8-0.7,1.4-1,2.1c-0.1,0.1-0.1,0.4-0.4,0.3c-0.3-0.1-0.1-0.3,0-0.5c0.4-0.8,0.7-1.5,1.1-2.3c0.1-0.1,0.1-0.4,0.3-0.4
	c0.2,0,0.3,0.2,0.4,0.3c0.6,1.2,1.2,2.3,1.9,3.5C167.6,128.4,167.7,128.6,167.9,128.8z"/>
<path class="st2" d="M145.6,157.1c0,1.3-1.5,2.3-2.6,1.7c-1-0.5-1.7-1.3-1.9-2.4c-0.1-0.8,0.3-1.4,0.9-1.8c0.6-0.4,1.2-0.5,1.9-0.1
	c0.2,0.1,0.5,0.2,0.3,0.5c-0.1,0.3-0.4,0.1-0.6,0c-0.5-0.3-1-0.2-1.5,0.1c-0.5,0.4-0.7,0.9-0.5,1.5c0.2,0.7,0.7,1.3,1.2,1.7
	c0.6,0.4,1.1,0.4,1.7,0c0.5-0.4,0.8-0.9,0.5-1.5c-0.1-0.2-0.1-0.3,0.1-0.4c0.2-0.1,0.3,0.1,0.4,0.2
	C145.6,156.6,145.6,156.8,145.6,157.1z"/>
<path class="st2" d="M59,141.4c0-0.8,0-1.6,0-2.3c0-0.4,0.1-0.5,0.5-0.4c0.3,0,0.5,0,0.5,0.4c0,1.6,0,3.2,0,4.8
	c0,0.4-0.2,0.4-0.5,0.4c-0.4,0-0.5-0.1-0.5-0.5C59,143,59,142.2,59,141.4z"/>
<path class="st2" d="M113.6,169.6c0,0.3-0.3,0.2-0.4,0.2c-0.6,0.1-0.7,0.3-0.5,0.8c0.3,1,0.5,2,0.8,2.9c0,0.2,0.4,0.5-0.1,0.6
	c-0.5,0.1-0.3-0.3-0.4-0.5c-0.3-1-0.6-2.1-0.8-3.1c-0.1-0.4-0.2-0.5-0.6-0.4c-0.1,0-0.3,0.1-0.4-0.1c-0.1-0.2,0-0.3,0.2-0.3
	c0.5-0.1,0.5-0.3,0.4-0.7c-0.3-1,0.2-1.7,1.2-1.9c0.2,0,0.3-0.1,0.4,0.2c0.1,0.2-0.1,0.3-0.3,0.3c-0.6,0.1-0.9,0.4-0.8,1
	c0,0.7,0.2,0.8,0.9,0.7C113.3,169.3,113.5,169.2,113.6,169.6z"/>
<path class="st2" d="M138.8,161.7c-0.2-0.7-0.3-1.4-0.5-2.1c-0.1-0.6-0.3-1.1-0.4-1.7c-0.1-0.2,0.1-0.4,0.3-0.4
	c0.2,0,0.2,0.2,0.2,0.3c0.3,1.4,0.7,2.8,1,4.2c0,0.2,0.1,0.4-0.1,0.5c-0.2,0.1-0.4,0-0.5-0.1c-1.3-0.9-2.5-1.8-3.8-2.7
	c0.3-0.3,0.5-0.3,0.9,0c1,0.7,1.9,1.4,2.9,2.1C138.7,161.8,138.8,161.7,138.8,161.7z"/>
<path class="st2" d="M171.3,119.9c-0.7-0.2-1.5-0.5-2.4-0.8c-0.2-0.1-0.4-0.1-0.6-0.2c-0.3-0.1-0.5-0.1-0.6,0.3c0,0.1,0,0.4-0.3,0.4
	c-0.3-0.1-0.2-0.3-0.1-0.5c0.3-0.5-0.2-0.5-0.5-0.6c-0.2-0.1-0.6,0-0.4-0.4c0.1-0.4,0.4-0.1,0.6-0.1c0.5,0.2,0.8,0.2,0.9-0.4
	c0-0.2,0.1-0.4,0.3-0.3c0.3,0.1,0.1,0.3,0.1,0.4c-0.2,0.5-0.1,0.6,0.4,0.8c0.8,0.2,1.6,0.5,2.3,0.8c0.5,0.2,0.9,0.2,1.1-0.5
	c0-0.1,0-0.3,0.2-0.2c0.1,0,0.2,0.1,0.2,0.3C172.5,119.4,172,119.9,171.3,119.9z"/>
<path class="st2" d="M119.9,167.8c0.2-0.5,0.5-0.9,1-1.1c0.2-0.1,0.3-0.1,0.4,0.1c0.1,0.3-0.1,0.3-0.2,0.3c-0.8,0.4-1.1,1-0.7,1.9
	c0.3,0.8,0.6,1.5,0.9,2.3c0.1,0.2,0.2,0.4-0.1,0.5c-0.3,0.1-0.3-0.2-0.4-0.3c-0.5-1.2-0.9-2.4-1.3-3.5c-0.1-0.2-0.4-0.5,0-0.6
	C119.8,167.2,119.7,167.6,119.9,167.8z"/>
<path class="st2" d="M153.9,143.4c0-0.5,0.1-0.9,0.4-1.2c0.1-0.1,0.2-0.2,0.4-0.1c0.2,0.1,0.1,0.2,0,0.4c-0.6,0.9-0.5,1.4,0.3,2.1
	c0.6,0.5,1.2,1,1.8,1.5c0.1,0.1,0.4,0.2,0.2,0.4c-0.2,0.2-0.3,0.1-0.5,0c-1-0.8-2.1-1.7-3.1-2.5c-0.1-0.1-0.3-0.2-0.2-0.4
	c0.2-0.3,0.3-0.1,0.5,0c0,0,0.1,0.1,0.1,0.1C154,143.5,154,143.4,153.9,143.4z"/>
<path class="st2" d="M133.6,161.1c0.1-0.5,0.3-1,0.8-1.2c0.1-0.1,0.3-0.1,0.4,0.1c0.1,0.2,0,0.2-0.1,0.3c-0.9,0.8-0.9,1.2-0.3,2.2
	c0.4,0.7,0.8,1.3,1.2,2c0.1,0.2,0.2,0.3,0,0.5c-0.3,0.2-0.3,0-0.4-0.2c-0.7-1.1-1.3-2.2-2-3.3c-0.1-0.2-0.3-0.3-0.1-0.5
	C133.3,160.6,133.4,161,133.6,161.1z"/>
<path class="st2" d="M168.5,115.7c0.1,0,0.2,0.1,0.3,0.1c1.2,0.4,2.5,0.8,3.7,1.2c0.2,0.1,0.4,0.1,0.3,0.4c-0.1,0.3-0.3,0.2-0.5,0.1
	c-1.3-0.4-2.6-0.8-3.9-1.2c-0.2-0.1-0.3-0.1-0.2-0.3C168.4,115.8,168.4,115.7,168.5,115.7z"/>
<path class="st2" d="M142.1,160.4c0,0.2-0.1,0.2-0.2,0.3c-0.2,0.1-0.3-0.1-0.3-0.2c-0.6-0.8-1.2-1.7-1.8-2.5
	c-0.2-0.3-0.4-0.6-0.6-0.9c-0.1-0.2-0.1-0.3,0.1-0.4c0.1-0.1,0.2-0.1,0.4,0.1c0.8,1.1,1.7,2.3,2.5,3.4
	C142.1,160.3,142.1,160.3,142.1,160.4z"/>
<path class="st2" d="M163.3,128.6c1.4,0.7,2.7,1.4,4,2.1c0.1,0.1,0.1,0.2,0,0.3c-0.1,0.2-0.3,0.1-0.4,0c-1-0.5-2-1-3-1.6
	c-0.2-0.1-0.4-0.2-0.7-0.3c-0.1-0.1-0.2-0.2-0.1-0.3C163.1,128.7,163.1,128.6,163.3,128.6z"/>
<path class="st2" d="M60.1,137.2c0,0.4-0.3,0.6-0.6,0.6c-0.4,0-0.5-0.3-0.5-0.6c0-0.3,0.2-0.6,0.6-0.6
	C59.9,136.6,60,136.8,60.1,137.2z"/>
<path class="st2" d="M78.1,143.1c0.3,0,0.6,0.2,0.5,0.6c0,0.4-0.3,0.5-0.6,0.5c-0.3,0-0.5-0.2-0.5-0.6
	C77.5,143.2,77.8,143.1,78.1,143.1z"/>
<path class="st2" d="M138.7,155.7c0,0.2-0.2,0.3-0.4,0.3c-0.2,0-0.3-0.2-0.3-0.4c0-0.2,0.1-0.3,0.3-0.3
	C138.6,155.3,138.7,155.5,138.7,155.7z"/>
<path class="st2" d="M167.4,115.5c0,0.2-0.1,0.4-0.3,0.4c-0.2,0-0.3-0.1-0.3-0.4c0-0.2,0.1-0.3,0.3-0.3
	C167.2,115.1,167.3,115.2,167.4,115.5z"/>
<path class="st2" d="M161.8,128.5c-0.2,0-0.3-0.1-0.3-0.3c0-0.2,0.1-0.4,0.4-0.4c0.2,0,0.3,0.1,0.3,0.3
	C162.1,128.3,162,128.5,161.8,128.5z"/>
<path class="st2" d="M122.8,80.8c0-0.5,0.2-0.8,0.4-1.2c3.4-9,6.8-18,10.2-27c0.2-0.5,0.4-0.6,0.9-0.6c0.6,0.1,1.3-0.2,1.7,0.1
	c0.4,0.3,0.5,1,0.7,1.5c3.3,8.8,6.7,17.6,10,26.5c0.3,0.7,0.3,0.7-0.5,0.7c-0.6,0-1.3,0.2-1.7-0.1c-0.5-0.3-0.5-1-0.7-1.6
	c-0.7-2-1.5-4-2.2-6c-0.1-0.4-0.3-0.5-0.7-0.5c-4,0-8,0-12,0c-0.4,0-0.6,0.1-0.7,0.5c-0.8,2.4-1.7,4.8-2.6,7.1
	c-0.1,0.4-0.3,0.5-0.7,0.5C124.1,80.8,123.4,80.8,122.8,80.8z M134.8,55.1c-0.1,0.2-0.1,0.3-0.2,0.3c-1.8,4.9-3.6,9.8-5.4,14.7
	c-0.2,0.5,0,0.5,0.4,0.5c3.4,0,6.9,0,10.3,0c0.6,0,0.6-0.2,0.4-0.6c-1-2.7-2-5.5-3-8.2C136.5,59.6,135.6,57.4,134.8,55.1z"/>
<path class="st2" d="M103.9,66.4c0-4.6,0-9.2,0-13.8c0-0.5,0.1-0.6,0.6-0.6c3.3,0,6.6,0,9.9,0c2.9,0.1,5.5,0.9,7.3,3.2
	c1.3,1.6,1.7,3.5,1.7,5.5c0,4.3-2.5,7.2-6.7,8c-1.3,0.2-2.6,0.3-3.9,0.2c-2,0-3.9,0-5.9,0c-0.5,0-0.6,0.1-0.6,0.6
	c0,3.5,0,7.1,0,10.6c0,0.5-0.1,0.7-0.6,0.6c-0.6-0.1-1.4,0.2-1.7-0.1c-0.4-0.3-0.1-1.1-0.1-1.8C103.9,74.8,103.9,70.6,103.9,66.4z
	 M106.4,60.4c0,2,0,4,0,6c0,0.2-0.1,0.5,0.3,0.5c2.9-0.1,5.9,0.2,8.8-0.2c2.4-0.3,4.3-1.4,5.1-3.9c0.8-2.6,0.5-5.1-1.5-7.1
	c-1.3-1.3-3.1-1.7-4.9-1.8c-2.4-0.1-4.9,0-7.3,0c-0.5,0-0.5,0.2-0.5,0.6C106.4,56.5,106.4,58.5,106.4,60.4z"/>
<path class="st2" d="M110.4,113.2c0,2.2,0,4.5,0.8,6.8c1,2.8,2.8,5,5.8,5.6c1.9,0.4,3.8,0.2,5.6-0.5c2.4-0.9,3.5-2.9,4-5.3
	c0.3-1.4,0.3-1.4,1.8-1.4c1,0,1,0,0.8,1c-1,5.3-4.6,8.3-10,8.4c-3.4,0.1-6.2-1-8.4-3.5c-1.5-1.8-2.4-3.9-2.7-6.2
	c-0.5-3.7-0.6-7.4,0.2-11.1c0.8-3.6,2.7-6.5,6.2-7.9c3.7-1.5,7.5-1.3,10.9,1c2.4,1.7,3.5,4.2,3.8,7.1c0,0.3,0,0.5-0.4,0.5
	c-0.6,0-1.3,0.2-1.8-0.1c-0.6-0.3-0.4-1.1-0.5-1.6c-1.1-4.4-4.5-5.9-8.5-5.6c-3.9,0.3-6.4,3.3-7.3,7.1
	C110.4,109.3,110.4,111.2,110.4,113.2z"/>
<path class="st2" d="M118.7,139.2c0,0.6,0,1.3,0,1.9c0,0.4,0.1,0.6,0.5,0.6c0.2,0,0.5-0.1,0.5,0.4c0,0.4-0.2,0.4-0.5,0.4
	c-0.4-0.1-0.6,0.1-0.5,0.5c0,0.2,0,0.5,0,0.7c0,0.4,0,0.6-0.5,0.6c-0.5,0-0.5-0.2-0.5-0.6c0-1.2,0-1.2-1.2-1.2c-0.6,0-1.1,0-1.7,0
	c-0.5,0-0.7-0.2-0.4-0.7c0.3-0.5,0.6-0.9,0.9-1.3c0.7-1.1,1.4-2.2,2.1-3.3c0.3-0.5,0.8-0.4,1.2-0.3c0.2,0,0.2,0.3,0.2,0.4
	C118.7,137.8,118.7,138.5,118.7,139.2z M117.7,138c-0.8,1.3-1.6,2.4-2.3,3.6c0.7,0,1.4,0,2,0c0.2,0,0.4,0,0.4-0.3
	C117.7,140.3,117.7,139.3,117.7,138z"/>
<path class="st2" d="M130.3,141.5c0,2-1.5,3.3-3.3,2.8c-1.2-0.4-1.8-1.6-1.7-3.3c0.1-1.3,1-2.2,2.2-2.4
	C129.1,138.3,130.3,139.5,130.3,141.5z M129.4,141.4c0-0.6-0.1-1.1-0.4-1.5c-0.6-0.8-1.7-0.8-2.3,0.1c-0.5,0.8-0.5,2.3,0,3.1
	c0.6,0.9,1.9,0.8,2.4-0.1C129.3,142.4,129.4,141.9,129.4,141.4z"/>
<path class="st2" d="M103.6,141.4c0-2.1,1.5-3.3,3.3-2.8c1.4,0.4,2.1,2.2,1.6,3.9c-0.4,1.4-1.8,2.1-3.2,1.7
	C104.2,143.9,103.6,142.8,103.6,141.4z M107.7,141.3c0-0.5-0.1-1.1-0.4-1.5c-0.6-0.8-1.8-0.8-2.4,0c-0.5,0.8-0.5,2.3,0,3
	c0.6,0.9,1.9,0.9,2.5-0.1C107.6,142.4,107.7,141.9,107.7,141.3z"/>
<path class="st2" d="M122.5,144.3c-1.1,0-1.9-0.5-2.2-1.2c-0.1-0.2-0.3-0.5,0.1-0.6c0.3-0.1,0.6-0.2,0.8,0.2
	c0.4,0.8,1.2,1.1,1.9,0.7c0.3-0.1,0.5-0.3,0.5-0.7c0-0.4-0.1-0.6-0.5-0.8c-0.5-0.2-1-0.3-1.5-0.5c-0.9-0.3-1.3-0.8-1.3-1.5
	c0-0.7,0.6-1.3,1.5-1.5c1.1-0.2,2.2,0.2,2.5,1c0.1,0.2,0.3,0.5,0,0.7c-0.3,0.1-0.6,0.2-0.9-0.2c-0.3-0.6-0.9-0.8-1.6-0.6
	c-0.4,0.1-0.6,0.3-0.6,0.8c0,0.4,0.2,0.6,0.6,0.7c0.3,0.1,0.7,0.2,1,0.3c1.3,0.4,1.8,0.9,1.6,1.8
	C124.5,143.7,123.7,144.3,122.5,144.3z"/>
<path class="st2" d="M100.6,144.3c-1,0-1.9-0.5-2.1-1.3c-0.1-0.2-0.2-0.5,0-0.5c0.3-0.1,0.6-0.2,0.8,0.2c0.4,0.8,1.2,1.1,2,0.7
	c0.3-0.1,0.5-0.3,0.5-0.7c0-0.3-0.1-0.6-0.4-0.7c-0.3-0.1-0.6-0.2-1-0.3c-0.2-0.1-0.3-0.1-0.5-0.1c-1-0.3-1.4-0.8-1.4-1.6
	c0.1-0.8,0.7-1.4,1.6-1.5c1-0.2,2,0.3,2.4,1c0.1,0.2,0.3,0.5,0,0.6c-0.3,0.1-0.6,0.2-0.9-0.2c-0.4-0.7-1.1-0.9-1.7-0.6
	c-0.3,0.2-0.5,0.4-0.5,0.7c0,0.4,0.2,0.5,0.5,0.7c0.4,0.1,0.9,0.2,1.3,0.4c1.1,0.3,1.6,0.9,1.5,1.7c-0.1,0.9-0.8,1.5-1.9,1.5
	C100.8,144.3,100.7,144.3,100.6,144.3z"/>
<path class="st2" d="M110.2,141.5c0,0.4,0.1,0.9,0.3,1.3c0.2,0.5,0.6,0.8,1.2,0.8c0.6,0,1-0.2,1.3-0.7c0.1-0.1,0.1-0.3,0.3-0.3
	c0.2,0,0.5-0.1,0.6,0.1c0.2,0.1,0,0.4-0.1,0.6c-0.5,0.8-1.2,1.2-2.1,1.2c-1,0-1.7-0.5-2.1-1.4c-0.4-1-0.4-2,0-3
	c0.4-0.9,1.2-1.4,2.2-1.4c0.9,0,1.6,0.4,2,1.2c0.1,0.2,0.4,0.6,0,0.8c-0.3,0.1-0.7,0.2-0.9-0.4c-0.1-0.5-0.6-0.8-1.2-0.8
	c-0.6,0-1,0.2-1.3,0.7C110.2,140.5,110.2,141,110.2,141.5z"/>
<path class="st3" d="M153.9,143.4c0,0.1,0.1,0.1,0,0.2c0,0-0.1,0-0.1-0.1C153.9,143.5,153.9,143.4,153.9,143.4z"/>
</svg>
