<svg width="793" height="388" xmlns="http://www.w3.org/2000/svg" xmlns:xlink="http://www.w3.org/1999/xlink"><defs><path d="M10.787 200c-5.39 0-9.972-3.376-10.787-7.948l.636-181C-.374 5.382 4.74.27 11.424.27h278.792c6.758 0 11.892 5.218 10.759 10.935l-1.96 181c-.892 4.502-5.437 7.795-10.758 7.795H10.787z" id="b"/><filter x="-2.2%" y="-2.8%" width="104.3%" height="106.5%" filterUnits="objectBoundingBox" id="a"><feOffset dy="1" in="SourceAlpha" result="shadowOffsetOuter1"/><feGaussianBlur stdDeviation="2" in="shadowOffsetOuter1" result="shadowBlurOuter1"/><feColorMatrix values="0 0 0 0 0 0 0 0 0 0 0 0 0 0 0 0 0 0 0.2 0" in="shadowBlurOuter1"/></filter><path d="M10.787 200c-5.39 0-9.972-3.376-10.787-7.948l.636-181C-.374 5.382 4.74.27 11.424.27h278.792c6.758 0 11.892 5.218 10.759 10.935l-1.96 181c-.892 4.502-5.437 7.795-10.758 7.795H10.787z" id="d"/><filter x="-2.2%" y="-2.8%" width="104.3%" height="106.5%" filterUnits="objectBoundingBox" id="c"><feOffset dy="1" in="SourceAlpha" result="shadowOffsetOuter1"/><feGaussianBlur stdDeviation="2" in="shadowOffsetOuter1" result="shadowBlurOuter1"/><feColorMatrix values="0 0 0 0 0 0 0 0 0 0 0 0 0 0 0 0 0 0 0.2 0" in="shadowBlurOuter1"/></filter><path d="M10.787 200c-5.39 0-9.972-3.376-10.787-7.948l.636-181C-.374 5.382 4.74.27 11.424.27h278.792c6.758 0 11.892 5.218 10.759 10.935l-1.96 181c-.892 4.502-5.437 7.795-10.758 7.795H10.787z" id="f"/><filter x="-2.8%" y="-3.3%" width="105.6%" height="108.5%" filterUnits="objectBoundingBox" id="e"><feOffset dy="2" in="SourceAlpha" result="shadowOffsetOuter1"/><feGaussianBlur stdDeviation="2.5" in="shadowOffsetOuter1" result="shadowBlurOuter1"/><feColorMatrix values="0 0 0 0 0 0 0 0 0 0 0 0 0 0 0 0 0 0 0.18 0" in="shadowBlurOuter1"/></filter><path d="M10.787 199.73c-5.39 0-9.972-3.377-10.787-7.948l.636-181C-.374 5.11 4.74 0 11.424 0h278.792c6.758 0 11.892 5.217 10.759 10.935l-1.96 181c-.892 4.501-5.437 7.795-10.758 7.795H10.787z" id="h"/><filter x="-4.8%" y="-4.8%" width="109.6%" height="114.5%" filterUnits="objectBoundingBox" id="g"><feOffset dy="5" in="SourceAlpha" result="shadowOffsetOuter1"/><feGaussianBlur stdDeviation="4" in="shadowOffsetOuter1" result="shadowBlurOuter1"/><feColorMatrix values="0 0 0 0 0 0 0 0 0 0 0 0 0 0 0 0 0 0 0.18 0" in="shadowBlurOuter1"/></filter></defs><g fill="none" fill-rule="evenodd"><g opacity=".153"><g transform="translate(4 157)"><use fill="#000" filter="url(#a)" xlink:href="#b"/><use fill="#FFF" xlink:href="#b"/></g><path fill="#CE2011" d="M27 189.27h149v12H27z"/><path fill="#FA8E23" d="M27 221.27h209v12H27z"/><path fill="#27B340" d="M27 251.27h179v12H27zM27 283.27h89v12H27zM27 314.27h189v12H27z"/></g><g opacity=".6"><g transform="translate(164 105)"><use fill="#000" filter="url(#c)" xlink:href="#d"/><use fill="#FFF" xlink:href="#d"/></g><path fill="#CE2011" d="M187 137.27h149v12H187zM187 169.27h209v12H187z"/><path fill="#27B340" d="M187 199.27h179v12H187zM187 231.27h89v12h-89zM187 262.27h189v12H187z"/></g><g opacity=".843"><g transform="translate(324 54)"><use fill="#000" filter="url(#e)" xlink:href="#f"/><use fill="#FFF" xlink:href="#f"/></g><path fill="#27B340" d="M347 86.27h149v12H347zM347 118.27h209v12H347z"/><path fill="#FA8E23" d="M347 148.27h179v12H347zM347 180.27h89v12h-89z"/><path fill="#CE2011" d="M347 211.27h189v12H347z"/></g><g transform="translate(484 3)"><use fill="#000" filter="url(#g)" xlink:href="#h"/><use fill="#FFF" xlink:href="#h"/></g><path fill="#27B340" d="M507 35h149v12H507zM507 67h209v12H507zM507 97h179v12H507zM507 160h189v12H507zM506 129h89v12h-89z"/><path d="M695.997 219.732l.468 8.268h-1.008l-.252-4.32c-.072-1.14-.072-2.58-.072-2.988l-1.392 5.82h-1.044l-1.488-5.82c.024.456.036 1.956-.024 2.988l-.216 4.32h-.984l.468-8.268h1.452l1.344 5.664 1.284-5.664h1.464zm2.507 5.46c.048 1.464.864 2.1 1.836 2.1.648 0 1.128-.192 1.692-.564l.468.672a3.605 3.605 0 0 1-2.16.732c-1.848 0-2.892-1.32-2.892-3.288 0-1.908 1.068-3.3 2.748-3.3 1.596 0 2.58 1.188 2.58 3.108 0 .216-.012.408-.024.54h-4.248zm1.704-2.82c-.936 0-1.62.66-1.704 2.052h3.288c-.024-1.356-.624-2.052-1.584-2.052zm8.639-.828c.348 0 .612.06.888.132l-.144 2.148h-.816v-1.356h-.06c-.972 0-1.668.696-2.076 2.088v2.664h1.284v.78h-3.288v-.78h.996v-4.764h-.996v-.78h1.752l.192 1.5c.48-1.032 1.128-1.632 2.268-1.632zm7.751-.528l.3.948c-.528.168-1.14.18-1.848.18.744.336 1.104.876 1.104 1.596 0 1.248-.876 2.148-2.376 2.148-.42 0-.672-.036-.948-.132-.18.144-.324.384-.324.612 0 .3.192.54.84.54h1.14c1.272 0 2.232.732 2.232 1.716 0 1.236-1.092 1.92-3.012 1.92-2.016 0-2.664-.624-2.664-1.908h.912c0 .744.336 1.092 1.752 1.092 1.38 0 1.992-.36 1.992-1.044 0-.6-.612-.9-1.416-.9h-1.128c-1.104 0-1.596-.564-1.596-1.2 0-.396.24-.804.696-1.104-.72-.372-1.056-.924-1.056-1.74 0-1.284 1.02-2.196 2.52-2.196 1.584 0 2.136-.216 2.88-.528zm-2.892 1.272c-1.02 0-1.476.6-1.476 1.452 0 .864.468 1.476 1.5 1.476.9 0 1.38-.552 1.38-1.488 0-.948-.468-1.44-1.404-1.44zm5.423 2.904c.048 1.464.864 2.1 1.836 2.1.648 0 1.128-.192 1.692-.564l.468.672a3.605 3.605 0 0 1-2.16.732c-1.848 0-2.892-1.32-2.892-3.288 0-1.908 1.068-3.3 2.748-3.3 1.596 0 2.58 1.188 2.58 3.108 0 .216-.012.408-.024.54h-4.248zm1.704-2.82c-.936 0-1.62.66-1.704 2.052h3.288c-.024-1.356-.624-2.052-1.584-2.052zm8.159-3.36l1.008.12V228h-.888l-.096-.828c-.468.66-1.104.96-1.788.96-1.656 0-2.412-1.32-2.412-3.288 0-1.896.924-3.3 2.472-3.3.732 0 1.272.264 1.704.756v-3.288zm-1.44 3.348c-1.044 0-1.644.816-1.644 2.484 0 1.644.528 2.484 1.524 2.484.72 0 1.212-.48 1.56-1.008v-3.144c-.348-.516-.852-.816-1.44-.816zm15.67-.816c.348 0 .612.06.888.132l-.144 2.148h-.816v-1.356h-.06c-.972 0-1.668.696-2.076 2.088v2.664h1.284v.78h-3.288v-.78h.996v-4.764h-.996v-.78h1.752l.192 1.5c.48-1.032 1.128-1.632 2.268-1.632zm3.407 3.648c.048 1.464.864 2.1 1.836 2.1.648 0 1.128-.192 1.692-.564l.468.672a3.605 3.605 0 0 1-2.16.732c-1.848 0-2.892-1.32-2.892-3.288 0-1.908 1.068-3.3 2.748-3.3 1.596 0 2.58 1.188 2.58 3.108 0 .216-.012.408-.024.54h-4.248zm1.704-2.82c-.936 0-1.62.66-1.704 2.052h3.288c-.024-1.356-.624-2.052-1.584-2.052zm7.199-.828c1.68 0 2.292 1.308 2.292 3.288 0 1.92-.792 3.3-2.436 3.3-.696 0-1.248-.24-1.68-.72v3.012l-1.008.12v-8.868h.864l.084.888c.456-.648 1.128-1.02 1.884-1.02zm-.24.816c-.696 0-1.236.504-1.584 1.008v3.132c.336.492.852.792 1.452.792 1.044 0 1.572-.78 1.572-2.46 0-1.644-.444-2.472-1.44-2.472zm6.695-.816c1.776 0 2.712 1.296 2.712 3.288 0 1.944-.96 3.3-2.724 3.3-1.776 0-2.724-1.296-2.724-3.288 0-1.944.96-3.3 2.736-3.3zm0 .828c-1.092 0-1.644.792-1.644 2.472s.54 2.46 1.632 2.46c1.092 0 1.632-.78 1.632-2.472 0-1.668-.54-2.46-1.62-2.46zm8.735-.828c.348 0 .612.06.888.132l-.144 2.148h-.816v-1.356h-.06c-.972 0-1.668.696-2.076 2.088v2.664h1.284v.78h-3.288v-.78h.996v-4.764h-.996v-.78h1.752l.192 1.5c.48-1.032 1.128-1.632 2.268-1.632zm7.631 6.132c-.444.288-1.104.456-1.704.456-1.356 0-2.124-.792-2.124-1.896v-3.768h-1.452v-.792h1.452v-1.428l1.008-.12v1.548h2.196l-.132.792h-2.064v3.756c0 .696.348 1.068 1.212 1.068.468 0 .876-.12 1.212-.3l.396.684z" fill="#999FA7"/><g><path d="M234.73 379.648c0 1.8-1.584 2.352-3.096 2.352h-2.232v-8.268h2.04c1.452 0 2.928.468 2.928 2.088 0 1.068-.756 1.62-1.548 1.8.924.156 1.908.624 1.908 2.028zm-1.428-3.768c0-.948-.624-1.296-1.62-1.296h-1.236v2.664h1.332c.972 0 1.524-.408 1.524-1.368zm.324 3.804c0-1.26-.804-1.572-1.776-1.572h-1.404v3.024h1.368c.804 0 1.812-.228 1.812-1.452zm3.707-4.008v4.488c0 .816.336 1.176 1.068 1.176.696 0 1.368-.468 1.716-1.008v-4.656h1.008V382h-.864l-.084-.852a2.628 2.628 0 0 1-2.028.984c-1.224 0-1.824-.684-1.824-1.86v-4.596h1.008zm8.267-2.952c.444 0 .744.3.744.708s-.3.708-.744.708c-.432 0-.72-.3-.72-.708s.288-.708.72-.708zm.804 2.952v5.52h1.776V382h-4.728v-.804h1.944v-4.716h-1.884v-.804h2.892zm6.143-2.544v7.308c0 .624.432.852 1.044.852.372 0 .708-.084 1.056-.216l.264.732c-.336.18-.852.324-1.5.324-1.116 0-1.872-.648-1.872-1.74v-6.456h-1.944v-.804h2.952zm8.195-.12l1.008.12V382h-.888l-.096-.828c-.468.66-1.104.96-1.788.96-1.656 0-2.412-1.32-2.412-3.288 0-1.896.924-3.3 2.472-3.3.732 0 1.272.264 1.704.756v-3.288zm-1.44 3.348c-1.044 0-1.644.816-1.644 2.484 0 1.644.528 2.484 1.524 2.484.72 0 1.212-.48 1.56-1.008v-3.144c-.348-.516-.852-.816-1.44-.816zm14.686 4.824h1.716V382h-4.764v-.816h2.028v-6.348l-1.884 1.14-.444-.708 2.46-1.536h.888v7.452zm6.875 0h1.716V382h-4.764v-.816h2.028v-6.348l-1.884 1.14-.444-.708 2.46-1.536h.888v7.452zm4.919-.108c0-.588.456-1.056 1.056-1.056.612 0 1.056.468 1.056 1.056 0 .6-.444 1.056-1.056 1.056-.6 0-1.056-.456-1.056-1.056zm8.831.108h1.716V382h-4.764v-.816h2.028v-6.348l-1.884 1.14-.444-.708 2.46-1.536h.888v7.452z" fill="#999FA7"/><path d="M223.334 373.76v8.185l5.801 4.606h72.71v-17.006h-72.71z" stroke="#999FA7"/></g><g><path d="M396.73 328.648c0 1.8-1.584 2.352-3.096 2.352h-2.232v-8.268h2.04c1.452 0 2.928.468 2.928 2.088 0 1.068-.756 1.62-1.548 1.8.924.156 1.908.624 1.908 2.028zm-1.428-3.768c0-.948-.624-1.296-1.62-1.296h-1.236v2.664h1.332c.972 0 1.524-.408 1.524-1.368zm.324 3.804c0-1.26-.804-1.572-1.776-1.572h-1.404v3.024h1.368c.804 0 1.812-.228 1.812-1.452zm3.707-4.008v4.488c0 .816.336 1.176 1.068 1.176.696 0 1.368-.468 1.716-1.008v-4.656h1.008V331h-.864l-.084-.852a2.628 2.628 0 0 1-2.028.984c-1.224 0-1.824-.684-1.824-1.86v-4.596h1.008zm8.267-2.952c.444 0 .744.3.744.708s-.3.708-.744.708c-.432 0-.72-.3-.72-.708s.288-.708.72-.708zm.804 2.952v5.52h1.776V331h-4.728v-.804h1.944v-4.716h-1.884v-.804h2.892zm6.143-2.544v7.308c0 .624.432.852 1.044.852.372 0 .708-.084 1.056-.216l.264.732c-.336.18-.852.324-1.5.324-1.116 0-1.872-.648-1.872-1.74v-6.456h-1.944v-.804h2.952zm8.195-.12l1.008.12V331h-.888l-.096-.828c-.468.66-1.104.96-1.788.96-1.656 0-2.412-1.32-2.412-3.288 0-1.896.924-3.3 2.472-3.3.732 0 1.272.264 1.704.756v-3.288zm-1.44 3.348c-1.044 0-1.644.816-1.644 2.484 0 1.644.528 2.484 1.524 2.484.72 0 1.212-.48 1.56-1.008v-3.144c-.348-.516-.852-.816-1.44-.816zm14.686 4.824h1.716V331h-4.764v-.816h2.028v-6.348l-1.884 1.14-.444-.708 2.46-1.536h.888v7.452zm6.875 0h1.716V331h-4.764v-.816h2.028v-6.348l-1.884 1.14-.444-.708 2.46-1.536h.888v7.452zm4.919-.108c0-.588.456-1.056 1.056-1.056.612 0 1.056.468 1.056 1.056 0 .6-.444 1.056-1.056 1.056-.6 0-1.056-.456-1.056-1.056zm7.571-7.476c1.56 0 2.496.996 2.496 2.304 0 1.524-.972 2.748-3.696 5.232h3.888l-.12.864h-4.92v-.816c3.12-2.988 3.792-3.9 3.792-5.244 0-.924-.564-1.488-1.488-1.488-.804 0-1.248.264-1.776.876l-.696-.54c.648-.792 1.404-1.188 2.52-1.188z" fill="#999FA7"/><path d="M385.334 322.76v8.185l5.801 4.606h71.71v-17.006h-71.71z" stroke="#999FA7"/></g><g><path d="M556.586 271.732v5.592c0 1.68-1.08 2.808-2.748 2.808-1.704 0-2.724-1.14-2.724-2.808v-5.592h1.044v5.628c0 1.26.612 1.872 1.68 1.872 1.08 0 1.692-.612 1.692-1.872v-5.628h1.056zm1.739 8.268v-6.324h.864l.084.888c.504-.648 1.344-1.02 2.088-1.02 1.236 0 1.776.696 1.776 1.872V280h-1.008v-3.84c0-1.296-.132-1.812-1.08-1.812-.744 0-1.38.552-1.716 1.056V280h-1.008zm9.275-9.276c.444 0 .744.3.744.708s-.3.708-.744.708c-.432 0-.72-.3-.72-.708s.288-.708.72-.708zm.804 2.952v5.52h1.776V280h-4.728v-.804h1.944v-4.716h-1.884v-.804h2.892zm8.699 6c-.444.288-1.104.456-1.704.456-1.356 0-2.124-.792-2.124-1.896v-3.768h-1.452v-.792h1.452v-1.428l1.008-.12v1.548h2.196l-.132.792h-2.064v3.756c0 .696.348 1.068 1.212 1.068.468 0 .876-.12 1.212-.3l.396.684zm13.75 0c-.444.288-1.104.456-1.704.456-1.356 0-2.124-.792-2.124-1.896v-3.768h-1.452v-.792h1.452v-1.428l1.008-.12v1.548h2.196l-.132.792h-2.064v3.756c0 .696.348 1.068 1.212 1.068.468 0 .876-.12 1.212-.3l.396.684zm2.651-2.484c.048 1.464.864 2.1 1.836 2.1.648 0 1.128-.192 1.692-.564l.468.672a3.605 3.605 0 0 1-2.16.732c-1.848 0-2.892-1.32-2.892-3.288 0-1.908 1.068-3.3 2.748-3.3 1.596 0 2.58 1.188 2.58 3.108 0 .216-.012.408-.024.54h-4.248zm1.704-2.82c-.936 0-1.62.66-1.704 2.052h3.288c-.024-1.356-.624-2.052-1.584-2.052zm6.527 4.932c.972 0 1.56-.396 1.56-1.008 0-.564-.18-.864-1.524-1.2-1.308-.324-2.16-.72-2.16-1.824 0-1.056.972-1.728 2.4-1.728 1.02 0 1.764.312 2.304.696l-.456.696a3.002 3.002 0 0 0-1.824-.576c-1.008 0-1.368.348-1.368.828 0 .576.396.768 1.668 1.116 1.236.336 2.052.768 2.052 1.944 0 1.356-1.308 1.884-2.652 1.884-1.152 0-1.932-.384-2.472-.852l.564-.66a3.003 3.003 0 0 0 1.908.684zm9.743.372c-.444.288-1.104.456-1.704.456-1.356 0-2.124-.792-2.124-1.896v-3.768h-1.452v-.792h1.452v-1.428l1.008-.12v1.548h2.196l-.132.792h-2.064v3.756c0 .696.348 1.068 1.212 1.068.468 0 .876-.12 1.212-.3l.396.684zm4.007-.372c.972 0 1.56-.396 1.56-1.008 0-.564-.18-.864-1.524-1.2-1.308-.324-2.16-.72-2.16-1.824 0-1.056.972-1.728 2.4-1.728 1.02 0 1.764.312 2.304.696l-.456.696a3.002 3.002 0 0 0-1.824-.576c-1.008 0-1.368.348-1.368.828 0 .576.396.768 1.668 1.116 1.236.336 2.052.768 2.052 1.944 0 1.356-1.308 1.884-2.652 1.884-1.152 0-1.932-.384-2.472-.852l.564-.66a3.003 3.003 0 0 0 1.908.684z" fill="#999FA7"/><path d="M544.334 271.76v8.185l5.801 4.606h72.71v-17.006h-72.71z" stroke="#999FA7"/></g><g stroke="#999FA7"><path d="M683.334 219.76v8.185l5.801 4.606h93.71v-17.006h-93.71z"/></g></g></svg>