<?xml version="1.0" encoding="utf-8"?>
<!-- Generator: Adobe Illustrator 22.0.1, SVG Export Plug-In . SVG Version: 6.00 Build 0)  -->
<svg version="1.1" id="Layer_1" xmlns="http://www.w3.org/2000/svg" xmlns:xlink="http://www.w3.org/1999/xlink" x="0px" y="0px"
	 viewBox="0 0 391.2 280.9" style="enable-background:new 0 0 391.2 280.9;" xml:space="preserve">
<style type="text/css">
	.st0{fill:#FFFFFF;}
</style>
<path d="M199.5,0c53.8-0.8,101.8,45.1,99.7,103.4c-1.9,51.4-43,96.3-99.9,96.4c-56.1,0-100-44.3-100-100.3
	C99.3,42.9,145.6-0.7,199.5,0z M183.1,105.8c1.8,1.3,3,2.1,4.2,3c15.8,12.7,31.6,25.4,47.3,38.2c3.1,2.6,6.4,3.6,9.9,1.1
	c3.7-2.6,3.5-6.1,1.9-9.8c-13-31.4-26.1-62.8-39.1-94.2c-1.4-3.5-4-5.5-7.3-4.3c-2.4,0.8-5,3.2-6,5.6c-10.5,24.6-20.7,49.3-31,74
	c-4,9.7-8.1,19.4-12.3,29.6c3.6,0,6.5-0.4,9.2,0.1c4.7,0.7,6.6-1.4,8.2-5.5C172.9,131.1,178,118.8,183.1,105.8z"/>
<path d="M266.3,256.1c6.4,3.3,9,7.7,7.8,14.2c-1,5.1-4.9,9-11.6,9.8c-6.9,0.8-13.9,0.7-20.9,0.5c-1.4,0-3.8-2.5-3.8-3.9
	c-0.3-12.7-0.2-25.3-0.2-38c0-2.9,1.5-4.2,4.4-4.2c5.5,0.1,11,0.2,16.5,0.3c5.4,0.1,10,2,12.1,7.1
	C272.8,247.1,271.3,252,266.3,256.1z M244.4,260c0,5.3,0,9.9,0,15c5.9,0,11.5,0.3,17.1-0.1c4.2-0.3,6.5-3.3,6.6-7.4
	c0.1-4.2-2.4-7.1-6.5-7.4C255.9,259.7,250.3,260,244.4,260z M244.3,254.7c5.3-0.2,10.1-0.1,14.8-0.8c3.8-0.5,6.1-3.3,5.9-7.3
	c-0.2-3.9-2.8-6.1-6.3-6.4c-4.7-0.4-9.5-0.1-14.4-0.1C244.3,245,244.3,249.4,244.3,254.7z"/>
<path d="M74.2,280.6c-2.3,0-3.9,0-6.2,0c0-2.6,0-5,0-7.5c0-11.5-0.1-23,0.1-34.5c0-1.5,1.3-3,2-4.5c1.5,0.8,3.4,1.3,4.3,2.5
	c8.4,10.5,16.5,21.2,25.4,32.6c0-11.9,0-22.9,0-34.5c2.2-0.1,3.9-0.2,6.3-0.3c0,6.3,0,12.2,0,18.1c0,7.8,0.1,15.7-0.1,23.5
	c0,1.6-1.3,3.1-2,4.6c-1.6-0.8-3.8-1.2-4.8-2.5c-7.3-9.2-14.4-18.7-21.6-28c-0.9-1.1-1.9-2.1-3.5-3.9
	C74.2,258.2,74.2,269.1,74.2,280.6z"/>
<path d="M391.2,235.3c-0.5,2-1,3.5-1.3,4.7c-7,0-13.6-0.2-20.2,0.1c-4.3,0.2-7.2,2.6-6.6,7.5c0.6,4.6,3.8,6.3,8,6.4
	c3.3,0.1,6.7-0.3,10,0.2c1.5,0.2,2.8,1.9,4.2,2.9c-1.5,1-2.9,2.6-4.4,2.8c-3.8,0.4-7.6,0.1-11.5,0.1c-4.4,0-7.5,2.2-8.1,6.5
	c-0.6,4.4,2.3,7.8,6.3,8.2c7.2,0.7,14.4,0.2,22.3,0.2c1.6,2.5,2.4,5.2-3,5.2c-7.1,0.1-14.2,0.5-21.2-0.2c-5.5-0.5-9.4-4.2-10.6-9.8
	c-1.3-5.8,0.7-9.5,6.7-13.8c-3.4-3.3-6.4-6.8-5.3-12.1c1.4-6.2,6.6-10,14.5-10.3c3.3-0.1,6.7-0.2,10,0
	C384.2,234.2,387.3,234.8,391.2,235.3z"/>
<path d="M13.7,262.4c-2,4.8-3.8,9.2-5.5,13.6c-2,5.1-2,5.1-8.1,4.4c2.1-5.3,4.1-10.4,6.3-15.5c3.9-9.3,7.7-18.6,11.8-27.8
	c0.6-1.3,2.1-2.6,3.4-2.8c0.7-0.1,2.3,1.6,2.8,2.8c5.5,12.9,10.9,25.8,16.1,38.9c0.5,1.2,0.1,3.6-0.7,4.2c-0.9,0.6-3.2,0.3-4.2-0.5
	C28.2,274.1,21.1,268.4,13.7,262.4z M30.6,268.8c0.2-0.2,0.5-0.4,0.7-0.5c-3.2-7.9-6.4-15.7-10.1-24.6c-1.9,4.5-3.4,7.8-4.5,11.2
	c-0.4,1.1,0,3.1,0.9,3.8C21.7,262.2,26.2,265.5,30.6,268.8z"/>
<path d="M170.2,236.3c-0.6,1.9-1,3.1-1.2,3.7c-7,0-13.7-0.3-20.4,0.2c-2.1,0.2-4.1,2.5-6.1,3.9c1.4,2.1,2.3,4.9,4.2,6
	c5.3,3.2,11.1,5.7,16.7,8.7c3.7,2,7.2,4.3,7.8,9c0.8,6.6-4.3,12.7-12,13.1c-6.7,0.3-13.4-0.9-20.1-1.6c-4.5-0.5-4.7-2.8-3.1-4.9
	c8.2,0.3,15.5,0.9,22.8,0.5c2.1-0.1,5.1-2.9,5.7-5c0.4-1.5-2.2-4.6-4.2-5.8c-6.1-3.7-12.7-6.4-18.7-10.2c-2.4-1.5-4.5-4.6-5.2-7.4
	c-1.4-5.4,1.7-9.9,7.1-11.3C152.3,232.8,161.1,233.8,170.2,236.3z"/>
<path d="M308,275.2c8.9,0,16.8,0,24.9,0c0,1.9,0,3.5,0,5.6c-9.3,0-18.5,0.2-27.6-0.2c-1.4-0.1-3.8-2.6-3.8-4
	c-0.3-13.8-0.2-27.6-0.2-41.7c2.3,0,4.2,0,6.7,0C308,248.1,308,261.3,308,275.2z"/>
<path d="M205.9,234.8c0,15.3,0,30.3,0,45.7c-1.9,0-3.6,0-5.6,0c0-15.3,0-30.3,0-45.7C202.1,234.8,203.9,234.8,205.9,234.8z"/>
<path class="st0" d="M183.1,105.8c-5.2,13-10.3,25.3-14.9,37.8c-1.5,4.1-3.5,6.2-8.2,5.5c-2.8-0.4-5.6-0.1-9.2-0.1
	c4.2-10.2,8.3-19.9,12.3-29.6c10.3-24.7,20.5-49.4,31-74c1-2.3,3.6-4.8,6-5.6c3.3-1.1,5.9,0.8,7.3,4.3c13,31.4,26,62.8,39.1,94.2
	c1.5,3.7,1.7,7.2-1.9,9.8c-3.5,2.5-6.8,1.4-9.9-1.1c-15.7-12.8-31.5-25.5-47.3-38.2C186.2,107.9,184.9,107.1,183.1,105.8z
	 M200.9,61.2c-4.3,10.7-8.2,20.4-11.8,30.1c-0.4,1.2,0.1,3.5,1.1,4.3c11.7,9.5,23.5,18.7,36.4,29C217.8,102.8,209.5,82.4,200.9,61.2
	z"/>
<path d="M200.9,61.2c8.6,21.3,16.9,41.6,25.7,63.4c-12.9-10.2-24.7-19.5-36.4-29c-1-0.8-1.5-3.1-1.1-4.3
	C192.8,81.5,196.7,71.9,200.9,61.2z"/>
</svg>
