<?xml version="1.0" encoding="utf-8"?>
<!-- Generator: Adobe Illustrator 22.0.1, SVG Export Plug-In . SVG Version: 6.00 Build 0)  -->
<svg version="1.1" id="Apache_Logo_Horizontal" xmlns="http://www.w3.org/2000/svg" xmlns:xlink="http://www.w3.org/1999/xlink"
	 x="0px" y="0px" viewBox="0 0 4059.1 1713.9" enable-background="new 0 0 4059.1 1713.9" xml:space="preserve">
<path fill="#D22128" d="M933.7,1098.5l247.5-591.6h47.5l247.5,591.6h-62.5l-76.7-185h-265.8l-75.8,185H933.7z M1205.4,575.2
	l-121.7,292.5h240L1205.4,575.2z"/>
<path fill="#D22128" d="M1540.1,1098.5V506.9h245c101.7,0,175,94.2,175,185.8c0,96.7-68.3,187.5-170,187.5h-192.5v218.3H1540.1z
	 M1597.6,828.5h189.1c70,0,115-64.2,115-135.8c0-74.2-55-134.2-120-134.2h-184.1V828.5z"/>
<path fill="#D22128" d="M1927.7,1098.5l247.5-591.6h47.5l247.5,591.6h-62.5l-76.7-185h-265.8l-75.8,185H1927.7z M2199.3,575.2
	l-121.7,292.5h240L2199.3,575.2z"/>
<path fill="#D22128" d="M2750.1,503.6c105,0,181.6,53.3,218.3,129.2l-46.7,28.3c-37.5-78.3-110.8-105-175-105
	c-141.7,0-219.1,126.7-219.1,245.8c0,130.8,95.8,249.1,221.6,249.1c66.7,0,145-33.3,182.5-110l48.3,25
	c-38.3,88.3-143.3,137.5-234.1,137.5c-162.5,0-276.6-155-276.6-305C2469.3,656,2571.7,503.6,2750.1,503.6z"/>
<path fill="#D22128" d="M3528,506.9v591.6h-58.3V821.9h-350.8v276.6h-57.5V506.9h57.5v263.3h350.8V506.9H3528z"/>
<path fill="#D22128" d="M4059.1,1046.8v51.7h-397.5V506.9h390v51.7h-332.5v213.3h290V821h-290v225.8H4059.1z"/>
<linearGradient id="SVGID_1_" gradientUnits="userSpaceOnUse" x1="-4229.6655" y1="-4143.6401" x2="-3987.5886" y2="-3860.573" gradientTransform="matrix(0.4226 -0.9063 0.9063 0.4226 6189.0356 -1936.8361)">
	<stop  offset="0" style="stop-color:#F69923"/>
	<stop  offset="0.3123" style="stop-color:#F79A23"/>
	<stop  offset="0.8383" style="stop-color:#E97826"/>
</linearGradient>
<path fill="url(#SVGID_1_)" d="M729.5,8.1C702.6,24,657.9,68.9,604.6,134l49,92.5c34.4-49.2,69.3-93.4,104.5-131.2
	c2.7-3,4.1-4.4,4.1-4.4c-1.4,1.5-2.7,3-4.1,4.4c-11.4,12.6-46,52.9-98.2,133.1c50.2-2.5,127.5-12.8,190.4-23.5
	c18.7-105-18.4-153-18.4-153S784.8-24.6,729.5,8.1z"/>
<path fill="none" d="M646.5,535.5c0.4-0.1,0.7-0.1,1.1-0.2l-7.1,0.8c-0.4,0.2-0.8,0.4-1.2,0.6C641.7,536.3,644.1,535.9,646.5,535.5z
	"/>
<path fill="none" d="M596.5,701.1c-4,0.9-8.1,1.6-12.3,2.2C588.4,702.7,592.5,702,596.5,701.1z"/>
<path fill="none" d="M256.7,1072.7c0.5-1.4,1-2.8,1.6-4.1c10.8-28.5,21.5-56.1,32-83.1c11.9-30.2,23.6-59.5,35.2-87.9
	c12.2-29.9,24.3-58.8,36.1-86.8c12.5-29.3,24.7-57.5,36.8-84.7c9.8-22.1,19.5-43.5,29-64.2c3.2-6.9,6.3-13.7,9.5-20.5
	c6.2-13.4,12.4-26.6,18.5-39.4c5.6-11.9,11.2-23.5,16.8-34.9c1.8-3.8,3.7-7.6,5.5-11.3c0.3-0.6,0.6-1.2,0.9-1.8l-6,0.7l-4.8-9.4
	c-0.5,0.9-0.9,1.8-1.4,2.7c-8.6,17.1-17.1,34.3-25.6,51.7c-4.9,10-9.7,20.1-14.6,30.3c-13.4,28.1-26.5,56.5-39.5,85
	c-13.1,28.8-25.9,57.8-38.5,86.9c-12.4,28.5-24.5,57.1-36.3,85.5c-11.8,28.4-23.4,56.8-34.7,84.9c-11.8,29.4-23.3,58.5-34.4,87.3
	c-2.5,6.5-5,13-7.5,19.4c-8.9,23.2-17.6,46.2-26.1,68.8l7.5,14.9l6.7-0.7c0.2-0.7,0.5-1.4,0.7-2
	C235.2,1129.9,246,1100.9,256.7,1072.7z"/>
<path fill="none" d="M581.2,703.8L581.2,703.8C581.2,703.8,581.2,703.8,581.2,703.8C581.2,703.8,581.2,703.8,581.2,703.8z"/>
<path fill="#BE202E" d="M564.9,784.6c-6.3,1.1-12.7,2.2-19.3,3.4c0,0-0.1,0-0.1,0.1c3.3-0.5,6.6-1,9.9-1.6
	C558.6,785.9,561.8,785.3,564.9,784.6z"/>
<path opacity="0.35" fill="#BE202E" d="M564.9,784.6c-6.3,1.1-12.7,2.2-19.3,3.4c0,0-0.1,0-0.1,0.1c3.3-0.5,6.6-1,9.9-1.6
	C558.6,785.9,561.8,785.3,564.9,784.6z"/>
<path fill="#BE202E" d="M581.3,703.7C581.3,703.8,581.3,703.8,581.3,703.7c-0.1,0-0.1,0.1-0.1,0.1c1-0.1,2.1-0.3,3.1-0.5
	c4.2-0.6,8.3-1.3,12.3-2.2C591.6,702,586.5,702.9,581.3,703.7L581.3,703.7L581.3,703.7z"/>
<path opacity="0.35" fill="#BE202E" d="M581.3,703.7C581.3,703.8,581.3,703.8,581.3,703.7c-0.1,0-0.1,0.1-0.1,0.1
	c1-0.1,2.1-0.3,3.1-0.5c4.2-0.6,8.3-1.3,12.3-2.2C591.6,702,586.5,702.9,581.3,703.7L581.3,703.7L581.3,703.7z"/>
<linearGradient id="SVGID_2_" gradientUnits="userSpaceOnUse" x1="-6021.2769" y1="-4174.8843" x2="-4294.1865" y2="-4174.8843" gradientTransform="matrix(0.4226 -0.9063 0.9063 0.4226 6189.0356 -1936.8361)">
	<stop  offset="0.3233" style="stop-color:#9E2064"/>
	<stop  offset="0.6302" style="stop-color:#C92037"/>
	<stop  offset="0.7514" style="stop-color:#CD2335"/>
	<stop  offset="1" style="stop-color:#E97826"/>
</linearGradient>
<path fill="url(#SVGID_2_)" d="M509.2,465.4c14.9-27.8,30-55,45.2-81.5c15.8-27.5,31.8-54.2,48-79.9c1-1.5,1.9-3.1,2.9-4.6
	c16-25.3,32.1-49.6,48.4-72.9l-49-92.5c-3.7,4.5-7.4,9.1-11.1,13.7c-14.1,17.6-28.8,36.5-43.8,56.6c-17,22.6-34.4,46.8-52.1,72.2
	c-16.3,23.4-32.9,48-49.5,73.4c-14.1,21.6-28.3,43.9-42.4,66.7c-0.5,0.8-1,1.7-1.6,2.6l63.7,125.9
	C481.4,518.1,495.2,491.5,509.2,465.4z"/>
<linearGradient id="SVGID_3_" gradientUnits="userSpaceOnUse" x1="-5812.7939" y1="-4001.6594" x2="-4783.6157" y2="-4001.6594" gradientTransform="matrix(0.4226 -0.9063 0.9063 0.4226 6189.0356 -1936.8361)">
	<stop  offset="0" style="stop-color:#282662"/>
	<stop  offset="9.548390e-02" style="stop-color:#662E8D"/>
	<stop  offset="0.7882" style="stop-color:#9F2064"/>
	<stop  offset="0.9487" style="stop-color:#CD2032"/>
</linearGradient>
<path fill="url(#SVGID_3_)" d="M218.8,1174.8c-8.4,23.2-16.9,46.8-25.4,70.9c-0.1,0.4-0.2,0.7-0.4,1.1c-1.2,3.4-2.4,6.8-3.6,10.2
	c-5.7,16.3-10.7,30.9-22.1,64.2c18.8,8.6,33.9,31.1,48.1,56.7c-1.5-26.5-12.5-51.4-33.3-70.7c92.6,4.2,172.4-19.2,213.6-86.9
	c3.7-6,7.1-12.4,10.1-19.1c-18.8,23.8-42,33.8-85.7,31.4c-0.1,0-0.2,0.1-0.3,0.1c0.1,0,0.2-0.1,0.3-0.1
	c64.4-28.8,96.7-56.5,125.3-102.3c6.8-10.9,13.3-22.7,20.1-35.9c-56.3,57.8-121.6,74.3-190.3,61.8l-51.6,5.7
	C222,1166.1,220.4,1170.4,218.8,1174.8z"/>
<linearGradient id="SVGID_4_" gradientUnits="userSpaceOnUse" x1="-5924.2744" y1="-4190.9775" x2="-4197.1841" y2="-4190.9775" gradientTransform="matrix(0.4226 -0.9063 0.9063 0.4226 6189.0356 -1936.8361)">
	<stop  offset="0.3233" style="stop-color:#9E2064"/>
	<stop  offset="0.6302" style="stop-color:#C92037"/>
	<stop  offset="0.7514" style="stop-color:#CD2335"/>
	<stop  offset="1" style="stop-color:#E97826"/>
</linearGradient>
<path fill="url(#SVGID_4_)" d="M242.9,1059.3c11.1-28.8,22.6-57.9,34.4-87.3c11.3-28.1,22.9-56.5,34.7-84.9
	c11.8-28.5,24-57,36.3-85.5c12.6-29,25.4-58,38.5-86.9c12.9-28.5,26.1-56.9,39.5-85c4.8-10.1,9.7-20.2,14.6-30.3
	c8.4-17.4,17-34.6,25.6-51.7c0.5-0.9,0.9-1.8,1.4-2.7l-63.7-125.9c-1,1.7-2.1,3.4-3.1,5.1c-14.9,24.3-29.6,49.1-44.1,74.4
	c-14.7,25.6-29.1,51.7-43.1,78.1c-11.9,22.3-23.5,44.8-34.7,67.5c-2.3,4.6-4.5,9.2-6.7,13.7c-13.9,28.6-26.4,56.2-37.8,82.8
	c-12.9,30.1-24.2,58.8-34.1,86.1c-6.5,17.9-12.5,35.2-17.9,51.9c-4.5,14.2-8.7,28.4-12.7,42.6c-9.5,33.4-17.7,66.7-24.5,99.8
	l64,126.4c8.5-22.6,17.1-45.6,26.1-68.8C237.9,1072.3,240.4,1065.8,242.9,1059.3z"/>
<linearGradient id="SVGID_5_" gradientUnits="userSpaceOnUse" x1="-5798.3159" y1="-4167.6108" x2="-4890.6782" y2="-4167.6108" gradientTransform="matrix(0.4226 -0.9063 0.9063 0.4226 6189.0356 -1936.8361)">
	<stop  offset="0" style="stop-color:#282662"/>
	<stop  offset="9.548390e-02" style="stop-color:#662E8D"/>
	<stop  offset="0.7882" style="stop-color:#9F2064"/>
	<stop  offset="0.9487" style="stop-color:#CD2032"/>
</linearGradient>
<path fill="url(#SVGID_5_)" d="M144.4,1025.6c-8,40.5-13.8,80.8-16.6,120.8c-0.1,1.4-0.2,2.8-0.3,4.2c-20-32-73.5-63.3-73.4-63
	c38.3,55.5,67.4,110.7,71.7,164.8c-20.5,4.2-48.6-1.9-81.1-13.8c33.9,31.1,59.3,39.7,69.2,42c-31.1,1.9-63.5,23.3-96.1,47.9
	c47.7-19.5,86.3-27.2,113.9-20.9c-43.8,124-87.7,260.9-131.6,406.2c13.5-4,21.5-13,26-25.3c7.8-26.3,59.8-199,141.2-425.9
	c2.3-6.5,4.6-12.9,7-19.5c0.7-1.8,1.3-3.6,2-5.4c8.6-23.8,17.5-48.1,26.7-72.9c2.1-5.6,4.2-11.3,6.3-17c0-0.1,0.1-0.2,0.1-0.3
	l-64-126.4C145,1022.6,144.7,1024.1,144.4,1025.6z"/>
<linearGradient id="SVGID_6_" gradientUnits="userSpaceOnUse" x1="-5924.2744" y1="-4012.23" x2="-4197.1841" y2="-4012.23" gradientTransform="matrix(0.4226 -0.9063 0.9063 0.4226 6189.0356 -1936.8361)">
	<stop  offset="0.3233" style="stop-color:#9E2064"/>
	<stop  offset="0.6302" style="stop-color:#C92037"/>
	<stop  offset="0.7514" style="stop-color:#CD2335"/>
	<stop  offset="1" style="stop-color:#E97826"/>
</linearGradient>
<path fill="url(#SVGID_6_)" d="M477.7,555.7c-1.8,3.7-3.7,7.5-5.5,11.3c-5.5,11.4-11.1,23-16.8,34.9c-6.1,12.8-12.3,26-18.5,39.4
	c-3.1,6.8-6.3,13.6-9.5,20.5c-9.5,20.7-19.2,42.1-29,64.2c-12.1,27.2-24.3,55.4-36.8,84.7c-11.9,27.9-23.9,56.8-36.1,86.8
	c-11.6,28.4-23.3,57.7-35.2,87.9c-10.6,27-21.3,54.6-32,83.1c-0.5,1.4-1,2.8-1.6,4.1c-10.7,28.3-21.5,57.3-32.4,87
	c-0.2,0.7-0.5,1.4-0.7,2l51.6-5.7c-1-0.2-2-0.3-3.1-0.5c61.6-7.7,143.6-53.7,196.5-110.6c24.4-26.2,46.5-57.1,67-93.3
	c15.2-26.9,29.6-56.8,43.2-89.8c11.9-28.9,23.3-60.1,34.4-94c-14.2,7.5-30.4,12.9-48.3,16.7c-3.1,0.7-6.3,1.3-9.6,1.9
	c-3.2,0.6-6.5,1.1-9.9,1.6l0,0l0,0c0,0,0.1,0,0.1-0.1c57.5-22.1,93.7-64.8,120.1-117.1c-15.1,10.3-39.7,23.8-69.2,30.3
	c-4,0.9-8.1,1.6-12.3,2.2c-1,0.1-2.1,0.3-3.1,0.5l0,0l0,0c0,0,0.1,0,0.1,0c0,0,0,0,0.1,0l0,0c19.9-8.3,36.8-17.7,51.4-28.7
	c3.1-2.4,6.2-4.8,9.1-7.3c4.5-3.8,8.7-7.9,12.7-12.2c2.6-2.7,5.1-5.5,7.5-8.4c5.7-6.8,11.1-14.2,16.1-22.1c1.5-2.4,3-4.9,4.5-7.5
	c1.9-3.7,3.7-7.3,5.5-10.8c8-16.1,14.5-30.5,19.6-43.2c2.6-6.3,4.8-12.2,6.7-17.6c0.8-2.2,1.5-4.3,2.2-6.3c2-6.1,3.7-11.5,5-16.2
	c2-7.1,3.1-12.7,3.8-16.8l0,0l0,0c-1.9,1.5-4.2,3.1-6.7,4.6c-17.3,10.4-47.1,19.8-71.1,24.2l47.3-5.2l-47.3,5.2
	c-0.4,0.1-0.7,0.1-1.1,0.2c-2.4,0.4-4.8,0.8-7.2,1.2c0.4-0.2,0.8-0.4,1.2-0.6l-161.9,17.7C478.3,554.5,478,555.1,477.7,555.7z"/>
<linearGradient id="SVGID_7_" gradientUnits="userSpaceOnUse" x1="-6031.4116" y1="-4021.106" x2="-4304.3213" y2="-4021.106" gradientTransform="matrix(0.4226 -0.9063 0.9063 0.4226 6189.0356 -1936.8361)">
	<stop  offset="0.3233" style="stop-color:#9E2064"/>
	<stop  offset="0.6302" style="stop-color:#C92037"/>
	<stop  offset="0.7514" style="stop-color:#CD2335"/>
	<stop  offset="1" style="stop-color:#E97826"/>
</linearGradient>
<path fill="url(#SVGID_7_)" d="M660,228.4c-14.4,22.1-30.1,47.2-47.1,75.6c-0.9,1.5-1.8,3-2.7,4.5c-14.6,24.6-30.1,51.6-46.4,81.2
	c-14.1,25.5-28.8,52.9-44,82.4c-13.3,25.7-27,52.9-41.1,81.7l161.9-17.7c47.2-21.7,68.3-41.3,88.7-69.7c5.4-7.8,10.9-16,16.3-24.5
	c16.6-26,32.9-54.6,47.5-83c14.1-27.4,26.5-54.7,36-79.2c6.1-15.6,10.9-30.1,14.3-42.8c2.9-11.2,5.3-21.9,7.1-32.1
	C787.5,215.6,710.2,225.9,660,228.4z"/>
<path fill="#BE202E" d="M555.4,786.4c-3.2,0.6-6.5,1.1-9.9,1.6l0,0C548.8,787.5,552.1,787,555.4,786.4z"/>
<path opacity="0.35" fill="#BE202E" d="M555.4,786.4c-3.2,0.6-6.5,1.1-9.9,1.6l0,0C548.8,787.5,552.1,787,555.4,786.4z"/>
<linearGradient id="SVGID_8_" gradientUnits="userSpaceOnUse" x1="-5924.2744" y1="-3959.0669" x2="-4197.1841" y2="-3959.0669" gradientTransform="matrix(0.4226 -0.9063 0.9063 0.4226 6189.0356 -1936.8361)">
	<stop  offset="0.3233" style="stop-color:#9E2064"/>
	<stop  offset="0.6302" style="stop-color:#C92037"/>
	<stop  offset="0.7514" style="stop-color:#CD2335"/>
	<stop  offset="1" style="stop-color:#E97826"/>
</linearGradient>
<path fill="url(#SVGID_8_)" d="M555.4,786.4c-3.2,0.6-6.5,1.1-9.9,1.6l0,0C548.8,787.5,552.1,787,555.4,786.4z"/>
<path fill="#BE202E" d="M581.2,703.8c1-0.1,2.1-0.3,3.1-0.5C583.2,703.5,582.2,703.7,581.2,703.8L581.2,703.8z"/>
<path opacity="0.35" fill="#BE202E" d="M581.2,703.8c1-0.1,2.1-0.3,3.1-0.5C583.2,703.5,582.2,703.7,581.2,703.8L581.2,703.8z"/>
<linearGradient id="SVGID_9_" gradientUnits="userSpaceOnUse" x1="-5924.2744" y1="-3965.1499" x2="-4197.1841" y2="-3965.1499" gradientTransform="matrix(0.4226 -0.9063 0.9063 0.4226 6189.0356 -1936.8361)">
	<stop  offset="0.3233" style="stop-color:#9E2064"/>
	<stop  offset="0.6302" style="stop-color:#C92037"/>
	<stop  offset="0.7514" style="stop-color:#CD2335"/>
	<stop  offset="1" style="stop-color:#E97826"/>
</linearGradient>
<path fill="url(#SVGID_9_)" d="M581.2,703.8c1-0.1,2.1-0.3,3.1-0.5C583.2,703.5,582.2,703.7,581.2,703.8L581.2,703.8z"/>
<path fill="#BE202E" d="M581.3,703.8C581.3,703.8,581.3,703.8,581.3,703.8L581.3,703.8L581.3,703.8L581.3,703.8
	C581.3,703.8,581.3,703.8,581.3,703.8z"/>
<path opacity="0.35" fill="#BE202E" d="M581.3,703.8C581.3,703.8,581.3,703.8,581.3,703.8L581.3,703.8L581.3,703.8L581.3,703.8
	C581.3,703.8,581.3,703.8,581.3,703.8z"/>
<linearGradient id="SVGID_10_" gradientUnits="userSpaceOnUse" x1="-4954.02" y1="-3966.3701" x2="-4572.2764" y2="-3966.3701" gradientTransform="matrix(0.4226 -0.9063 0.9063 0.4226 6189.0356 -1936.8361)">
	<stop  offset="0.3233" style="stop-color:#9E2064"/>
	<stop  offset="0.6302" style="stop-color:#C92037"/>
	<stop  offset="0.7514" style="stop-color:#CD2335"/>
	<stop  offset="1" style="stop-color:#E97826"/>
</linearGradient>
<path fill="url(#SVGID_10_)" d="M581.3,703.8C581.3,703.8,581.3,703.8,581.3,703.8L581.3,703.8L581.3,703.8L581.3,703.8
	C581.3,703.8,581.3,703.8,581.3,703.8z"/>
</svg>
