<?xml version="1.0" encoding="utf-8"?>
<!-- Generator: Adobe Illustrator 22.0.1, SVG Export Plug-In . SVG Version: 6.00 Build 0)  -->
<svg version="1.1" id="Layer_1" xmlns="http://www.w3.org/2000/svg" xmlns:xlink="http://www.w3.org/1999/xlink" x="0px" y="0px"
	 viewBox="0 0 383 90" enable-background="new 0 0 383 90" xml:space="preserve">
<linearGradient id="SVGID_1_" gradientUnits="userSpaceOnUse" x1="40.8223" y1="90" x2="40.8223" y2="-9.094947e-13">
	<stop  offset="0" style="stop-color:#FFCB00"/>
	<stop  offset="1" style="stop-color:#FF4F00"/>
</linearGradient>
<path fill="url(#SVGID_1_)" d="M45.5,0c2.6,2.5,4.8,5.5,7.1,8.2c2.6,3,7,4.1,11.2,2.9c7.8-2.3,8.4-2.1,9,6.2c0.1,1.9,1.1,3,2.1,4.3
	c2.1,2.6,4.1,5.3,5.2,8.5c0.7,2.1,1.1,4.1-0.9,6.3c-4.9-8.4-11.5-14.3-21-16.7C44.4,16.1,30.8,22.4,25.5,35
	c-6,14.1-2.2,27.4,11.3,34.6c12.8,6.8,27.4,1.7,30.5-13.7c1.9-9.6-7.5-18.6-17.1-16.8c-5.6,1-10.1,7.4-9.1,12.8
	c1.1,5.9,6.2,8.9,12.9,7.5c0.5-0.1,0.9,0,1.5,0c-3,3.8-7.1,4.4-12.2,1.8c-5.7-2.9-8.4-9.3-6.8-16.2C38,38,44,33.7,49.9,32.5
	c6.5-1.3,11.8,0,17.1,3.2c6.3,3.8,9.2,9.9,9.6,16.9c0.2,3.6,1.7,6.1,3.5,8.9c2.7,4.4,2.1,6.1-2.9,7.7c-7,2.2-11.2,6.9-13.4,13.6
	c-0.9,2.8-2.6,5-4.3,7.3c-1,0-2,0-3,0c-2.9-2-5.6-5.3-8.8-5.8c-6.1-1-12.2-2.6-18.7,0.7c-7.1,3.6-10.3,0.9-9.2-7.1
	c0.6-4-0.5-6.7-2.6-9.9c-2-3-4.9-3-7.5-4.2c-3.9-1.8-9.2-3.6-9.7-7.8c-0.5-4,3.5-7.6,7-10.3c5.1-4,6.4-9.8,3.7-16
	c-1.9-4.3-4.4-9.7-1.6-13.2c3-3.7,8.9-2.9,13.7-1.9c2.5,0.5,4.3-0.2,6.6-0.8c7.4-2,9.4-9.1,14-13.7C44.2,0,44.8,0,45.5,0z"/>
<path fill="#0D0D0D" d="M135.9,51.3c-2.7,0-5.3-0.1-8,0c-2.6,0.2-3.8-0.3-3.8-3.4c0-3.1,1.4-3.5,3.9-3.4c8.3,0.1,16.6,0.1,25,0
	c2.1,0,3.3,0.2,3.3,2.9c0.1,11.3-7.4,22.8-18.1,27c-11.1,4.4-24,1.4-31.9-7.5c-7.8-8.8-9.8-22.6-4-32.6c9.3-15.9,27.3-21.3,42.7-10
	c1.5,1.1,4.4,1.8,2,4.8c-1.8,2.2-2.9,3.5-6.2,1.3c-13.5-9.2-29.9-2.9-33.6,12.6c-2.5,10.3,4.1,21.8,14.3,24.9
	c10.2,3.2,21.6-2.4,25.3-12.3c1.1-2.8,1.4-4.8-2.8-4.4C141.3,51.5,138.6,51.3,135.9,51.3z"/>
<path fill="#0D0D0D" d="M288.6,71.6c-10.7,7-21.3,6.1-28.3-1.7c-6.7-7.4-6.9-18.4-0.6-26c7-8.3,17.2-9.3,28.3-2.6
	c-0.5-4.6,2.5-4,5.2-3.8c3.7,0.4,1.9,3.3,2,5c0.2,9.6,0.2,19.3,0,28.9c0,1.7,1.5,4.5-2.5,4.6C289.8,76.2,288,75.6,288.6,71.6z
	 M275.4,68.9c6.8,0,12.3-5.6,12.2-12.4c0-6.5-5.6-12.1-12-12.1c-6.8,0-12.5,5.5-12.5,12.2C263.1,63.4,268.6,68.9,275.4,68.9z"/>
<path fill="#0D0D0D" d="M376.5,71.2c-8.5,6.4-16.3,7.3-24.3,2.3C345,69,341.9,62.3,343,53.9c1.8-13.9,17.5-21.4,29.7-14.3
	c1.2,0.7,3.1,3.9,3.7-0.7c0.4-2.5,3.1-1.1,4.7-1.2c2.1-0.2,1.6,1.7,1.6,2.9c0,10.3,0.1,20.7-0.1,31c0,1.7,1.6,4.4-2.4,4.6
	C377,76.3,375.9,75.1,376.5,71.2z M362.7,68.9c6.6,0.1,12.5-5.6,12.5-12.2c0-6.4-5.4-12-12-12.3c-6.7-0.3-12.6,5.3-12.7,12
	C350.5,63.1,356,68.8,362.7,68.9z"/>
<path fill="#0D0D0D" d="M219.5,71.6c-12.3,7.1-22.2,6-29.2-2.5c-6.1-7.5-5.9-18.4,0.5-25.6c7.1-7.9,17.5-8.8,27.5-2.4
	c2-0.3,0.1-3.1,2.3-3.7c3.2-0.9,5.3,0.4,5.3,3.9c0,10.3,0,20.6,0,30.9c0,2,0.4,3.7-2.8,3.8C219.7,76.3,219,75,219.5,71.6z
	 M218.3,56.5c-0.1-6.4-5.7-12-12.2-12.1c-6.7-0.1-12.5,5.6-12.5,12.2c0,6.7,5.7,12.3,12.4,12.3C212.6,68.9,218.4,63.1,218.3,56.5z"
	/>
<path fill="#0D0D0D" d="M303.8,56.5c0-5-0.1-10,0-15c0-1.3-1-3.4,1.2-3.8c1.6-0.3,4.2-1.2,5,0.7c1,2.3,1.7,1.1,2.8,0.6
	c12.4-5.6,23.6,1.2,24,14.8c0.2,6.3-0.1,12.7,0.1,19c0.1,3.3-1.5,3.3-3.9,3.3c-2.4,0-4.1,0.1-3.9-3.3c0.3-6.2,0.2-12.3,0.1-18.5
	c-0.1-6-3.8-10-8.9-9.9c-5,0.1-8.6,3.9-8.7,9.6c-0.2,6.3-0.2,12.7,0,19c0.1,3.1-1.5,3.1-3.6,3c-2.1-0.1-4.3,0.5-4.2-3.1
	C304,67.5,303.8,62,303.8,56.5z"/>
<path fill="#0D0D0D" d="M256.5,21.9c-0.8,5.2-2.7,8-7.9,7.2c-2.2-0.3-4.2,0.6-5.7,2.4c-1.3,1.5-1.8,3.4-1.2,5.1
	c0.6,1.9,2.6,0.8,3.9,1c1.5,0.2,3,0.1,4.5,0c2.5-0.2,3.9,0.2,3.9,3.4c0,3.3-1.6,3.2-4,3.2c-8.5,0.1-8.5,0.1-8.5,8.5
	c0,6.6-0.2,13.3,0.1,19.9c0.1,3-1,3.5-3.7,3.5c-2.8,0-4.1-0.3-4.1-3.7c0.2-12.1,0-24.3,0.1-36.4c0.1-9.3,5-14,14.2-14.2
	C250.9,21.8,253.6,21.9,256.5,21.9z"/>
<path fill="#0D0D0D" d="M162.5,56.4c0-5-0.1-10,0-15c0-1.3-1-3.4,1.2-3.7c1.6-0.2,3.8-1.3,4.9,0.9c0.6,1.2,1,1.5,2.1,0.7
	c3.4-2.4,7.3-1.8,11.1-1.8c1.3,0,4.1-1.1,3.7,1.2c-0.4,2.2-0.4,5.6-3.9,6.1c-1,0.2-2,0-3,0.1c-4.9,0.3-8,3.3-8.2,8.2
	c-0.2,6.3-0.2,12.7,0,19c0.1,3.2-0.9,4-3.9,3.9c-2.7-0.1-4.3-0.3-4.1-3.7C162.7,67.1,162.5,61.8,162.5,56.4z"/>
</svg>
